<mxfile host="app.diagrams.net" modified="2022-02-17T10:37:26.458Z" agent="5.0 (Windows NT 10.0; Win64; x64) AppleWebKit/537.36 (KHTML, like Gecko) Chrome/98.0.4758.82 Safari/537.36" etag="MlqO-EjN_yZCF6TcyNql" version="16.5.6" type="github">
  <diagram id="GUOpmga0q_HAxAOpauRI" name="Page-1">
    <mxGraphModel dx="1730" dy="815" grid="1" gridSize="10" guides="1" tooltips="1" connect="1" arrows="1" fold="1" page="1" pageScale="1" pageWidth="1169" pageHeight="827" math="0" shadow="0">
      <root>
        <mxCell id="0" />
        <mxCell id="1" parent="0" />
        <mxCell id="v3yQSLaKoU9rgjY1iF_y-42" style="rounded=0;orthogonalLoop=1;jettySize=auto;html=1;entryX=0.001;entryY=0.622;entryDx=0;entryDy=0;entryPerimeter=0;fontSize=18;startArrow=classic;startFill=1;" edge="1" parent="1" source="v3yQSLaKoU9rgjY1iF_y-3" target="v3yQSLaKoU9rgjY1iF_y-18">
          <mxGeometry relative="1" as="geometry" />
        </mxCell>
        <mxCell id="v3yQSLaKoU9rgjY1iF_y-45" style="edgeStyle=none;rounded=0;orthogonalLoop=1;jettySize=auto;html=1;entryX=0.5;entryY=1;entryDx=0;entryDy=0;fontSize=18;startArrow=classic;startFill=1;exitX=0.526;exitY=0.009;exitDx=0;exitDy=0;exitPerimeter=0;" edge="1" parent="1" source="v3yQSLaKoU9rgjY1iF_y-3" target="v3yQSLaKoU9rgjY1iF_y-44">
          <mxGeometry relative="1" as="geometry">
            <mxPoint x="310" y="400" as="sourcePoint" />
          </mxGeometry>
        </mxCell>
        <mxCell id="v3yQSLaKoU9rgjY1iF_y-3" value="Front End" style="rounded=1;whiteSpace=wrap;html=1;fontSize=18;fontStyle=1;verticalAlign=top;" vertex="1" parent="1">
          <mxGeometry x="110" y="395" width="380" height="175" as="geometry" />
        </mxCell>
        <mxCell id="v3yQSLaKoU9rgjY1iF_y-15" value="&lt;font style=&quot;font-size: 18px&quot;&gt;&lt;b&gt;Database&lt;/b&gt;&lt;/font&gt;" style="rounded=1;whiteSpace=wrap;html=1;verticalAlign=top;" vertex="1" parent="1">
          <mxGeometry x="590" y="40" width="360" height="160" as="geometry" />
        </mxCell>
        <mxCell id="v3yQSLaKoU9rgjY1iF_y-35" style="edgeStyle=orthogonalEdgeStyle;rounded=0;orthogonalLoop=1;jettySize=auto;html=1;entryX=0.258;entryY=0;entryDx=0;entryDy=0;entryPerimeter=0;fontSize=18;startArrow=classic;startFill=1;" edge="1" parent="1" source="v3yQSLaKoU9rgjY1iF_y-16" target="v3yQSLaKoU9rgjY1iF_y-18">
          <mxGeometry relative="1" as="geometry" />
        </mxCell>
        <mxCell id="v3yQSLaKoU9rgjY1iF_y-16" value="User Data" style="rounded=0;whiteSpace=wrap;html=1;" vertex="1" parent="1">
          <mxGeometry x="625" y="140" width="120" height="40" as="geometry" />
        </mxCell>
        <mxCell id="v3yQSLaKoU9rgjY1iF_y-32" style="edgeStyle=orthogonalEdgeStyle;rounded=0;orthogonalLoop=1;jettySize=auto;html=1;entryX=0.75;entryY=0;entryDx=0;entryDy=0;fontSize=18;startArrow=classic;startFill=1;" edge="1" parent="1" source="v3yQSLaKoU9rgjY1iF_y-17" target="v3yQSLaKoU9rgjY1iF_y-18">
          <mxGeometry relative="1" as="geometry" />
        </mxCell>
        <mxCell id="v3yQSLaKoU9rgjY1iF_y-17" value="Game Room Data" style="rounded=0;whiteSpace=wrap;html=1;" vertex="1" parent="1">
          <mxGeometry x="800" y="140" width="120" height="40" as="geometry" />
        </mxCell>
        <mxCell id="v3yQSLaKoU9rgjY1iF_y-18" value="&lt;font style=&quot;font-size: 18px&quot;&gt;&lt;b&gt;Server&lt;/b&gt;&lt;/font&gt;" style="rounded=1;whiteSpace=wrap;html=1;verticalAlign=top;" vertex="1" parent="1">
          <mxGeometry x="592.5" y="270" width="357.5" height="340" as="geometry" />
        </mxCell>
        <mxCell id="v3yQSLaKoU9rgjY1iF_y-20" value="Account management" style="rounded=1;whiteSpace=wrap;html=1;verticalAlign=top;" vertex="1" parent="1">
          <mxGeometry x="610" y="400" width="140" height="180" as="geometry" />
        </mxCell>
        <mxCell id="v3yQSLaKoU9rgjY1iF_y-22" value="Client Registration" style="rounded=0;whiteSpace=wrap;html=1;" vertex="1" parent="1">
          <mxGeometry x="625" y="430" width="110" height="40" as="geometry" />
        </mxCell>
        <mxCell id="v3yQSLaKoU9rgjY1iF_y-23" value="Login &amp;amp; Logout" style="rounded=0;whiteSpace=wrap;html=1;" vertex="1" parent="1">
          <mxGeometry x="625" y="480" width="110" height="40" as="geometry" />
        </mxCell>
        <mxCell id="v3yQSLaKoU9rgjY1iF_y-24" value="Edit profile" style="rounded=0;whiteSpace=wrap;html=1;" vertex="1" parent="1">
          <mxGeometry x="625" y="530" width="110" height="40" as="geometry" />
        </mxCell>
        <mxCell id="v3yQSLaKoU9rgjY1iF_y-25" value="Poker room management system" style="rounded=1;whiteSpace=wrap;html=1;verticalAlign=top;" vertex="1" parent="1">
          <mxGeometry x="800" y="390" width="130" height="200" as="geometry" />
        </mxCell>
        <mxCell id="v3yQSLaKoU9rgjY1iF_y-26" value="Room Creation" style="rounded=0;whiteSpace=wrap;html=1;" vertex="1" parent="1">
          <mxGeometry x="810" y="435" width="110" height="40" as="geometry" />
        </mxCell>
        <mxCell id="v3yQSLaKoU9rgjY1iF_y-27" value="Join &amp;amp; quit room" style="rounded=0;whiteSpace=wrap;html=1;" vertex="1" parent="1">
          <mxGeometry x="810" y="485" width="110" height="40" as="geometry" />
        </mxCell>
        <mxCell id="v3yQSLaKoU9rgjY1iF_y-28" value="Game flow" style="rounded=0;whiteSpace=wrap;html=1;" vertex="1" parent="1">
          <mxGeometry x="810" y="535" width="110" height="40" as="geometry" />
        </mxCell>
        <mxCell id="v3yQSLaKoU9rgjY1iF_y-36" value="" style="shape=image;verticalLabelPosition=bottom;labelBackgroundColor=default;verticalAlign=top;aspect=fixed;imageAspect=0;image=data:image/png,iVBORw0KGgoAAAANSUhEUgAAANIAAAC3CAYAAABnoACrAAAABGdBTUEAALGPC/xhBQAAACBjSFJNAAB6JgAAgIQAAPoAAACA6AAAdTAAAOpgAAA6mAAAF3CculE8AAAABmJLR0QA/wD/AP+gvaeTAAA0r0lEQVR42u1deXxU1fX/nrdMEgggWq0tsklmAqKCgv5saVWsVetSaxW1KjITMO5La3erxrq0trbWDZWSmQHrUqlLpXW3uFVbRZQqQmYCIaBo1aJIMMm8+97398dEjWzvzpJkHs75fPxDct97d84933uWe+45gs8BTW/K7OuJfFuA/QhMBDBoC0MzAFpBviwiCz3hMxtq7Bfnibj4HNMU0hzQrPYF8TWSEyHG3gCHAQht4ZEPACwE8G+DfKCxNvTCts4j2VZ/2FlLWN1hqzMJOQPgrgW86j2Cjxhi3L0+Yz48b6xkPhfgWcJQdcj9FuidAMghAHbI912EtAg4U7VbN982TjaUgRQAaiCNlWnnbIFcDGDHIr/+fxC5U1x1Y3x0ZdO2KBCxdOdu4plnU3gigO2L/Pp3CV4+Imzf1CDilYFUojQt3THKoJkA8PUe/hQBPCoGro7X2Au2Bd7VpZyDCfwYwME9LRcEnjbgxuKRyhVlIJUYRdOZ/YTyQA9oIT96XDz+LD46tDCQfGvK7GOI/IrAN3r502tJfCdZaz9TBlLJgEgdJeTdACr7aAoEcI947i+CYvLNSHWOcWFcAeCYPpSDDgNyXGPE+nsZSH1t0zc7X4WHxwFUlcB0lIgklDJ/NneM/K8U+VXfxC844l4NcBoAswSm9BHAgxKR0L/LQOojOnU5h5muWoQCIko9RP8VkfPiYevuktp0Uup7AK/rA/PXNwhhirX37LC8UQZSL1MDabSm1RMADszj8TYAzQDe6/r//gCGA/hSMXkigvvhWmfHR8uaPjXj0tzFpboZwJFFfK0H4G0QKyH4SAAh8AUAowBU5+NrJsLWIRBhGUi96RelMucK5PocHllHYJYI72qrsRdv7pC1fjkHKaq94eIAT/AtyR7eGgVO9QMR/jBeY8d7XUhIiaWdekCuxpYPoXMBzosUPATgKQfWotvD8uHGg6aQ5oAmZy+aciKI0wAM1J6u8OxkODSzDKReopNaObiiUzVD85yDlMZMpfmjO4bL+7n5XxwqVCcDiJGIFMjph1xlTe0t3ymW5o6k+pMAhxT4qmUAEjCsOxM1sjr3dXKvAVin+ch7tmnVzBol68pA6hVb37ka2TMPP3JBnpGoDc0udGePLleHiocLkT1nyfdFqyk4PhkO/asn+TNtmTPJMHAXgF3yninwqCH4XbzGeqxQTVqXytQTMlMruCH4VSJs/7wMpB6mk9McGKJarWcy8IxEJHRrMb9f1+xMpoerAOyX5ysyBH+cDNvXF93UIyWaUt8Xwa8B2Hki6DlD8LPGiP10UfnWlDmbIjfqmMJVjjV05lhpKwOpB6kunbmAlGs1JGJOIhKK9tg8spkA1wAYl6fA/pUhK5ocKR8UZT7LOACGaiQwJc9XLKXIpcka8y895cvFUpnbATnJVyjJc+K1oZuCJJdG0IBEynQdW5u2fUFPziMesR9vC1sTKDwbwPo8trCjxXFfnJbuHFuwKZfuHEvDXZQniNYBPGN42No9Gbbm9WRApLPCPgfAWv+gg8wom3Y9SF2n8a/7b/a8IBkJXddb8+o6z7oZwOF5PP6BRxw3p9Z+ogDN+BfkF5X7mynWmb15fhNLOT8E8Ftf59Z1a+eOqUyVNVIPkAfjOB3B7OfYjb05r7mjZFUiYh8BkakAco3KbWcIHqxLZXI2Q6PpTB2BB/MA0buEnJyI2Ef19iFoRqxZOhrcNMxjy6ZdT5l1wDc1zILb+8pRTYStPynD2g3AAzk+GiIkHmtyLgPpbyWQEks5VwilMY+gwn0Qa2wyYt3RFzzKnj2Jzre/GSTZDIxpF21hpTjqffgkpgrx9Xit/WxfO3LRtHOeQH6bs6CTdzNkT0uOlI7N/fncNCvaPGc2RE7JcVaKgl8ka6zf9HX2QGyZcxAM+JmyHbStwVviQ1kj5Ummo/aFf3b32mER67m+356EyUjoOiEOAvBmjs8eLxn14MlpbhLer1/OQW1Uj+UBojdg4IBk2L66FFJw2mqtp5C9jr41qmSnmlA27YruH3G8vwzi6VK6eRmvtZ+1aY0H8EiOdsLkCqp/nLqUO3TTyNs5rnoEuV5aJBbQtvZJ1NjPlQpfutKzfK0GMTmuDKSi7/LGHhpC81ypTXtWrbzXFraOEMFVOfqDE0xTPXrqUu4QS3NHcdQCAP+X2ytwxfCIdXBypLxdcv6u+AMJ1FjzEiErOJEGjtZYnP+U4tS7duCLounMcqHckoPftLdpec/A8wwIanP4ZAaU+kStNad0TQx5FT5WpoBjyhqp+Ega7jfC9azXSvkXJMOhuGTPmvSTMumNyRFEH8DDt0oaRABM11zir1JlWBlIRaSGBbQA+ZLPsM65Eawp9d8Sj9iPe+JNAtnaA5vNSog3KTHa/kep8+HDMXgDgOOjkYY0kEYZSEWiN4ZjB38zVN4IyqWwOeGKJbZrfwXAoiK+9kXa9lcS4YrXg8CDeSIuSL+NL7RiGQaXgVQsynT009iN1yJANGs3eavKsQ4A8GSh7xLgCdVuTS7FoMLWJy6+a2ba6FcGUpHIMQ0dZn6EgNHMsdJmV1tHEHg0b1kkHl5fZR0VyAqmRLuv3+t0VpWBVKyNyxN/IEnwgAQAs74sH21wrKOQe1oRIHjIC1nHzBsq7UH87TprZuhtomUg6ZAp4rsrkcEEEgBgN7gAci/U78EdsRIKwSV/IGmsfRlImuQa/nayQQYTSKRUp90/IluoMdcd/cjWLzuJoES2Np2+/5q5XtlHKqKwie8BpidGIFuvxNLqWoCxAhz2U1qb1W+CuYf4a1MTEioDqVg7l0tfR1rA6qAJUrQpcxqA84vgtF8YTWfOCqBOGuBvvbKtDKTimQAfagwbECQRiqWdQ0WkaDXchHJdNOUE6g4PDP81M/TWvgwkTa/avyYCgwOkWLpzNxB3obi5jpYAf4ku7QxMoqfWmom3vgykolGFPzNFv6JnX1J9E78Amg8A2E7zkaUgdDtcDBRTHpixgl8MCJR814xSUQZSEUlDI7HkNVK0hZWOqAcAjtI02FaIZx3swvoGwJWaz4xwlZpfv4ZBiHb5rhktlIFULBpWiw3I1p7eivzI9iX9I0gR5SQBfEXziXcE6pvx0bJmbq286breodAvrLKP0+bM1qr/0If8AHzz6FT5qnkRqevWq58QDeh+o7TUqC6tfgHKCZrDO2DgmO6tIeeOqUwZwHeR7byuo5m+F0urki39O3U5doRPTysC7wYnbhIc8jVtxHZGlCSIsrXnLtV2wUVO29zV8MaI/TQo9Tl8+pfRZuewUuSJ5Tkj/d1e/zUvAylH0mGq6RklB6RTl3MYgTuh2R2PgssSYetPW/p7otaak8O1dUM83D5jWfvIkltQ6qwVy0AqOt+BFv8xLCmBibaw0vTUPcg24NLZLOYla6xf+o2L11i/AKhbl25717DunbKaVaWFI/oDSaQMpOKrJP/diSKlpZEy7o0gJmqOftGqtqJalxNFSNueDuB5zXePr253ry2t5ZTh/mPKGqn4O5hIiwbjS0Yj1aUz00U4Xeu3QVog1hGzvizaibfJkdJhWtYx+lfWeXqsSU0rISSN0Fjz1jKQik2u5787kWNLYarRVGY8KTdoDu8Q8Y5LhCXnCNXsXeW/AhwNoF1TeG+JpTN7l8bOyN19l1y5LWUgFZkGGKEWwCdbWGT49CXs0/Okk1o5WID74BPa7WbinJ4Ih/Ku3RCvDS0W4bmawytB4+765RzUlzzKHlPIUJ9hziCroqyRik03hKUTgqV+4zxTje/LeVZ2OjMBPV9NKDPjtdbcQr8ZD4caIaLZ3pOjlKv+2KdCZyodrfj6DWHpLAOpZ+yBl/39cOzVV7OLpTIxQk7U84vwQn/D/EGxvl0N8xwIFmp+e0osrU7pKz4JdNZIFgVJMgMFJAF8geQJ+wRI09IdowDRbW72P7jqhGLuuDeEpdM1rGMBvKfpo9wcXd4R7pt19F8jwns5SLJpBWmyhPhrJEivA6lhAa1Wqj9B706URw+/hWnvHU2rfcRDPxGv4uONzRMZ1O0H9zeAEAB4QAaCTy44GuQ6dOUfkkYnDXwE13U9GFcb8K7W2CSrxTVvr1/ISbMmitPL6+i7RgYlUEAKVOvLaAu3E0et9Zm3a1dbA3MJJedKU1azatCGjp0dWF82DdkZYD2BQxBAIvEwRP5Ij/+1odaoisq3ejJR9KwlrG631TofoHsZsQZnm5KVgdRDfohaDnDXrf4oAwfFa+wF+X6jfiHtzODOEYayaghvFETCAGoAjADwZejfJQokCfA+gbcItAjQDLKZpjRD3OWh9ytWFqLBoinnm+JTx08EqXjYrg0Sz6ygLTLBlwXYKpDo4kAAvkA6Oc2BFZ7a0zO4p+EZYz1hjUBGOVDDxTUtCoO41+TF1e6/k9nrDYMF2O1jyc52nTLhDFQqllKtAJuFstwzvCV0ZbEyrVd1NIgAB/jOxuMrQeNg4IBkCJ8l5Vif1TpgI/tF6tKdI0FrnGdwTyHGATIOVCMpEKGAwi5RIj5/JDnKDEcBGEUhhAIxgBAVYynVAvAVCv4DTxZbdBbPHl3VspG2OZA+LNbqnVQ27Qqj6enMXh59Q6OdLuUY0+A+JCYJsB8QjKvo2yCtE+J5CJ4TGy96Dv6KrgDKli0Kb8/kmIpXy0DqQWogjda0egfADmUZ3SZp7fCwtWMptTDVspQCByQRT4B/luVtGzUyS6wP8DankaIt3NnIuIdAeCTBowCpLIvdNkkZAE8T/Jup7PsbdwtGBnhJAyna1DnagHEiBccBGBtQwfAEWEfI+8gWO1wH4EOQ6yDGR1nfmh90G9wO4JNzHIN8P/vv0r1QSKXBT5Niia6/0euH7IHuQACDCBlkgNsRGJST9dGHwcpNPi14lcA9nnLvnDumMlUGkibFmjkUnjoBwElA3+XNFcjVdggOruq0/jNzrJREyd26ZRzgec5YseUJMBiF6TcjrC+BuNMwrD/PDssbZSBtRCe1cnAo43xPKCcCmFQCvpsH8A2INAtkOclmCCpBNGjxjDw3URu6sSS1fCpzvkD+oKMcBMalnngZAzKKHmsgrAFklxKQG4/AsyK8i5Z9Z3KkfPC5BlI0lRkvYpwN8iSgT3ZJD5AVAF8BsJiU1yxxm6oktKJ7Qmn9GvZz2txX/TIquuiZ4WHrwFJ1mBtIozWlnoHgqxri0dxWZe7ZvZFZtIWVojK70jMjhnAPDxgnkPFdvOkLefpIRG6H590Urw0t/twAacoShvpb7ncNg+eQmNSLn24H8AohiwXeKyLyn8qM9aqO6VWXdq4koVMjrtOEt9fsSMVSlDDVLeuopWG+DI3LhwQuT0bsS3RMR1pqD/G4J2GMBzgOwHgAvRkUegaUm+z15r29nYjba0DKmm/qPPFwBgQ796L3ukAMXLQ+Y700b6xkcn18enNHjeeZrwGo0Bj+o0TEviYI/kZd2vkpiV9pDM2I5+4ZH13ZlOs3pixhqLpCTaQnvxJw/14MWLxlADd7tnVDb5l9PQ6kk9McGIK6AMT30TfJnssSEXtM3sGPtPMgiG9pLN4LG8LWV+eJBKLhWcMCWq1D1HMA9tH4bY8mI/ahefMw5aQA9Prdp67k29+LZ10XHy3rAwmkqYvZ36xyZgjkZwB6ojuCC6AJHydWbm2g69bmEzqNpdVxIOfp7NqG4U1orKl4DQGi6NLOPcQ0FsInZQcAhPLdeK11X67fmJbuHGvQeM1fEPk8IRN05pIH/U+IGzsN6/c9dTWj6NGxhgW06tKZC6wqtaIrOlQ8EBFvQ2Q2IcdmxNo+EbHH6lTjNA3z2Hw2AtD7neZ2dGXQQAQAyTEVr4L4tR7rvWvz6XBhwNDgvTTHI6Gv2qa1k0COI6URwDtF/Kk7UHBpiCoVS2XOa1hAq6SBND2d2at1F/U8KdcC2KlIr/1AyNso8u3ha6yhibB1WjJi3fvxziIw5msI+tRcP2r1UxcBMkxDCJbTsgLZwxUAqg3rKhH4a2uR4U5bHkX5iZP8382/AsCsUbIuHrHuSdZaM4aHrS8J8XUA10P3+rw/fRGQ61YOUS/FUpn/KznTrn4N+6k2dQmBH0KzxrUPdQB4XCjzrAHmX7Z227WrQP1j/mvF8brh0a6o1n80TZ7D47XWQwgwTU+pIzzwbxpDO13X3VPXTK5blplIQ17UkMIDE2H7qS39+dw0K9bDPcTwvCkUOQZAMfoFe4DMFs/8YTH8p4I1UiytjnbaVBOBnxQMIsGrAM+ocqwdExH7qHitNdfvyviwN60nAfzXd2MUOUl3GjTNazVt9fuCDiIAaIxYfwfwgMbQCtM0b9LmowbPCbzVVmNt9f7RDWHpTIat+fHa0KniWV8W8EwArxUu+6yn4bwWTauj+kwjRVtYKY66GsB5RQgaPCTAdfGw9YRW7etNtJK6nvArksjVw8P2CL+D0mhKfVfAezQ++5GhrN2CklTpH3hoHyGm9Tq0zpbk2GTEundrY6aQZnVarUL2av5WLEb8Ph62L8xnztOaMxNMF+dT5EQAdkFAIG+zBthn5FvrIy+NFG3qHC2OerFAEP0PxC/Fs4YlIvZR8Yj9eD4gAgBPPI3ODDK0tVl9fasm6kLaAv5a87NXbSsgygYeqlYKtM6VIMBvz01zq+dqA9Jqsh+IAMAV7a4am9CcmtBL8drQqS6tkQQuB7A27ziWyNRMm3r+1KUdkV4B0rQm5xsixvMAds9zzusFuJq2VZOotS+Nj5Y1BQtBjf1vQJb7C4CcvLW/OwOdM6F33pGuFusabGPUX6zfAEhriN2ubXRO99FaOqZ005ya0EuFznturbyZjNiXVDnWcAp+CuCDPM2zPS3T/FddszO5R027ulQmSsisPNXoegDXd1ZYv7tjuLxfdNMk5fxSgIt9fuz7/cX60uYKM3aV+kpDo5cRKUcka60Hi/4bWlgpneqrMPBVgLsRMsQA+nd5xhsEfAOQpWLgn55pPd8TZbPq0s4hJB7REJz3xbFqGsfK2i2Y/W/B5wBegEviEfvyogdPlnB7htSFJM7LMzCREcppuZST1gZSNJ05Syg35uFXeRCZaXvmZbNq5T30EHVF2pb5/mCRE+Jh6+5NgiYp52oAP9b41L2JiH1sMefeFYo9E5Bjc1j49YTcA3ozk7WhF4s7H+ceZPvV+mwo+HWy1v7Zps+r72k0QqNhuJHGmsrmnpKJWJo7iuc2UHhGHtaXB/CsRCR0a9GAFE1lzpVsOd5cQbTYIOsba0Mv9IZpUpdyFhKY4POL/5EI29/o/k8z0tzFpUppONoZT9zd5oQrlxdjvtObO3f3PONaAAcX8h4Cj1K8H8wJVywpYuBhGfzzCztc06qdO0pWbWQdPCWAX27dvxMRe79eCaSkM/uBcqsAe+bKWgrPSYZDMwv2kaJpNaUrQyEXELULcVmbY+3bWyACAI+4Q0PqJm/sUCo6v9aJVkFwQzFANIU065qcBs8zFhUKoq7d8BCDxsuxtHPJFLLgc7zkmKqVIGZqDK00PefyTQJRwNc1ZPSO3pKLZDj0rxFvWhMIXgAgl4uWIpQbYml1XEFAqks7XxFybo5q8V8Cd/d4rd2QT7Z1QRSy7gDglz4vpmV+0hl8WnNmgkC+p+MTGBnrqkKnWL+cg6rT6mEKLkWBIduNyAZxWXVaPXRymgWXHjOUdYUA/r4s5ZTp6cxen0qecYbGpptRhn1Xb4pGw2RRyUjoOk/c8QByMYUNkLf5ZUIYW3XYyLuQw30SEfze/tDaPx6pXNEXUafkSHmbOgeLRDTawkoAMD3RKTgPj7hic451rk6w46oFxdBCW6FvhqgWnNTKwYW8pHGsrCW0uqcbnie/A7I10QH/dCwB772tRt7pCxmZE65c3uZYX0M29UiXKkH8eWs83aIAeZaK6+WaZXcYgHXxsH1hb1+o2swPukVj2A6Gco+NNqnDCXzDH3fSMsCwbipkXvVr2M+z1d/QO3Uo9q7MqPmFdjKnbd2okxQMweRY2jm0+iP3eAD+HRMNmdWXMjJvrGQSEft8kKdpWDAfa4nhoc4tN2jbLJDqmtQxEBytOa+PCByZiIQSKAGKh60noHEW4pH1EF6qxUPiZ4X2Msq0uTcB+Epv8YHEpAEd7nWFvCM5UjoI4yLNiEcDhKdrjGyKj7KeLAVZSdSGZkNwFACtbAYBjt1SOtEmQJqymlWEp9tKvo3EYcmI/RhKhbLZEbM1mLK/APtqRMReSETMuwuZUiytjhMw2tusIHlatEl9pzBH3bxTpxMgs2Whv6KxK92abwZLj4ApbD8CweG6YAJx3eY0/SZA6t/uzIDIcI1XuhA5JVlrP4NSI7ESAIrSDc8EflTIwmfvNfHaPmMFvD8UZOKJUMT/fE0zpNthZOw5pSYuibD9lAE5Hn7NvrP+3cj+HU5sq0CqX0hbCL0EQuGPEmHrryhBSoTlXYD3FuFV8xsj9tOFvMCqUmcC2KUPNfTw/u1OfUHmcrbXVMGZHELOKzRg01PUGLH+LtAqcAOhceHGxwyfAZIzyD1cRxsR+Huixv4DSpgoBTu0FI+/LOQFXcw+v88VNHBhA2kUiIKLUWDPG5pySynLTDxsXQP4p0cB3HVg2j1si0AivSka32uHq84pJTt3s7Z9jfUUgGV5y43gr/HRoYWFzKG6WR3cp9ro018ztCWlJhfyhkQ4tAjA3wpA86uJGvu5UpYZiNBQ1uk6/pIn3vGbBdIU0hTIkRqfuyk5pmolSp1ECOH1eT5NuLyycGdfvlMy7DDkmMJfwoZ8tZKA1yEA1LibtIpoHKFQvt3dvPsESP2aM6ORLba+1QCDS+sPCAi1VdpJAO/m8ej9hWqjLuGZXDJAIg8q3PfMWyu941n27UGRG2VY16GrY/xWaLtB6UxkEyCZnjlB4xvPzq2VN4PCkHlDpR3EzTkrEhTmGwGfnPKHS4gdtR9nc/SBVrqhJzulF5u6knB9zVBXPsWM0d2B0ggyPI2gkWHdiGy5Yl26LxkJvVLoZ/u3ZWpQWo3cDKrMqCJppfk5PPKRTeuWoImNiL+sCzlyEyBRp8eqSDpoDMmGwuU2XW0kLFwbAYBYxvYlJxxekeYkvExXKwkl2ZP30HqMPPEt0Uxi8KYayZAB/i/HegSRXKV7pvRWsToaUFBVckAyitPxIxEOLYLIf3XGmoZ6AMGk9f78lOpNgeTRHyQGBgSSJZZ1nObIL3W/ElDYpp2TOdkrRA8fFeM905ozE0BqVdB1aH0noEDSkPVPMdNNI/kXjBAyEjRuTG3mTiBP0Zd/uaQoQqu8kjvBp1GcORmeXArNrCABozNW8ItBkxsaHK1h2q3djI8kLRrBhv2DxhDLU+cihztVJI4uhlbaUB1qhn8ItXetfitU8O3eac2ZCQCOzOGRStdVpwdNbjSuykNEVm4CJIH7ksbLJ81Ic5egMKOr6PsZuVtlhWulri53pdQ8eFkxQtCGJw3ItXYHcU6hd6N6k6a/zuGkfya7QXfRJkBqqwk1wb8emOlCXRAUhjjrnTpolNfanFaqW5aZWLB5AHmydLZY+Uehr4ilM3sDOCKPR3cc0O5MDYrcuJa6AD5HFwK8v0s41LQJkOaJuELO15COs2Ysax9Z+kYuBSLn5B0rEPlFwbu38L7SkY4izIVyGfIsc03IeUEA0fTXOVyAeo3fc3/38tefQZ1nGDpNtao8sWaClFJmSKxJTQZQW4CRfHS0KbNPIXNYX2M9AaAE2thz1fDawm6ldvlGRxTwirF1Tc7XSllmGkjDs9QfodEYXIjPYOUzQBrxhvmQVtBBcFgsrS4s6a3FZH2hrxApzFeaJ+KSuLbPYQRcU2iXdYNyOQpsA+RlCzWWLK1qVj8G8E0NyVi+PmI+ukUgNUwWJfR+r/ndX9c1qWNKkSHZkLcUY25HRtPOgQVZVB3WrQBX9yGMVm6osmcX8obYMucgnT66/kpejj11KXcoRZmJptVRJK7Q+x3eNRv3Ct7EoWrrZzdqVY4BTAr/VKig9YwyUjEUqRepEL8v5FLcbeNkg9Dos8t9FOO8rghi3uaOGChWR8JKw1DTSk1epjU53xDyz9Dq7yXLPdtObqKxNzFHhko7xLhAcw79hHgwlnYOLRmukCLEdI2RTwH4t8a4vVrT7gmFTClea93X1Re1l006uSUZtuYX8o6Vze7JvmWgs/Q86J8xLSJnlpJ/HW12DjME8wG9lC4S523uGGGzO21XLQbd/LQqEPOjTZnTSkRFHwyt6wtyKw00aFr3V/n1A/KjDf3Mc0Xwz15kxTOwze8XxMsWVornXa4HWlwqEI2C86zpCgT1OcVSmdPFwwO6IILwz1vqQrJFk6WzwpoBUreRli0is+pS6vpCBa5wO1zrAPa9ajHvTdbYDwN4XOOtIzZ46pxC5jVvqLRLxvo2gEW9wIOXOiusows9gBVHnadVUUrwj2TEfmx9P3MedJp9FSEQVAidm2ZFLKVmAnILNMtGE9JiG/YWMzS2CKQ7hsv7EJyAHO7yEDy3DerZ6PKOPrnQFm3hzgCO8p8nEp8UfBT+BDqpPIKLpi9hQdcQGsfK2oxYkwk82mMgIh6GZ00utAfV9CXcXoCf6qhrkhd+4hYQ/uW2KMdMbeZOfSEjpy7tiLRRPY9sH1pdage9E2aNknU5AwkAEpHQvylyArJ9XnXRNFFc8z91TU7DlCUM9SqXMuokjR2GnuvO/tSMDS0S8nYN8A1mSF1U6BRvD8uHI8LWtwS4BLrlcjV/PYBfDItYRxSjS7drq4sJDPbni8ztfhFS6N4K/7tKIctzTuxN0ahfSDuadn5imuZi5FY22iXkFL8eVL7RqGTYmg/hucjtenElBZdWh9TCurTTa2V6RXCyxrAnNm5vr2D/DBqVY0icMy3dUfAt0wYRLx6xLzfhjYOg4K7oBP5OeuMSEfvKQs+LAGDGsvaRAujs2B2eaX6m7HN8dGVTVyDHD4An95ZcTFvmTHIGqpeF+DVySGAGQJJn+jWe1gJS1659c5cq9HJc4T1IPBtLqZmxNHfsUbOuqXM0gL010LaJQzy3Vt4U4AaNz4QMmsUKBWN2pGJpImwfLh73ASQO4MMcHl9HSqNncGIyYh+ZrK1YVqx5uYZ1DfybjIHEHzZuMtZluvleLRdg3552AaY2c6dYSt1iGHgawNgcH/dA1idrQ3/U9EtziHI0qWkQzkJ+ZzRtENxgZKxreqLaZizlXA7gFz4/dos9ZOuWcQAN1QxgJ38B6pkesuemWdEGtR89TBJwDER2ka4LZgTWg3yDkKWm4NkPHetfPdF/SreHLID3bNOq2ZzfcG6aFW1Ub8OnhywFDcmwfVnx/SDuYJnqRwTOQVcP3pzNZJHpibD1pxwCPLmrScPAfQDy1TBtAtzk2davkyPlg6JwjpRY2m32L+AisxIR6/QtgzFzHrItPv0oXS3WHoV2qCg1yjZRdl8FWKMRWDovGQndsGULQc0W4XQfUzwVD9u1RdsElnGAZ6qzhPgZ/EvLbYnWUnBsMmw/mctDOZ/Yzxlt/5OmOwlAvrUNqgn8xHDUiljKuaIY95tiy9VXdKogGdh6UMH+0L4ZGi1hAITbqH6IbYxEqR/rgAiQFRsce6tnRkL/1pYkIsW4rhJr5tC6tHMlDbWqyw/KF0SLPHH3zRVEeQEJAJKjKtO0rf2QW9ezTaJgAC5yqVpjKWd+Xco5ON8Tb1JO0hi1amjYenZrI2ZNFIeQn2p+9ufRpe0jthUQzVjWPhLUCneDwI/8zMqubHPfGoiekX/Qoa7J+VpdyrkbnlpB4ud+pqQP8G9rq7K+lm+P4IJTNaJN6nCBN1OzFYwfvSbgTfDs23VDuA0LaLUOUW/6+TYCXB2P2FqCEks7D+okaYrg/njYPmZbAFIs5TwAjTM4AI8lIvYhmv7W70j8wGfYO8PftIY0TBal9c5lHEDTOQWUs/MIIGxmU5AWGDyr63A+byq4gGGy1nrQHmDvJsDV0Ogv40O7E3IzDfVOLOXMr2tSp05dzK06i6t2UQfpBAiU52l30RbX/T6y5zJ+psl3ok3q8MD7RtkudDog6nRd9xx9IaVOmeKdVg1VX/cLwkTT6qi6psxcGmoNKDOLACIF4Pp+jrlnoSAqikb6rKrNjPNEZul0wsuB1gn5gGcY80LrzIc37lEbTasbhTzb5x2vJyJ2ToyPpZ2rkHVa/Vi4nLa5e5BK8nanKatZVd3uvqbjYwK4MhGxc7o5HEs5SwDs5mMq/iEZsT+TFziFNAek1FcoMhXgCQX4PZujV5gNbb9YrBcWtaRuvDa0eMSb1iSQ54J4u0ivHUSRqUI+4AxUb8RSqjGaVlOiLdwOAMTzfCvaiOC2XD9q97euALhKY98dZWTUTxFQqm5XP9cCEdlqV1tX5fp+Ae7yHyPfBoCTWjm4Lq2Oj6VUvDqt3qLgGYD1xQIRgbeEPKctbE0sJoiKrpG6U/0a9su0OacJ5acQ7NwDn3BBpiAyxpeBphtJjqrMudxyNKW+K+A9GkMzdL2JyTEVrwYJRKcu69zTNIyF0EjcJOWYZK11f85BjFTnGBfG6xpi/i9AJkAziTRHeo+Ca0L9rRtmfVk+6gle9vi9kK6DzvMEuFAnd6sHaEkiYu9egBP+dwA6ftDL9ofW/21sepYqNSygtWqI+pfmXaNHEhH7sLxlIO00keiL4qJrQVxTpawbZo6Vtp78UI93S4iPlvWJiH2lZVojAVwMYE1vcpLAu9OWOZPyvd5hGO75AHT8n72cger7CAi1DlE/0QRRp+u6eVUAirawsq7J+RqJ//byz3uTxEUZsUYmau1f9TSIekUjbWLyLaStBrnHeOTZ0ruVWzsJLBbIKxRvMV1ZrEzr1dvD4pvfppN+9PE3IN7eiXDF66UMorplHbU0zFegkcApxGXxWrvBb9zJaQ6s8NSeAMfBMMaRHA9gT2jk7BWRnqLITSPeMO/TDacHFkgb2+iWaZ5D8mSgOJ0ScldY0gLwFQgWiyeviummP6wILe9e56B+Dfs5be5ivVN/PDs8bB1QjCzsnqAppFmdVs8A0MnKT7dVWeO682LKalb1b8vUwDTDEO4hxDhAxgEc2UfytAGQ2+m6N/alj1oSd+dPauXgioxzIiknCvA1lEaDrjcBNAOyHGSzGEYF6V2ixzOen4iEri9FIMXSme+DolMpyoMYl9HzlIiMIlgjwCgAQ0rgZ3gAnhHwLs+27ypazmbQgfSZKE+au3ieOoEGTgQxEUEkosO18M1KWK9u7VZlr5rUyzmIVGMV8RjYJ9q/GObDCyK8y/Xsu0utBWtJV0uNLu8IG655ogccJ1l7O5AkwPskP6TIOgE+JLBOwHWA0QYAImwDs7dlPSADwYZPgh3k+wDgiQzuJlH9jY+vsghs8uOGV141IYMEGERgoJCDRGRg7tFSlopoENnk6Hs8ce/MNw/ucw+k7jS1mTvZrnsYhEd6wJECVKFM2yJlADwq4Hwa9kOJGlkdhElLEDkda3LmQ3Lq0VOmoGjvgCYCG0GbcANpiGBSWeS2TSKxfyGVbctA0qTWZme8hs3f6QkORfbs50EB3i+LaJ/R2mxxFlwk2TXxu1W8/aqUs0fQfqQVwIU5QGPM83PC9qPoVj9u+uscTtsdR3JPAOMAGd+VrGmUZb0o5AGyAuArABZTZLFnmIs3Lo4SSzkvInvEseUXCQ5E/jewy0DS0/3i22NHuGk5qMbdpBVAK4BP2tWftYTVHSG1B8hxFGMswFEgagCMQM8kT5YqU3Nxlx0AKyHZMzahtwQiiysz1quaqThP+gHJgEwCcF0ZSD276Hv7Lbpn4EmdN3Ut/PNd/33qhy2gtWpI5zCIWUNwlEBq6GEUDOwKYmfkX/ilVF38jf/hHQj+Cw8rYKAZ4HJSmg24y4e9WbGqkPQbAZ6iT7oVIXsFnoOlTNEWbieOWuszb9VWZQ0spJWJH01ZwlB1Bb4oVLsQspN4PIOCwwKJIeJBGDJLwHcMWKvXZfBOT5T5+pimLmZ/q0qtw9ZbqDAj1nY6eZBlIOVBdc3OZHrwayr8WiJi96qz2lU34mno5a95FPwcnjTBgA3CNuBVd9uNt6Nk10U89BPJJn2S6KSRrQYrBAX84FPnxGiDwIEHR0ypgeddreP7ieCfw96wDuztBM9YylkKYPTWzTsc0Bixny6bdj3hzbrYS8TPP+LLvT2vhsmi6lIdpxDmywAG+gw3hPixSWfi7HBVSzHnMf11DvdE/VEzgLLOcNXUhsm26v2V5CJAtgokF9wLQGCAFKiIlWSZ6xM6klf6Ym7xSOUKULtz9/auYd07ZTWLlp0RbWElLXUPgC9o8VLk7NmjiwvkHFbyZf+1RqD8pGCFfsXfCTVMvNxX00vUWnMA3qk5fHx1u1u8Rs0Z90bNi3oQ8rZ42Lq9r/jk0X+NghZwCAyQoi2sBOBb3lY6rT49f6Btn6XTGb5r9OmxpsJ7qsaaMjP8ygN341Bzp2Gf06c88ixfq0GAMX3dtG6bBJLlZEb6+3Rc2RMF+nOh5Ej5wKB3DDTaxHSph1umNWcm5L3BpDLjIaJ796nDEO/4vo6GzR0j/9Oo0GRvcDtHlIFUdHPA1GCqlMQV73htaDFA3V2/UjxjXj4d7KIt3FmAv0K3kbBIfWM49HJJLKjIEt/5mmYZSEUHkuGN1FicFaUy30QklBARzd46HGl56m/1a6h94W7KalaJo+4DZJie4pOZybB1W8ksKGWl/xiWgdQDjPdlqnhcWUpT7g/zXAC6hQj3UW0qqdVIgJTqdqcRwH5arANe6G+YPyit5dRo9F2cevJlIG000REajC8pIN0Qlk4Y1rEA3tMU+CmxlGrwDS40qysB+Z7mNNbCVSeUWi8n8coaqY92MIz0H+O1lNq8EzWy2iNOhG5Da8HF0bSauqU/16UyUb2a5FmLGIKTkmOqVpae4OmslZSBVHwkwVfNu8puLcWpz6m1nwDQoDlchPxjXZOzSYZ0NO0cSMit2iwjLk6E7UdKkScZ017pv+QoA6mY1HVjcgefYeuzYdXSpETYulLAuzSHV1BwX/dmxdGmztFC3APt/r28IxmxflWq/LhtFN6FzxGBBCjLPhBAWtWE/r5zJdeW9I8QoWfbMWx0ZWMr9AVxjSdOXc5hM9LcRSAPA9he71P4J217OkRYyvwA8IHPKKvrIL4MpCLRAI2FWV/qPyI5UjpsWt8GRLOslAw1XfcfiuofuhEsQlocsb4bkH5NvmsmSmPty0DS9JglM1BDggJxd2VWrbxnwj1KYzf++IeNEiCs+foPTcP99m018k5ANkjfNRN2loFURDtAQyNhfUCEB7MjFUtFcAIKbxXanRwCxzXWVLwWFD7orJkHY2AZSMXiN0VnVwoMkAAgHrYfBXlmEZl0fjJiPxYkHsDTWDO9tS8DScu4MaW/hm/QhoBRojY0G0QxrlL8JhEO3YzAEdf7C6hUl4FUvN3W8R/iBbG0GBIR60JSGgvgzdxE2ApmD1vDv1KTC2bKQCoSmZ7/lQSKBLMWuAg3RMzTCdyb+6N4YPgbJR7m3vqi+a6ZaeCjMpCKxW+PH2kIVSBblQDAzs2wRPug9TMUWjkikEU+Pyb/NdNY+zKQNMk16V9aK6A9f+rXsF8b1Xwg96YAJA4TRz101hJWBxJGGmumPK+9DKQike16OrtS4IBUt4wDMm3qIQDfLOA1B7Zb6oFAgkn8LySadkUZSEWjUKUGkGT7IMnQqU0cQkM9XZSG1ILJHbZ6sv51filYGom+a+Y6ZR+paLRLK/4H38NLDg1KO5DpzZ27m+I8B2B88awkTHAs9WI0lRkfBB5MIU2I+PWjzew6OhidRIKR/T1ZFMA1fnprRQolvyPXpZ1DPM/4p+4V8RxpiECenNbkfKPU+TBwKXaBbzEbeaNUu8MH07TLMtWv6gxMQ+1e2iDKTCfxN/hXY+1uti0BsDSHzwwyBA/FUplYSS+n5WqslW+loTKQcoaRiL8wEeNK1YyJpZ2rSJmNXNrFCBYaGWt/m9b+QE6FL21A4nVp58oppFmS7pFQoz67LC0Dqcjk0XtVA0hfLbV5x9LcsX9aPZjD9fDuIDq0caysnVUr79G2DgLwr9x8efy8Oq0ej7Zw59KLM2i0LxWNNS8DKect7BV/rYX9S2kHnp5y9gfVKwIckhuG8IS41kHdi10mR8oHGbEOBfR6P3WjA8VRCzd3db3PfN4FtAB83XfzdOU/ZSAVm0LWiwA6tq6QMLi6WfW9wJASTWXO94DHAXw5x4fnrHesw+OjN72oeHtYPmxzrEOFzLU+3RAKFtQ1OQ2lENlcNUQdCGCQz7AOqbBeKgOpyJQcKR0EXvC3BuT4vpxntIU7R9NqvkD+gNzaZ5KChkTYjm2t0de8sZKJR+xpBC7P1b2n4NLWtLpvxgp+sU/3GcgUDbX8XEBu+QZMI2VNHt/7NhSeXLeMfXKHpS6ViRqOel2AI3J8NCOUaDJsX6aVgCrCZMS+RMAYsj1dc6Fvu0ot2VrJr56k+uUcBPB7xVjrMpDytpi8v2gMG+SJOq1XfaHXOTyach4hJEFgcI6PfyAGDovXWnNz/W48Ekp6xLcArMvx0R2EnBtLOw+eupzDepNXjqtOh0YNDhH3L0GSzUC1vgSAaMpZLMCePsP+11lhhe8YLj16Kt6wgNbKIc6ZArkKQD65bmmI951EuKKg4v/T0p1jDZr3A6zJ4/H1FP50Q4196zwRt0c3nCXcnrZq1thsXk5E7L3LGqln9dJsnR23osO5vidnUZdyDl45RL0kkOvzAZEI7qdt7VsoiABgTrhiiXjm3iDvzuPxAUK5qTqtXoum1RSt2uP5rpzt3KSjsQWcFTSpDJxGqlvGATTUavhHfUDh2clwaGZRv592DiFwJYiJeb4iQ/CHyUjohh6wfaWu2TmflN/kGOjoFgjACyR+3lUdtoiWROb8rgCMn0C+77RbQ28bJxvKQOpp867J+ZUIdK5XuwKeFY+ECtrhGkhjVbN7JMkfADigAEFvNYDjG2tDL/Qof9KZ/YS4G5ChBUjGPwzK74eGzYcKzXeLpTNngnKjpgV0RSJiX1zWSL0BpBZuJ45qhn8Z449/ZqKzwrwwV59pxrL2kZ5hnUJIFOCuBU57vuFY0d7qKHjqUu5gmmougMMLFJFmgElDWX9q3E1yqq1+UisHhzrd3wsY1Xzk3YxYNX3dUfBzAyQAqGvKnE2RG3N45EMRzBaPfx66xl6UzSjfjDMcUhMBHEDiMGQ7axfKo7Wg/CDbqLm33UlKXbNTR8o1ALYr9G0CLCLwEIGnMxXWws1tTA0LaLUOcSaAcgIE05FDgq6AZ8YjoVuCKI+BBVIDaaxKq0cJ5HNloB3AChDvQOAKMJjALgCKelBJ4B7Y1jnJkfJ2X/Kq/nV+SdlqJonvFBeoeFsEbxJ4H9krETsC2BWarTg3okcSYetbQS3kElggAUCsmUPhqUUAvlBSEyPepsjZyYh1bylNqy6tjid5fbE3jCLQO+JZe8VHy5qgyqIRZCAlamQ1hUcBJXMd2SHkls5Ka7dSAxEAxMPW3a5rje3qbatKZFobSB4ZZBAFXiN94tuk1BEeOC9Pk6IY5Al4t2d6lyRHVaYD4WMu66ilGL+EyJQ+lIN2oRwbr7UeCroMbhNAAoBYKvN/gMxH7zenehzCnyTCoUWB3ISaO3enZ1xCYEovf3qtEEfHa+1ntwX522aABGTD1cqwkkWpzOOjgQA8SOI3yVr7mW1iI0o7B4D4MYDDesHkf5KuipVib9sykLqogTRWpp2zBXJxD2ind0DcbpjuzMaaymZsgxRd3hEW1zwbwEk9wL93Qf5yeMSeGZSiJp9bIH1MUxezv12pzqDIGXkmc34KHuHDBo27h75pPrK586dtkeoX0nYGuocKveMpciiAnQoQs2aSN7sd1q1BS/353AOpO01rzkwQT44WYF8AE7HljIh2AC0EXzYEC+Hi2WG19qJtbffMS8unnAmGgUkk9gFkLwAjAWypv+u7QrxE4AUY/GtQ/cdc6P8BMdl8s+KQiFAAAAAldEVYdGRhdGU6Y3JlYXRlADIwMjItMDEtMjVUMTQ6MTE6MTQrMDA6MDAQVHloAAAAJXRFWHRkYXRlOm1vZGlmeQAyMDIyLTAxLTI1VDE0OjExOjE0KzAwOjAwYQnB1AAAAABJRU5ErkJggg==;" vertex="1" parent="1">
          <mxGeometry x="120" y="453.87" width="75.45" height="65.75" as="geometry" />
        </mxCell>
        <mxCell id="v3yQSLaKoU9rgjY1iF_y-37" value="" style="shape=image;verticalLabelPosition=bottom;labelBackgroundColor=default;verticalAlign=top;aspect=fixed;imageAspect=0;image=data:image/png,iVBORw0KGgoAAAANSUhEUgAABLAAAAJqCAYAAAA7VLm8AAAABGdBTUEAALGPC/xhBQAAACBjSFJNAAB6JgAAgIQAAPoAAACA6AAAdTAAAOpgAAA6mAAAF3CculE8AAAABmJLR0QA/wD/AP+gvaeTAAAAB3RJTUUH4QcTBAYR2qNpTgAAgABJREFUeNrs3Xl8XFX9//HXmUm6l1aQvdCCggqIoCAosqiAiIKiFjcoSVqLghSaNknBbdygSdoUKoJUmqRFUKkoLnwVioqKIgKCCqgoQmmLIGvp3mTm/P4o/kQp0ExmkntnXs/HgwcP2pxzz32fcydzP9wFJEmSJEmSpAQLRiBJkiRVgVyuhmWj9ibkX0khsyMZdgJG/v+/j6yGuI4YH4fMcogrWTvhHyw5OW94kqTBZgFLkiRJqkQTr84y+oEjKIRjCRwN7A8M6WMv64F7gLsg/oFM9o/E/J10tqw2YEnSQLKAJUmSJFWSSbN3pyZ7BjGeAuxahi30AL8FbiSEpawe/zuv0pIklZsFLEmSJKkS1LXtRCZ8hhin0PcrrfpjFfAzCN8lFL7v1VmSpHKwgCVJkiSlXV3bRAKXAtsN8kg2ADcSWMKwdd/lktwaJ0eSVAoWsCRJkqS0mtgxnFE93RBOTuDoVkP4LuQX0DXrN06WJKk/LGBJkiRJaTTlyzuSr/0hcHDixxr5I8TL6Bn+Da6c9oyTJ0nqKwtYkiRJUtpM7tiWfO/PCeyfspGvBb4JmXl0zbzXiZQkbS0LWJIkSVKaTOwYzsjemwi8McV7EYHryGTaWTjzl06qJOmlWMCSJEmS0qShdQExfKyC9uhWAu3svu575HIFJ1iStCUWsCRJkqS0qG/7MHBVhe7dPYTwBXZf+x0LWZKk/2UBS5IkSUqDj1zwMoZm/wpsX+F7ei+BVlZPuJIlJ+edeEkSQMYIJEmSpBQYVvMlKr94BbAPkUWMfPD31LUd78RLksArsCRJkqTkmzR3b7L5e4FsFe79zwmxmc6W210IklS9vAJLkiRJSrpsfgbVWbwCeCsx/I76tquY0r6Hi0GSqpNXYEmSJElJNuXLO5KvfRAYZhhsgvg1ejPncUXTWuOQpOphAUuSJElKsvq2mUB7CXp6khC+RYx3kwkPUWA9sTAWMtsR4quA1wEHAC9PQSr/IIZz6G76oQtEkqqDBSxJkiQpyerbbgEO7UcPjxJYSG9vB4vPe+LFfzQG6lr3g8zbCPEdEN4GDE1sNjFeRwxns6j5fheKJFU2C1iSJElSUk1pHUc+PFT09/bIlYxY93Euya0pqv1H529D7cbjCfEjwDuBmgSmtAFoY03NbJY0rnfRSFJlsoAlSZIkJVVD25lELi7ym/5P2X3dseRyhZKMpa5tJwKnAPXAPonLKvIAmTCVzqYbXTiSVHksYEmSJElJVd+2EGgoqm0m+3oWzrizLOM6re0wMpwFvA+oTVBikRgvYsjYZhac3uMCkqTKYQFLkiRJSqr6tt8Abyqi5S10Nb+57OOb0jqOfOYMiB8jWQ9//xXZnolc/qlHXUSSVBkyRiBJkiQlVODVRbWL4YIBGd/lLSvoajqPuG43IpMh/CEhyR1OvvZWJrfv5yKSpEr5lShJkiQpeermjSX0PFVEyw3Ujtlm0G6hq287EmgETkjA+cYqYpxId8tSF5QkpZtXYEmSJElJlO8dUlS7yH2D+vynruZf0NX8HjJhfyJXAr2DmOIYQriO+rYpLihJSjcLWJIkSVIS1RZqimoX2JiI8S9supvu5lOI+b0gzgfWD1aSwNepb7uMqZfVurAkKZ0sYEmSJElJFGuyRbYcm6j96D73Qbpazqa29hXE0A6sHqSRTKVn1fVMnfNyF5ckpY/PwJIkSZKSqKF1NDE8U0TLTdSOGTWotxG+mMkd21LoPRf4JDBsEEawjBA/QGfL7S4ySUoPC1iSJElSUtW3PQFsW0TLo+hq/kWy923ublD4PMRJQHaAt94LsZW4/kt05za40CQp+SxgSZIkSUlV33YncEDfv+WHVjqbZqViH0+bvS+ZzPnAiYOw9ZUQZ0PmNmJYxZDsKp6KT7Okcb2LT5KSxQKWJEmSlFR1bd8h8P4iWv6Jrub9U7Wvp7UdRpZWIoclYDSbgKeBVf//34GniM/5b+LTm/878zTZsIqe+DS1YRX57Cq6pz/t4pWk0rKAJUmSJCVVQ+sMYphTVNtY2J/uWX9K1w7HQF3bKYQwB9gh5WdaT0F8jEK4jcCviYWbmbDhHnK5ggtbkor5WJUkSZKUTJNb30gh3Fpk68voav54Kve7bt5YwqbPQ/gklfXm9NXArYT4a8jczOrsr71dUZK2jgUsSZIkKalyuRqWjXwK4qgivuqvoTY/jgWzVqV2/+tnv5mYuZTA/hU6w5uAO4BfA78gxF/Q2bLahS9JW/itZgSSJElSghX/HCyAz9DV/KVU738uV8ODI84k8EVgdIXPdp7AXRBuBG70Ci1J+g8LWJIkSVKSNbS9n8h3ivy2/xQ1hT1SfRXWv02eM55C4Qrg8Cqa/Q3ALcDPoPAzxm/4HblcrweFpGpkAUuSJElKsrrcMMKIR4AxxX3jj5+nsyVXEVlMvDrLqAc+D+G86jyXCWsgLoX4fWqz17Fg5uMeIJKq5hPQCCRJkqSEa2hdQAwfK7L1KnrD3lzR9K+KyaO+7YNAFzC8ildFHrgZ+D4hfpvOloc9UCRVMgtYkiRJUtLVzXk1oXBv0d/fI910N9dXVCab39D4Q2AHFwgFArcAiyF+0wfBS6pEFrAkSZKkNKhv/T8I7yyydaTA4Sxq/nVFZXJa2yvIxv8jhr1dIP//FG8NsIQY59PdfJd5SKqYTzcjkCRJklLgtNa3kwk3Ft0+8kfWrjuYJblNFZXLpPO3o6bm+0QOc5E8z8+JcT4T1v+AXK5gHJLSLGsEkiRJUgr84cYHOPCYtwITimof2JEhNRnuuvFnlZXLT9fzlhOuZFN+V+BAF8p/2YMQPsSq2lN4/TFP857D/sRNN0VjkZRGXoElSZIkpUV9+yEQb+nH9/heYjyc7pbfVmQ+DW1nEpkDDHOxbNHdhPgpOlt+YBSS0sYCliRJkpQm9e3XQHxfP3r4GyG+oWIf9D25fT8KcRHwehfLC54G/oZYmFGxhUxJFSljBJIkSVKKFGIzsKEfPewFLKjYfBY23c34dQcTwhRghQtmS+KbCeHX1LVeTv3525uHpDTwCixJkiQpbRraP0OMX+hnL2fQ1XxpRec08eosI5cdT4jvZIvP/w21EPcB9gNGVukZ4VMU4qdZu8dlLDk578ElKbkfV5IkSZLS5az5Q1m7/o/EsHc/etlAJh7JwpbfVX2euVyGB0e8AsKrobAbmbArkXHAywmMIbINsA2BbYi8rEJT+D0xnulthZKSygKWJEmSlEZ17UcR4k/p32NBVhI5iO7mRwy0D6bOHkNP7TYQR0McTWA0BV4OcXsCOwA7AeOBvYHdU3TeFYEu6J1F13mPOdGSksQCliRJkpRW9W0XAmf384zg16xe9zaW5DYZaBnU5YbBiFeT4TBiPALCEWwucCX5LNHbCiUl8KNJkiRJUjpN7BjOqN47gVf1s6cFdDWfbqADZPLcAyn0vh/CB0owd+X0ewqZqSyaeYeTJmmwWcCSJEmS0qxuzsGEws3AkH6eGnycrqbLDHSg52/2a8mE9xPDB4B9EzjCPDCf4es+yyW5NU6YpMFiAUuSJElKu/r2aRAv6mcvmyjwNhY1/9pAB0ld2wGEWA/hI8DLEza6h8iEM1jYdJ0TJWkwWMCSJEmSKkFd23cIvL+fvTxCbe3rWTD9nwY6iCZenWX0srdCnErkvUBtgkb3I7LxE1zessKJkjSQLGBJkiRJlWDq7DH0ZO4AXtHPnn7OmgnH+PDupMzrvJ3p6fkYcDqwS0JG9TSBFjqbvg4hOkmSBoIFLEmSJKlSTGrfn2z8LTC8n6cJF9DVdJ6BJsjEq7OMXHY8IU4Djk7I2eSvyRdOZ9Gse5wgSeX/yJEkSZJUOepazyCEr/azl0gM76G76YcGmsQ5bjuAEKZB/Cj9fnh/v22E8EXGr20ll+t1ciSViwUsSZIkqdLUtV5OCJP72cvTFDiIRc33G2hCTfnyjhRqPkEM5wBjBnUskT+SzdaxcMadToykcrCAJUmSJFWautwwwohfAgf3s6ffM2rYm/nKtI2GmmCTO7al0PtJ4CwG9+2FmyB8wauxJJWDBSxJkiSpEk1pHUc+3A7s2L8zhthBZ8sMA02BqbkR9A4/kxiagO0H8SzzDgqFerpn/clJkVS6jxZJkiRJlal+9psh83P695ykCJxIV/OPDDQlTm0fSTZOIXAesMMgjaKHEDpYvfazLMltclIk9ZcFLEmSJKmS1bd9Arikn708SrbndVz+qUcNNEU+On8bhmw4B2hksJ6RFbiDEOpY2HS3EyKpfx8nkiRJkipbfXsnxPp+njpcT9fMd0KIBpoykzu2JeabifEcYOggjGAjMX6OCevbyeUKToikYmSNQJIkSapwbzxsKYUh7wZ26kcvr+SAW57hrqW3GGjK3Hn9eu5ceiNveNu3ILMzsA8DezFDDSEczaraN/P6o3/KnTeudlIk9ZVXYEmSJEnVYPIFr6SQvQ0Y249eNhIKh9A56w8GmmL17YcAHRDfPAhbf4IQPkZn0/ecCEl9YQFLkiRJqhYNrScSw7X9PA+4h7juILpzGww0zWKgvm0ShFb6+6bK4lzO8HXTuSS3xrmQtDUyRiBJkiRVic6WHxDivH72si8Mv8Aw0y5EuloWEWtfDXE+0DvAA5jCuhF/5LS2w5wLSVv1qWUEkiRJUhWZmBvCqBE3Awf3o5dI4Dg6m28w0ApR13YAIXx1EG4r7AG+wJoJF7Dk5LwTIemFWMCSJEmSqk3DBXsSs78HxvSjl4fJ9+7P4vOeMNBKEQMN7acSaWPgbyu8idraj7Bg+j+dB0lb4i2EkiRJUrXpPPcfxPDxfvayC9narxlmJQmRzubFxNpXE/kqMJBXRB1FT8/vqW9/m/MgaYufUEYgSZIkVam61ssJYXI/zyg+QGfzNYZZgSbPPZBC/lLgkAHcah74AuPXfYlcruAkSPo3r8CSJEmSqtb6TxL5Y7+6iFzMRy54mVlWoIUz7mT8ujcTOB3CQL0tMAt8nmUjbmTqvJ2dBEn/5hVYkiRJUjU7bfa+ZDK3AcP70csCuppPN8wKNqV9D/LxcmAgb/H7FzGeQnfLUidAkgUsSZIkqdo1tH6cGC7tRw8ReCtdzb8wzEoWA/XtHwdagdEDtNE8hM8xfu0F3lIoVTcLWJIkSZKgvu0q4MP96OFvxHX7053bYJgVrqF1l2cLnicO4Fb/j1j7UbqnP+0ESNXJZ2BJkiRJglh7BvBgP3rYizD80wZZBTpbHqar6b1EJgPPDNBWjyf03EJD66ucAKk6eQWWJEmSpM3qWg8lhF8CtUX2sIGYfw3d5z6Yun2f2DGckb2vgvBqiHsS4o4EdiCGlwMQ4xBCGAq0eKvkc0xp34NCvILIYQO0xVXAKXQ1/8jwpepiAUuSJEnSf9S3fR74bPFnGPFbdLZ8OBX7Wtd6DCGcAhwEvJqtu0OlBzibruZLXSzPmnh1lpEPzCSELwBDBmCLkRDa2H3teT4XS6oeFrAkSZIk/cfE3BBGjriNwP5F9hCJ8c10t/w28fva0PoqCAuLu3ooXk2m9hMsbHzSRfOsya1vpBC+Aew1INuLXMOIdXVckltj+FLl8xlYkiRJkv5jSW4TcBqbrzQqRoDw+VTsa2fLXwmxkc1vUezrbp5MofeP1LUf5aJ51sKW37Gm5nUQ5w/I9gLvZ/2I26mb82rDlyqfV2BJkiRJer761i9B+FTxHRQOo2vWb9Kxr22XAVOLbN1LjJ+mu7kNQnThPKuu9b2EsBDYdgC29iTwPp9NJlU2r8CSJEmS9Hyjhn8RuLv4DrKfTc2+hjgT+EeRrWsIYTb17d8gl6tx4Tyru+VaMpnXA7cOwNa2BW6grvVUg5cqlwUsSZIkSc/3lWkbiZkGIF9cB/FYTpu9byr2tbNlNbHwXmB1P3r5CMtGXOzCeY6FM5exZt0RwEUUdZtmnwwhhEU0tOYgeqeRVIGyRiBJkiRpi+664WEOPGYXNr+lr68CIQTuWnpdOvb1xn/x+qPvgfBBin/UykEccOzvuWvpfS6eZ917U567lv6EA4+9i8A7gOFl3FqAcBQH/vo1HPCWH3HXTb1OgFQ5vAJLkiRJ0ovo/QzwdHFtw6lMnT0mNbva2fIDAp/qVx8htnsr4RZ0NX2fkDmQAbmlMJxMGPlT6s/f3uClymEBS5IkSdIL6zrvMUL8UnGN4yg2ZepStb+dzbP7+Ra9V/HQyPe5cLZg4cxlxHVHAZeVf2PxzVDzK05re4XBS5XBApYkSZKkF1dY/1Xg4eLOOOIZqXsm0Zo9GiF8t+j2Mc500byA7twGupo/TmQysLHMW3sVGW6hrvVQg5fSzwKWJEmSpBfXndsAobWotjHsTV37O1K1v0tOzhPXfhTCzUX2cDD1s9/hwnmxNdXcSQhvJcZ/lnlL2xPCjdS1HWfoUrpZwJIkSZL00uLaBUUXGzKcnrr97c5tILvpA8CKIk+1LknV878GQ2fTLRRqDwZuK/OWRhL4Pg3tJxu6lF4WsCRJkiS9tO7cBjIsKKpt5Himznl56vb58k89Sia+n+JudduT3swnXDgvYXHjSkYNO5xId5m3NIQYv0VD+zmGLqWTBSxJkiRJW6e39utAvoiWQ+jJfyiV+7yw5XcQznbyy+gr0zbS3VxPiDOLXF9bKxDjPOrbP2XoUvpYwJIkSZK0dRY3rgR+WVzjMCm1+z1+7deBv/a5XYH1Lpo+6GyZC4V3AavKu6H4Jepa56Xu5QJSlbOAJUmSJKkvlhTZ7mDq5+yTyj3O5QoQ+/4Q+8C/XC591DXremLhcGB5WbcTwjnUt3eTy9UYupQOFrAkSZIk9eHEP3998W1jeq/Cqh37DWBZ3/a3sNwFU4TuWX8ixEMh3lnmLU1i2YirmZgbYuhS8lnAkiRJkrT1Os/9B4S/F9U2xlPI5dJ5DrLg9B4ic/vUpnfIAy6YYtdZy8MEjoT44zJv6SRGWcSS0sACliRJkqQ+ikuLbLgrD444LLW7PWTdQtjq2wIffvaZYSpWZ8tq1uxxAiFcUuYtvYdRw6+lLjfM0KXksoAlSZIkqW9CWFp02wwTU7vfC3LriFy0dRnxaxdKCSw5OU9n05nEOAuIZVzU74Th3+Gs+UMNXUomC1iSJEmS+niun/0FUCiqbeT9qb2NEKBn2MXA0y/5c4XwXRdKCXW3tBLiqUBP+dZ1eBdr1n/PK7GkZLKAJUmSJKlvFjY+CfyxyNa7pPo2wiunPQPh0pf4qWfIFK5zoZRYZ8uVZMJJwPrybSS8E0Z8n4kdww1cShYLWJIkSZKK8fN+nIVMTPWe93IhL1ZECVxMZ8tql0gZLGy6jsg7gFVl20bgWEb1WsSSEsYCliRJkqQiziTCT4tum/bbCK9o+heEhS/wt4/S29vhAimj7uZfAW9j6x+oX4xjGNVzjW8nlBL0a8cIJEmSJPVZfu1PIawpsvUuPDTszek+kwpz2NLzmGL8OIvPe8IFUmZdzb8nxCOAh8q3kfBORo/4BhOvzhq4lICPXSOQJEmS1GfduQ2E+OOi28fMe1K9/wtnLoNw1X/vE5+iu+VaF8cA6Wz5K7W1hwJ3l20bkYmMWrYQYjBwaXBZwJIkSZJUnEK4tvjG4b2p3/8YZrP5bYyFzcWr5vNdFANswfR/Qu/biEW/VGBrJvo06tvnGrY0uCxgSZIkSSpSzf8BG4trG1/J5Pb9Ur373TP/AnyLGCdavBpEXec9xpDM2yH8oYxbmU5d++cMWxo8FrAkSZIkFad7+tME+nEbISelPoM1EybR3fJdF8MgWzDzcTb2vhW4vWzbCDFHfdtMw5YGhwUsSZIkScWL8cp+NH5P6vd/ycl5F0FCXHXuU8TaY4DbyriVNurbphi2NPAsYEmSJEkqXlz/I2BVcW15PZNm726IKpnu6U+TqTkO+H2ZthCAr9HQeqJhSwPLApYkSZKk4nXnNgDXFF0MyGbfa4gqqYWNTxJr307kd2XaQpYYvkVD+5sMWxo4FrAkSZIk9VPoz22EJ5mfSq57+tNsyh8H8c4ybWE4MV5LwwV7GrY0MCxgSZIkSeqf8WtvAlYU2fpw6s/f3hBVcled+xTk3wH8uUxb2IGYvcH1Kw0MC1iSJEmS+ieXKwDfLrJ1llhzgiGqLLrOe4x8zTFEHijTFl4Btd+lLjfMsKXysoAlSZIkqQRnFtnibyMMeBuhymdx40oixxDjP8uzgfgWMiMWk8t5fi2V89eMEUiSJEnqt4Uz7gTuKbL1MXx0/jaGqLJZ1Hw/2cyxwBNl6T8ykQdHzjZoqXwsYEmSJEkqkfDNIhsOZciGd5qfymph091k4vHA6vIs/9hEXesZBi2VhwUsSZIkSaWR5SogFtna2whVfgtbfkcMJwIbytJ/CBdR3/42g5bKcHgZgSRJkqSSqW//NcQ3F3Fqsoa4dnu6cxsMUWVX134CIX4PyJah9yfJ5A9h4bl/N2ipdLwCS5IkSVLpxEKRD3OPo8iOfLsBakB0N/0QOKtMvW9LIfsDn+smlZYFLEmSJEmlk639FrCpqLb5grcRauB0NV9KiB1l6v01DNngmwmlEvJgkiRJklQ6CxufJMalRbUN4b3kcjWGqAHT2TwT+EaZen8Py0Z8zpCl0rCAJUmSJKm0QijyNkK248GRbzFADeBijaxZN5nAT8u0gc9Q3/ZBc5b6zwKWJEmSpNKqXfd9YHVxjeMHDFADakluE6HmZODPZeg9QLicSe37G7TUPxawJEmSJJXWgtw6Qri2yNP9k5l6Wa0hakAtbHySmD8e+FfpO4+jyMbvM7ljW4OWimcBS5IkSVLpFeJVRbbcnk2rjjFADbjucx+EwknAxjL0PoFC7xUQg0FLxbGAJUmSJKn01k5YCjxSVNvARw1Qg6Jr1m8gnl6m3o+nrq3ZkKXiWMCSJEmSVHpLTs4D3yyy9Xs5IzfKEDUouloWAfPK0ncIX6K+7UhDlvrOApYkSZKk8igUFhbZcgTrhp9kgBo049fNJMbrytBzDfBtps7b2ZClvrGAJUmSJKk8Fs26B/htcY3DKQaoQZPLFWDIKcBfytD7jvT2XMHEq7MGLW09C1iSJEmSyieGzqLaBY5mSvseBqhB0z39aUL+XcDjpT8ueDsjH/icIUtbzwKWJEmSpDKecRS+Bawt6lwlz8cMUIOq89x/QOEUoFDyvkP4FHVtxxmytLW/FCRJkiSpbAWAltUQri6ucZzMxNwQQ9Sg6pp1PTF8oSzn44ErmNI6zpClrTlgJEmSJKmcCrHYh7nvwMiR7zNADboJa78I8cdl6Pnl9HKlz8OSXpoFLEmSJEnltaj518Cfi2ob4scNUIMulyuwsfBRIg+UvO8QjmD0A42GLL04C1iSJEmSyi/EriJbHsnk9v0MUIPuqnOfAt4HrC953zF8mbo5Bxuy9MIsYEmSJEkagDOP3sVAT3En94VpBqhE6G6+ixDLcbVULaGwmKm5EYYsvcCvESOQJEmSVHaXf+pRCN8vqm0Mk2ho3cUQlQidLV8jhCvK0POr6RnRYcDSllnAkiRJkjQwQv6iIlsOJQafEaTkqFn7cYp9rtuLO52G1hMNWNrCrxAjkCRJkjRg6tpuJfDGIlqupTYzgQUzHzdEJcLk9v0oxN8Bw0vc8+PU1u7Pgun/NGTpP7wCS5IkSdLACeErRbYcyaZ4pgEqMRY23U3k3DL0/HJ6ehZB9IIT6TksYEmSJEkaOGvWXg08XNzZSzybj1zwMkNUYnQ3zQf+rww9H0N9mwVb6bm/AoxAkiRJ0oBZkttEoLirsCIvY2h2liEqOUKkN9QDj5Sh79k0XLCnGUubWcCSJEmSNLCGrbsYKPZZVtOon7ubISoxrmj6F4HTgEKJex4J2cXkcp63S1jAkiRJkjTQLsmtIYaLi2w9jNj7OUNUonQ23wDMK3m/kcNYNvwMA5YsYEmSJEkaFDUXAauKahpCHVNaX2OGSpQ1684D7ip9x95KKIEFLEmSJEmDoXv600CxbyTMkmeuISpRluQ2kQ+nAZtK3PNIYrbTWwlV7TwAJEmSJA3S2UjNPAJPFdc4vJOG9pMMUYmyuOmPEL5Qhp6P9FZCVf2vDCOQJEmSNCgWNj5JZHbR7WO8iFPbRxqkEmX82lYivyt9x6GVyRe80oBVrSxgSZIkSRo8cd184KEiW+9GTeFcQ1Si5HK9kDkN2FDinkcQs93eSqhqlTUCSZIkSYPmrpt6ef0xTwPvLa6DcAj7H3c1f7jhCcNUctb1DY9z4DE9wDEl7nl3nql5hDtvvN2QVW2s3EqSJEkaXLuvW0zxb28bSrbQxcSr/Z/zSpbx6+ZAuLnk/cbQSkPrLgasamMBS5IkSdLgyuUKZMKn+3FG/2ZGP9BokErcug6FKcD6Eve8DTF0GLCqjf+XQpIkSdLgu3Pp3zjwmCOAPYrrIBzB/sf+gD8sfdQwlZx1feMTHHh0AcLbS9zzfhx4zB3ctfQ+Q1a18AosSZIkSckQM7OAWGTroWTjIibmhhikEmX8+nYIfyhDzxf7Fk5VEwtYkiRJkpKhe+ZtBL7Tjx4OYNSILxukEiWX6yXwCaBQ4p7HUxM/a8CqFhawJEmSJCVHgU8Bm/rRw0waWj9qkEqUzqZbgMvK0HMjk9r3N2BVAwtYkiRJkpKju/lvEOb2q48YOqlrO94wlSibhs0CVpa41xqy8XLfwqlqYAFLkiRJUrLUrv0SsKwfPQwhsIT6tiMNU4lx5bRniEwvQ88HM/KB0w1YlS4YgSRJkqTEqWt9LyF8r5+9rIVwIl1NPzNQJWht/4gQ3lXiXlcReTXdzY8YsCqVV2BJkiRJSp7ulmuJ8bp+9jIS4o9oaDvWQJUchU8C60vc6RgCXzRbVTILWJIkSZKSqSZzFrC6n70MJ/J9Gua800CVCN3nPkiIbWXouZ6G2a8zYFUqC1iSJEmSkunypgcIzCxBT8OIhWt8JpYSY3VtK/BgiXvNEjPzDFeVygKWJEmSpOTqbPo6xB+XoKfhwPc5bfa+hqpBt6RxPZHmMvT8Vurb3m3AqkQWsCRJkiQlWIgEpgBPlqCzMWQy36Nu3lhz1aDrbl4C3FT6juMXIPrCNlUcC1iSJEmSkq2z5WHgjBL1theh5yJDVSLkw9lAvrSdhgNpaDvBcFVpLGBJkiRJSr6u5m8DpXrw9alMnnOEoWrQLW76IyFcVvqOw2e9CkuVxgKWJEmSpHToappFCJeU4uyefP6LBqpE6O35LKW5RfY/Im+gvv1dhqtKYgFLkiRJUkqESOfMTxKZ3f+uwhHUz9nHTDXoFp/3BJEvlKHnZsNVJbGAJUmSJClFQqS7+VximAHEfnUVC2eYpxJh7bpLgX+UuNfDqZtzsOGqUljAkiRJkpQ+3U0dBM7qVx8hnMbUy2oNU4NuSW4T8OnSn/HnGw1XlcICliRJkqR06mz+KjFeWHwHcRT5Z15lkEqErqZvEbijpH3G8AEmzd7dcFUJLGBJkiRJSrH15wJ/Lbp5b2FHM1QyhAhhVok7raEm662yqggWsCRJkiSlV3duA8TW4s+IYo0hKjE6m26EcH1J+4yxgbPmDzVcpZ0FLEmSJEnpFtd/E9hYXNuwygCVrPUcZwGFEva4PWs2TjRYpZ0FLEmSJEnp1p3bQOD2otrWZB41QCVrPTffBVxV4l4/YbBKOwtYkiRJktLt1PaRRHbre8OwhnFrlxmgEifyBSBfwg7fzKT2/Q1WaWYBS5IkSVK6ZeOngSLetBbvJJcrGKASp7v5b0SuLe1xUphssEozC1iSJEmS0mvynPEEGots/XsDVGKF0F7iDk+hLjfMYJVWFrAkSZIkpVc+ngkMKfKE/nYDVGJ1Nd0K/KKEPW4LI99nsEorC1iSJEmS0mlix3BCbCi6fYy3GqISLdJW0v5CnGKoSisLWJIkSZLSaXT+BGC7IlvfT3fz3wxRidbd9GMIfy9hj0cx+YJXGqzSyAKWJEmSpJQqnFR823id+Sn5QgS6S9khhZoGc1UaWcCSJEmSlD4Tc0OI4Z3Fn8Znf2KISoVsYRGQL12HsZ5crsZglTYWsCRJkiSlz8gRhwBjimy9npo1vzBEpcLlLSsg3FjCHnfiweHvNliljQUsSZIkSWl0eD/a3sCC3DojVGoEOkvc31RDVdpYwJIkSZKUwhP6cETRbWP4lgEqVUYO/T6Bp0p4AL2Dhgv2NFiliQUsSZIkSSkTA8RDimy8jhFrf2SGSpWvTNsI8TslrQUUsh8zWKWJBSxJkiRJ6TKpYy9gbFFtQ/wBl+TWGKJSJ4YrS9pfYApnzR9qsEoLC1iSJEmS0iVbeGPRbQt82wCVSl1NvyTyQAl7fDlrNrzPYJUWFrAkSZIkpUzh4CIbPsno4T82P6VTiGT4Zok7/YS5Ki0sYEmSJElK2Xl8eEOR7b61+VlCUkoVMlcAsYQ9Hs7k9v0MVmlgAUuSJElSeuRyNUQOLKptKCwyQKVa98y/EOOvStpngdMNVmlgAUuSJElSeiwbsT8wooiW97Kw5XcGqNQLma+XtsN4KmfkRhmsks4CliRJkqQUiW8urllcbHaqjENg7XeAJ0vY4xg2jDjNYJV0FrAkSZIkpUgopoCVp1D7DbNTRejObQCuKGmfkbPJ5awPKNFcoJIkSZJSIgbgrX1vF25kceNK81MFncovoLQPc9+Lh4a/21yV6FVvBJIkSZJSoa79dcBOfW8YfXi7KkvXzHsh3FDSPmNoNFglmQUsSZIkSSk5e4nHFNFqFWtqrjU8VZxYmFviHo+kvu31BqvE/gowAkmSJEnpOGEP7+xzmxCvZknjesNTxeluWQrxzhL3Ot1glVQWsCRJkiQlX0PraOCwPrfLB28fVOWKzCtxjx+kfu5uBqsksoAlSZIkKQ2nLkcDQ/p4cv8Ai5p+Y3aqWEPGfgtYUcIea4n5MwxWifwtYASSJEmSEi/G4/vcJsQfQoiGp4q14PQeQpxf0j4znM4ZuVGGq6SxgCVJkiQpDY7tc4sQrjM2VbyNwy8DVpWsv8jL2DDiNINV0ljAkiRJkpRsk9r3B3bvY6u1FNb90vBU8a6c9gxweUn7jJxNLme9QInigpQkSZKU9LOWo4to9VO6cxsMT1UhX5gP9JSwx71YNvIEg1WyfhVIkiRJUqLFN/e5SeAGc1PVWDzrIWBJiY+76QarJLGAJUmSJCnhiihgUbjZ3FRdZ/fZOSXu8UgaWg8yWCVmiRuBJEmSpMRquGBPQti5j61WsXrPuw1PVWXhjDshXF/aTkOzwSopLGBJkiRJSq5YU8TVV/E3LDk5b3iqvjP8cH5pjz/eR13bXgarRCxvI5AkSZKUWIE3FXGa82uDU1VaOPOXEEp5+2yWgM/CUiJYwJIkSZKUXLHQ9wJW4FaDU9UKJb4KC+o4tX0Hg9Vgs4AlSZIkKZmmXlYLYd8+t6sJdxmeqlbnzB8TuKOEPQ6nJp5lsBpsFrAkSZIkJdOmp14NDOljq5UsmPm44amqxTi7pP0FzuSM3CiD1WCygCVJkiQpmUJmvyJa/cHgVPXGr/8ucE/J+ou8jA0jpxisBpMFLEmSJEnJFCiigBUsYEm5XAFie0n7jHHG5tt6pcFhAUuSJElSMkX6/vyrULjH4CSgduxVwIMl7HEcPc980GA1WCxgSZIkSUqq1/a5Rcz83dgkYMHpPcQSX4VFbIYYDFeDwQKWJEmSpOSZmhsBTOh7w55/GJ70b+s7gUdK2OFraZh7nLlqMFjAkiRJkpQ8PaMmFHG+8gxd5z1meNKzunMbCLGjpH3GQpPBajBYwJIkSZKUPLGwexGN7jc46X8MW38p8EQJe3wrk1vfaLAaaBawJEmSJCVPCOOLOL15wOCk/3FJbg0wv6R9FsJ5BquBZgFLkiRJUvLEOKHPbUJcaXDSFtQWLgJWlbDHE5nUvr/BaiBZwJIkSZKUPIG+X4EV4z8NTtqCBbNWEcLXSnqE1hTONVgNJAtYkiRJkhKomFsIS/q2Namy9NABrCtZfzFMZNLcvQ1WA8UCliRJkqQEiuP63CRkLWBJL+SKpn8RWFjCHrNkC7MMVgPFApYkSZKkJHp5n1uEYAFLejEx2w5sKmGHpzB5zniD1UCwgCVJkiQpWSZ2DAdGFHEy/aThSS+ia8ZyYryihD3Wki80GawGggUsSZIkSckypme7otqt73nG8KSXEMMFQG/J+gtMpqF1F4NVuVnAkiRJkpQsmzLbFnNazt4bVxue9BIWNd8PXF3CHocRw3SDVblZwJIkSZKULNkinn8F68jleg1P2gqxMBuIJezxE0yd83KDVTlZwJIkSZKUsJPrWMwthKsMTtpK3bP+BOGGEvY4kp7CWQarcrKAJUmSJClhZylhm743CusMTuqDQqG9xD1O46PztzFYle1XgxFIkiRJStiJ9dC+N4o9Bif1waKWnxK4o4Q9jmXI+jMNVuViAUuSJElSsoRQRAELn38l9VWkxFdhhRlehaVysYAlSZIkKWEn1XFIEY0sYEl9tWbCd4g8UMIet2PIRp+FpbKwgCVJkiQpWYq5AiuGdN9C2DD7ddS3/4qG1l1cABowS07OE2JHaY/fOIOps8cYrkrNApYkSZKkhCniCqwQ0nsFVl1uGDHzDYhvIWaWkMvVuAY0YGrXdwKPl+7w5WX0ZM42WJWaBSxJkiRJCVPMFVgxvUWfMGI2sN+zO/JmHhpximtAA2ZBbh0hfrXEvU6nbt5Yw1UpWcCSJEmSlDSh7y1ibSr3tL71A8C0//qzGKe5BDSgYv6rwLoS9jiW0DPdYFVKFrAkSZIkJexkmiKeZxWGpG4/J83dG8JCnlewCwdu/jtpgHSd9xghdJe413OY3LGt4apULGBJkiRJSpjY9wJW2q7AamgdTTb/XWCbLf59tnCc60ADqhAvBAol7HEbCj2NBqtSsYAlSZIkKWFnKZm+F7AKIUUFrBiImU5g3xf8kRDf6kLQgOpu/hvwoxIfzGdTf/72hquSrCYjkCRJkpQsxVyBxfDU7F59+xcgfuDFI+AoJl6ddS1oYA+9MK/EHY4i1ngVlkrCApYkSZKkpJ1FF/EMLMakYtca2k8CPrUVPzmW0f94k2tBA6q76SaId5a0z8BZnNq+g+GqvyxgSZIkSUqWQthURKvhTMwl+0Huk9r3J7KYrX7LYjjJxaABF8KFJe5xJFlmGqz6ywKWJEmSpISdQMc1RbV72ahtErtPdfPGkuUaiKO2uk0M73UxaMCtXvctYvxniY/pM3wWlvrLApYkSZKkpJ2mPFlUs96ehBawYiD0LoT4yj423JP6tiNdDxpQS3KbCOGSEvc6klBzjuGqX78ZjECSJElSss5SwlNFtYvZsYncn4a2mRDfV9w+cZYLQgOuNvM1YH1J+4x8krp5Yw1XRf9qMAJJkiRJiZLvLbKAxU6J25fJ7fsRwxeKbh94L1Pa93BRaEAtmPk4cEWJe92GTK8FWRXNApYkSZKkZKkp8gosElbAqssNoxC/BQzrRy9Z8vHjLgoNvMxFQCxplzGezRm5UWarolakEUiSJElKlI2ZyihghRHnAvuWoKcpTM2NcGFoQHXNvBfiT0rc63asH2FBVkWxgCVJkiQpWa5oWgtsLOLsJjkFrMkXvBJoLlFv29I74hQXhgZeaC15lzE2ctb8oWarvn/ES5IkSVLSRB7ue5uwc2LGn89cSP9uHfzfPM6CGFwYGlBdzb+A8JuS9hnCzqzeOMlw1VcWsCRJkiQlUFxeRJvxiRj65NY3EsK7StzrfpzW9jbXhQZcKJT+KqxMYSa5nPUI9W3ZGIEkSZKk5J00h4eKaLVnIsZeCJ8uz9lb8A1uGnidzT8E7i5pnzHszYPD32u46tNHoBFIkiRJSp5QxBVYbEfdvLGDOuzJ7fsB7y5T7++m4YI9XRsa4GMxluVZWCE0m636wgKWJEmSpAQq5hZCIFvYY1CHXYhTgHI9qyoLmTNdGxpwa8Z/E7i/xL0eQn3bkYarrWUBS5IkSVISFVfAKvS+YtBGPPWyWuDDZd1GDA2ckRvl8tCAWnJynhg7St5vYJbhamtZwJIkSZKUwDOV8GCRZ8SvHrQxb3rmOGCHMm9lLOuG+wY3Dby1tV3AoyXtM3Icp7UdZrjaql8LRiBJkiQpcUYM/RvQW0TL/QZv0PG0ATqLOxticJFoQC1pXA/xojKs5wsMV1u3VCRJkiQpab4ybSMh/qOIlq8dlPHWzRtLKNvD2/9bDHtT33qsi0QDrjZeAqwqca+H09B+tOHqpVjAkiRJkpRQ4d4iGu3NWfOHDvyZVe+xwABuNzPD9aEBt2DWKqD0V2HFeL5XFeolP/WMQJIkSVJCFVPAqmH1htcM+EhjfMcAb/EYGma/ziWiAVdb6ACeLHGvB9PQdoLh6sVYwJIkSZKUTDH8ubiznPCGgR4o8I6BDyjrVVgaeAtmrSLQXobD6MvPvslT2vJHuxFIkiRJSqZ4b3HtCocM6DDrWvcDdh34eOKHmNI6znWiAdcTvkKp30gI+9H79DmGqxdiAUuSJElSMo0adg+wsc/tYjh0YM+qwnGDlFAt+XC2C0UD7oqmtYQwu+T9xvA5Js3e3YC1xY9aI5AkSZKUSF+ZthG4q4iW+9DQOnrAxhnD4YOY0lQ+On8bF4sGXGHt14g8UOJeR5LNXE4uZ61Cz+OikCRJkpRg8dYiGmWJmYMHcJBvHMSAtmHIhqmuEw247twGMmFWGXo+hmUjGg1Y/8sCliRJkqTkiplbi2tXOGpAxld3wQRgx8HNKDYysWO4i0UDrnPmEgK/LkPPX2Zy6xsNWM9lAUuSJElScmV7f1dUuxCOHpDxhewhg55RCDszKv8xF4sGYfFFQmwEYok7HkIh/JiG9jeZsf7NApYkSZKk5Fo4637g8SJaHszU2WMG4Py91FeJ9BbXLDZTlxvmgtHAH6MtvyNyVRl63pYYf0V9WwcNrbsYtCxgSZIkSUqwEKGoW5Rq2BTeWvbhFTiohL31AucX2XZXMiMmu140KAo1LcAzZeg5C0wnhgeob7vS2wqrmwUsSZIkSckWWFpcu3Bs+ccW9i1hb//HmnVfBh4qqnWkhbPmD3XBaMAtblxJ5NNl3MIQ4CMUwq3Ut/2F+rbPUz9nH4OvLhawJEmSJCVcvLHIhieRy5XvnGfKl3cEtithjzexJLcJmF1k+91Ys7HO9aJBMWHdV4HfDsCWXgV8Fgr30NB2Ow1tUzkjN8oJqHwWsCRJkiQlW2fLX4FlRbTciYdGlu8h64Wa0l4BksncAcCadQsp9ios4rlMzA1x0WjA5XIFMtkzKPo5bsUsd95A5DLWj1hJfVsH9XN3cyIqlwUsSZIkSWlQ3G2EMb6vbCMq8JqS9hfy/wBgSW4TIV5QZC/jGT3CNxJqcCyccSfwlUHY8jbAdMjfT11bl7cXViYLWJIkSZKSL3JDkS3LV8AilPIkeSPj1j/8//9r9fpOin8W1me8pUqDpnbdp4E/D9bWCdRB4U/Ut11LQ/ubnJDKYQFLkiRJUvJla34K9BTRcs8ynsTuVbqu4r3kcoX//5/9uwprR9aNnOGi0aBYkFtHIXNqkcdrqWSA9xDjb6hr/QV1bcdDDE5OulnAkiRJkpR8CxufhPCzotrG2FCes6k4oYSd3fW8P6oZuxB4sKjuAjOffci8NPAWzbyDSC4RYwnhCALXUd/+V+razubU9pFOUDpZwJIkSZKUEvE7RTb8YOlvqYuBGHYvXXfxzuf92YLTewixtcgOR5Ef8mnXjAbN2gmtwK8SNKK9CFxIbVxOfVsrk2bv7iSliwUsSZIkSemQ7/0exb3hbDTrh08s6VimXrgTMKx0Z2bh9i3+eX+ehUWcymltr3DhaFAsOTlPzE8C/pWocUVeBjSTzdxPQ9vVnNZ2mJOVDhawJEmSJKXD4vOeIFLcbYSEqSUdy6ZN40vYWw+rs3dtuQjQr2dhDSHDF104GjTd5z5IIXM88HgCR1dDZCIZbqa+7Tbq2z5MLlfjpCWXBSxJkiRJ6RFYUmTLQzltzhtKeCo1oXR9xbtZ0rj+Bf+6X1dh8SHq217vwtGgWTTzDrLhjcDvEzzKg4CreHDEfdS1ncXU3AgnLnksYEmSJElK0RlMzXeBDUW1DYVPlm4ghdJdgRW4/UX/vn9XYQVgtgtHg+rypgcYv+4QiOcBaxM7zsAeBObTM2IZDa05ps55uZOXoI9/I5AkSZKUGgsbnyRyTZEnpx8q3QlpmFCyfSpkbnvJn+nfVVjH0NB+tItHgyqX66Wr5QIirySES4D1CR7ty4nhc/QUllHf/hWmtO/hBA4+C1iSJEmS0iWbWVBky2Fsyk8uyRhCLN0VWJn8n1/yZ/p3FRYQZ0MMLh4Nuu7mR+hsOpPazO4QPk2M/0zwaEdA/CT5eB/17d3UXTDBCRw8FrAkSZIkpcvCGb8C/lxU2xA+zsSrs/0fRAmvwKoZev9W/Vx/rsKKvIG6OR908SgxFsx8nK6mL7N2/QRCPAVYCuQTOtoaiKcRsn+lru1ips7b2QkceBawJEmSJKVMiIRQ7FVYExj5wAn9234MQImuwAprWHDOI1v1o0tymyCc34/YvsTUy2pdP0qUJblNdLZcSVfzsYS4OyHOhPCHhI52CIEz6en5O3Xtn2Nix3AncOBYwJIkSZKUPiG7mKIf5h5m9Wvbp87ZHijVW8ruhxC3+qfXrO2i+GdhvYKep0938SixOlseprNlLl1NBxDiq4lxFvBboJCwkY4gxByjeu+lof0kJ26APvaNQJIkSVIq1bddAnyiuDOhcAydTTcW1fa0OW8gU7i9RKdk36Wr6f192+/20yF+rcgN/ovawt4smLXKBaTUmDpvZ3p6TyTE9xJ5KzA0UeOL3EAm/wk6z/2Hk1U+XoElSZIkKZ1ivg3oKa5t/FTR2w353Uq4E3/vc5P+XYW1A73hsy4epcqC6f+kq+kyOpvfyaZhOwAfIsRvAc8kYnyBY4nZP9LQfk5pnrGnLbGAJUmSJCmdus99EPhmka2Poq69uGdhhczuJdyLB/vcor9vJIxhGqfN3tcFpFS6ctozdDV/m86WD7NmwraEwuEQ5yfgbYYjiXEeox64jclzD3SiSs8CliRJkqT0ysbZFPt8nEAHE3ND+t4w7lqy8YfMg0W1688bCaGGbGaOi0ept+TkPJ2zbqar5WzW7rEbhLcDiyGsGbxBhQMp5H+7+SHvxXy+6IVYwJIkSZKUXpe3/JnI94prHF/JyOHTi2hYulsIM/kHiztx7+cbCSPHUd/2bheQKsaSk/N0Nf2MrubTGL52Z4h1wC+AOAijGbL5Ie8jbqeh9SAnp0Qfl0YgSZIkKdWyIQf0FtU2hM9T3/b6PrYaV6KRR1bVPlh06/49Cwugg7PmD3UBqeJckltDV8siupqPIuRfSYxf7OexUqzXEsMtNLTmmHpZrRPTPxawJEmSJKXbwqa7ga8X2XoohG/z0fnb9KFNqa7AepQljeuLbt3fq7BgL1avP8cFpIrWee4/6G75LOPX7UGMxwKLGdiHv9cQw+foXXWLz57rn2AEkiRJklJv6pyX01P4GzC2yB6+x5oJE1lycv5FfyqXy7BsxHqg/8+2Cfyazua39KuPibkhjBpxJ7BPkT2sprb2VSyY/k8XkarGxI7hjOx9N4GPAscBA3Ul4gbgM4xf10EuV3Ai+sYrsCRJkiSl34KZjxPDF/vRw0mMenABudyLnyM9PGZHSlG8Aoj8ud99LMltImbqKPYWShhNT89sF5CqypLG9XQ3L6Gr+b1szO8M4ePArQOw5WFAO8tG3ETDBXs6EX1jAUuSJElSZVi79mJCvK8fPTSwbOQSpuZGvOBPbMqPK+GI7y1JL90zb4PY2o8eTqWu9VAXkKrSVec+RVfTZXQ1H0omvBaYBzxW5q0eTszeRX3raU7A1rOAJUmSJKkyLMltosAn6ddbx+L76Blxxwu/OSxfujcQUri3ZF2tWf8FIn8ssnWAcNFLXn0mVbqFTXfT1dzImnXjIE6EcHMZtzYaQjf1bd+ibt5Yw39pfkBJkiRJqhzdLUshdPezl1cTw63Uty2krm2v//6rUMICVm3pClhLcpvIZuuAnqLaB97IsuFeDSL9+3jqavkOXU2HQzgU+EEZt/ZBQs8fqGs73OBf6mNKkiRJkirJ5I5tKfTeA+xUgt4KwM8IXAtxe2L4BLBDCfp9mq6mbSHEku57XfvnCDFXZOtH2DTsVVw57RkXkfQ/Gma/hZiZAxxSpi3kgQsYv+7z5HK9Bv58XoElSZIkqbIsbHzy2Ycyl+qc6WgiFxPD5yhN8QqIt5S8eAWwdvyXgJ8X2Xonhmz4jAtI2oLOWTczft2bifFMYFUZtpAFPs2yETczpX0PA9/yh7EkSZIkVZaupu8DlyZ4hL8qS69LTs6T7fkwsLLIHqZRN+fVLiBpC3K5At0tl5Cv2Rf4Xpm2cgj5+Hsa2t5v4P/NApYkSZKkyrSmZgZwdyLHFrM3lq3vyz/1KBROprjnYQ0hFC6F6ONmpBeyuHElXc3vI8aTKL5Y/GLGEvkOdW0Xc9b8oQa+mQUsSZIkSZVpSeN6MuHDwPqEjWwF3TNuL+sWumb9hkhTka2Por5tkgtIegndLdeyadg+hHAJm5+XV1qBM1mz/pbnv0yiOlnAkiRJklS5FjbdTQwNQEzOoOJ3y/L8q+edXDdfBHy7yDPnOUw6fzsXkPQSrpz2DJ1NZ0LhcODe0m8gHEjgDurbPlztUVvAkiRJklTZupu+BXw2MeMpxAUDtq3h66YQ+WMRLV9OtqbNxSNtpa5ZvyGuewMwh9JfjTUauIr6tkuYmBtSrRF7X7MkSZKkKhAD9e3dwGDfGncTXc1vHdAt1s/dDfK/BXbpa2hEjqS7+VeuH6kPGma/hZjpBl5Rht5/SzZO5PKWFdUWq1dgSZIkSaoCIbJm3ceAmwZ3GIXPDPg2u2YsJ5N9N4Q1fR0tga9V8xUfUlE6Z91Mb3jds8/GKvXtwoeSD3dQ135UtcVqAUuSJElSdViS28TwdScAg3RFUfgunbNuHpRNL5xxJxk+BOT72HIfRo1odvFIfXRF01o6m84kxncAy0vc+w6EuJSG1hnV9MZQbyGUJEmSVF3OyI1i/YjvA28bsG3G+E9qeg/k8k89Oqj7Xtd6BiF8tY+tNkLm9XTNvNfFIxVh6uwx9GQvgnhayfsOLGHYugYuya2p9BgtYEmSJEmqPhNzQxg98nJiPHUAtraJEI+js+Xnidj3+rY5wIw+trqF8eveQi5XcPFIRWpoez+Ry4BSv+HzXkJ8H50tf63k+LyFUJIkSVL1WZLbROfM04AWoKeMW9pIDB9ITPEKYPy6ZgiL+tjqTTw44iwXjtQPnc3XkK95HYGflrjnfYjhdzS0n1TJ8XkFliRJkqTqVt9+CMQrKf0bwx4lhFPobLoxcfs88eoso5Z9C+IH+tBqLdnwWi5vesBFI/VDLpfhoeHTieHLwNAS9hyJtLJ2wqdZcnK+0mKzgCVJkiRJdblhMLKFEFuA4SU407qWnnA6VzT9K7H7PDE3hFEjvgcc34dWN9LVdCyE6KKR+qlh9uuImauAfUrc843UZj7MgpmPV1JcFrAkSZIk6d+mtI4jH84BPgZsU8Qp1vUEPk9n0y2p2N+JHcMZ1ft/wFFbv4thCp1NC10sUqmOwXwbxDMpbY3mIUJ8P50tt1dKVBawJEmSJOl/bX5r2AmEeCJwNJGXvcBPrifG2wjhWjKZ77Jw5rLU7WtD62hiWAocspUtVkH2tXTNWO5CkUqkru14Ap3AjiXsdT1QT1fztyshIgtYkiRJkvTSJ5c7kc3sTYxDIGYgk4Wev7L7xgcr4s18H7ngZQzN3gActJUtvJVQKrVT23egJi4E3l3CXiPwRbqacmk/Xi1gSZIkSZL+fdXZ/0F881aeTX6SzuavGpxUYg1tk4hcAowsWZ+Ra8iH07iiaW1aY7GAJUmSJEna7NT2kdTEHwBv24qfXkfkALqb/2ZwUonVzXk1oXAl8PrSdRr+QD5/IotnPZTGSDKuCkmSJEkSAFc0raV23QnA0q346REEFjHx6qzBSSXWPfMvjF93CCF+HsiXptP4OjLht9S3H5LGSPygkSRJkiT9xx039bDXO7/D0MIbgFe+xE/vxpCn13LX0l8bnFRiN91U4M4bb+L1R/8KwluAbfvdZwijgVM44NgHuGvpn9IUh7cQSpIkSZKe76z5Q1mz8SqI73uJn9xIJhzEwqa7DU0qk4kdwxnZ+1kCM4DaEvQYIZ5PV/Nn0vJwdwtYkiRJkqQXOGm+OsvIBy8m8PGX+Ml7WFNzMEsa1xuaVEZ1s19LyFwGvKkk/cV4HT3DP8KV055J+q57C6EkSZIkacvuXRK5a+l1HHAsBI56kZ/cgaGFbbhz6Y8NTSqju278F+89rItnah8D3gIM7Vd/IexNtvedHHjc/3HXDYkuYnkFliRJkiTppdW3nw7xq7zwhRCRTDiBhU3XGZY0AKa0jiMfLgXeXYLeHiFmTqR75m1J3V0LWJIkSZKkrVPf/h6I3wSGv8BPPEZt7etYMP2fhiUNkLr2Ewjxa8Au/expLTGeRHfL0iTuZsaZliRJkiRtla6m7xMKxwKPv8BPbE9PbxdEL5aQBkp30w/J9+4PYVE/expJCD9gcvu7kribfqhIkiRJkvqm4YI9idkfAvts+UwzTKez6UKDkgZYfduRwNeBvfrRy3oymeNYOPOXSdo1C1iSJEmSpL6bOnsMPdlvQ3zHFv52I4Qj6Wq61aCkAdbQOppCuJTAR/vRy9PEwhF0z/pTUnbLApYkSZIkqTgTr84y6oEOCNO28LfL6Q0HcUXTvwxKGgQNbZOIXAKMLLKHZdRmDmLBzMeTsDsWsCRJkiRJ/T1RPpPIhUDN//zNz1gz4ViWnJw3JGkQTG7fj0L8ITChuA7C9awZ/64kHMM+xF2SJEmS1D+dzV8l8jZi/N+3D76N0cu+bEDSIFnYdDeRN0G8s7gO4jsYteyLSdgVr8CSJEmSJJXGpI5dyfYuAd703DNgAhPpbL7GgKRBMnX2GHoy1wJHFdE6EuMH6G757mDuggUsSZIkSVLpTMwNYfTIecR4xnP+dB0hHklny+0GJA2SM3KjWD/i58BBRbReTcy8ke6Zfxms4VvAkiRJkiSVXn3raRAuBYYDEOM/KcRDWTzrIcORBsmU1nHkwx+AbYto/Sdq1x3Kgty6wRi6z8CSJEmSJJVeV8siYuZI4GEAQtiZbOZHfHT+NoYjDZLLW1YQaSqy9WvpGXnxYA3dApYkSZIkqTy6Z95GNh4C/P7/nwAP2Xg1uVyN4UiDZMK6xcDK4hrHehra6gZj2N5CKEmSJEkqr1PbR1ITrwWOfvZPLqeraSqEaDjSSzhr/lCe3jiGkBlLbe9YYmbzVYyF+LL//FAYSyZurvFExhLCJoj/fatfIUSIT2/+cabz3y9b6It1ZMIhLGy6eyBjsIAlSZIkSSq/utwwGP4dQnjX5rPR0Epn0yyDUVXK5WpYMXwn8nF3QnYcMe5KjLsTMuMg7gqMJcaxhDCWfz9HLklCvI8NhUO56tynBmyTrhpJkiRJ0oCYmBvCqJHfhPi+Z/+kia7mOQajinVGbhQbhr+ayL4Q9gH+/c94IJvunQvXs2b8u1hycn5AtuZqkiRJkiQNmKmX1dKzagnwHiBCnExXS5fBKPXOmj+UNeveQAhvgvAWIgewuVBVubWXwFfobJ42MJuSJEmSJGkgTcwNYdSIa4B3A72EcDKdTd8zGKVKQ+to4K0UMm8hE99M5A3AsOoLIp5HV8sF5d6KBSxJkiRJ0sA7a/5Q1m64lshxwCYy4X0sbLrOYJRoU9r3oDe+G3g3gSOBoYZCJIRj6Wy6sZwbsYAlSZIkSRocdblhhBE/AI4BNhJ5L93NPzEYJcrkuQeSz59M4N3AfgayJbGOrpZF5dyCBSxJkiRJ0uCZ2DGc0b0/JPJ2YAMxnkh3y1KD0aCaOufl9MSPQKwHDjCQl2IBS5IkSZJU6TZfifVt4ERgPYV4AotafmowGlATr86yzbLjKFAH8URgiKG8qDxwG/BjsrGTy1tWlHNjFrAkSZIkSYMvl6vhwRHdBD4KbAAa6Gr+psGorCbmhjBq5Fug8B4IHwR2NJQX9S9CuJ4Yf0y+9wYWn/fEQG3YApYkSZIkKRlyuQwPjvgygRYAYvwSa/f4PEtOzhuOSuYjF7yMoTXvIsQTn32JwGhDeUGbr7IK4f8ohJ8wYc0d5HKFwRiIBSxJkiRJUrI0tJ9MjJ3ASODn1NZ+lAXT/2kwKl4M1Le/C5gGvBWoMZMXNGhXWb0YC1iSJEmSpOSZ1L4/WRZDfB2wgsgJdDffZTDqs8lzxlMofBN4k2Fs0aPAb4HfEOLP2H397wfrKqsXYwFLkiRJkpRMuVwNDw6fQQifBSIxHk13y28NRlttcvt+FOIvgG0Ngw3APwjcA/FeCuEeIr9nUfP9aRi8BSxJkiRJUrI1XLAnMftF4EjIvomuGcsNRS8tBurbfw8cUCU7/AiwnMhDEJdDeHDzv7PLobCc7uZH0rxzFrAkSZIkSekw+YJXks+8nxi+k5arRjSIGma/hZj5VQXt0TPAvUT+QiYuI7KMkFlOb+YhMqsfoju3oZKn0wKWJEmSJEmqPHXtHyLEb6Z09OuB2wn8isgtxPzddJ/7YDVPpwUsSZIkSZJUgWKgof27RN6bgsH2QvgdobCUfFjKunW3sSS3yTn8DwtYkiRJkiSpMjW07kIM9wEjEzi6vxHCUgqFpQyJP2fBrFVO2AuzgCVJkiRJkipXXdvFBM5MwEieJPBTCmEp9C6t9lsC+6rGCCRJkiRJUgW7CPgEkBnQrcb4TzLhZgr8mpi5mT3W3EkuV3A6iuMVWJIkSZIkqbLVt/8E4jvK1PuTBP4M8V5i+DMU7iVm/kB38yMGXzpegSVJkiRJkipboJNIuQpYF9DZPMeQyytjBJIkSZIkqaKNHPp94LEy9f556s/f3pDLywKWJEmSJEmqbF+ZtpFAR5l6H0HMnmXI5WUBS5IkSZIkVb5h6y6mXFdhhTCTura9DLl8skYgSZIkSZIq3m03beKAo9cSwrvK0Hstgdfy3sOu4KabomGXngUsSZIkSZJUHe5aejsH/OZNBF5Rht4n8MyQYdy59EaDLj1vIZQkSZIkSVUiRMifDqwuS/cxttDQNsmcS88rsCRJkiRJUvW466dP8/qjn4Lw7jJt4UQOOPbv3LX0T4ZdOsEIJEmSJElSdYmBhvalRN5epg30AqfQ1fxtsy4NbyGUJEmSJElVJkQKnEKM/yzTBmqAb9LQmjPrEs2YEUiSJEmSpKp0WuvbyYTrKecjlkK4hJptzmHB6T0GXjyfgSVJkiRJkqrTH258gAOPzQNvK+NWDiZufBsHHv0T7rxxtaEXxyuwJEmSJElSFYuB+vYfAO8u84YeIWQa6Jz5YzPvOwtYkiRJkiSpun3kgpcxNHs7sGfZtxXCFQxbewaX5NYYfB9iMwJJkiRJklT1Gma/jpj5FTB6ALb2N2KcRHfLbw1+61jAkiRJkiRJAmiY805i4QdsfotgufUCs1mz7ossyW0y/BfnQ9wlSZIkSZIA7rzh77z+6McgvHsAtpYBjmBI7UQOPOZu7lq6zAl4YV6BJUmSJEmS9Fx1becR+PKAbjOwhNh7Jl3nPeYEbCmeRC6U3DAK22xHzaaXE7PbEeN2z/uZTGYNsfAo+ZpHWf/MY15up4owdfYYesNOELeH7PYU4v9ctho2kOFxejNPUBseZ2Hjk4YmSZIkSWVQ13YBgVkDvNUnIDbR1dwNIToJzzkbHrQt53I1PDRsXwrZ1xDi3sCrgb2AvYFtiujxMQJ/pBD/ROCP5DN3sHjmn5xwJdIZuVFsGPFmiK8jhv2J7E/gVcDQPvaUJ/IQIdwHhb8S+SuZzH3UhLtYMPNxg5YkSZKkfqhrbSGE2YOw5dsgnEVX061OwmYDV8BqaN0FMocQ46HEeCghvAEYWeatPkLkJwR+Qqy9nu7pTzvlGjT1c/aBwvHAO4G3AEPKvMW/AbdCvJXAb9l9/V3kcr1OhCRJkiT1QUPbLCIXDMKW88ACMjWf9u6bchawNl9hdShk3w3xaCKvZ3BvWdxI4AcQFtA586demaUBUZcbBiNOIDAVOHqQR7MWuIXIjygUvsfiWQ85QZIkSZK0Ned27R8ixE5g+IBvO/AUBT7P2gkXs+TkfLVOQWkLSlNnj6E3+wFiPBF4O+W/wqpY9xLi+ey+/pvkcgWPRJVc/fnbQ825wGSKuyV2INxNDD8mm/kmC2fc6aRJqnQP5BiWHc62ZNiWWratiWwbYVt49t+RMTz7yuwAIQbG/rttjAwJyf1eo62UKTBll5n4hqetFCNh2YXslInsmg2MLRSePQ4yDBuUE7j0W0+BDWRYF2BjhLUx8tC4Z3g05PAq+T5a0cEc4HWJPMkOLN11Om3OUgWqaz0U+C4h7DxII/g9IXySzqZbqjH+/hewJl6dZfSytwKTiPF9pOvL3b1EcnQ3L/FIVEmc2j6SbOGThHAuMCZFI/8zIV5NJrOIy5secCIlpfaE5mK2iz28NhPZrwCvCjAhwB4RJmABquplC+y780zuNYn/eCDHsNrRvCrAqwuBfcLm59Hu9uw/OwO1plR2BeBRAg8TeRi4Lwb+koE/FyJ/3q0RX9qzpc/7Dn4GvDWhw1s0rpE6Z6lC1Z+/PdReAfEdgzSCSAjfoIeZXNH0r2qKvvgC1tTZY+gJZ0A4G9gx5TFcT7YwhctbVng0qmh17ScQ4gJgp1R/gQr8gELmfLpn3uakSkqymCOzfCxvyBR4C4E3EXkTMM5k9EKqvYD1wDzGZgOHZCJvJHIwgX2ITACyro5E+xdwL3BniNyayXDrztN5sNpDsYClQZXLZXhw5GcI8TOD9hkaeAr4DKsnfK1abisMRUxUDQ+NaCDyJWD7CspiFYFmOpsXeDSqTz46fxuGbGgHplbYnv2ITH46C8/9u5MsKSnun82YIbWcEDK8m8jRwHamoq1VbQWsf85jQm+BY0KGtxA5hM1XVwVXQkV4FPgdkVsKWW7c7WnuCDmq6tEoFrCUCHXtR0HhqkG8pRDgVsg00DWz4n+/9e0X2KT2/cmyGOLrKjaRyJWMHjaZr0zb6NGol/7Amv1aQuYHbL41pRJtJMbPsXaPOdX8sEBJg+uJ+WyzrocTQ4aJRN4BDDUVFaPSC1iPtTJ6Uy1vK0SOCYFj2FywUpV8VAI/DXADkRt2ncHySt9hC1hKjFPbdyAbryBw7CCOoocQOli99rMsyW2q1Ki3voBV3346xPnAkIpfgIFfU5N5LwtmPu7RqBc+Jma/AzJXk9yHtJfSTdRmJnpMSBpID8/hDYUMU4GP4vOrVAKVWMB6IMewIdtwTISJwPs8VgQQNz/rd0khw+Lx0/lHJe6jBSwlysSrs4x84HOE8CkgM2jjCNxBzEyq1KuxtqKAFQP17XOB6dW1AsPfKcTjWNR8v0ejnqe+bQpwKc++rapK/INM/h3eUiipnO6fzZihQ5jC5tuyvXpEJVUpBayYI7NiG44lMikETsSilV5YIURujnDVkGFcucOZrKmUHbOApURqaH0rMVzF4D4XeT2Rc+luvqjS4n3pAlZD23wiZ1Xp8nuQfM1bWNy40iNR/19962kQuqjOZ0isIOSPpPPcf7gQJJX0F+48ds4WOD1kmEbkZSaickh7AeuJ+WyzPs+HYuTsAPs4o+qj1cA38zB/fCP3pP5LqQUsJVVD6y7PFrGOHOSRfIMQz6CzZXWlRPvil7bVt82s4uIVwASyvT9nypd39CjU5g+j9pMgXE71PgB1HDH7f9TNG+tikFQKK+ey2/K5LKyJPBQCn7N4JT3fw3MYv2IeX1vfy8NELrN4pSKNBqZm4U/LO7h++TyOMhKpDDpbHmbNhLcDnwF6BnEkpwC3U9d2QKVE+8IFrLq2w4ELXH3sRb72h9TlhhlFlatrP4oYv0V13Ta4Ja8i9HS6ICT1x4qL2W7FPObGwH0h0OBnq/R8/5zP9ivnMbuQ4S9ETsdbBVUaIcCxIfLzFR3c/NCFHGEkUoktOTlPV/OXiJnDCPG+QRtHDHsTuIW6toZKiHXLBaypuREEFvpl8v87mDCiwxiq2JQv7wiFq6iGlxhsnZOoa/+IMUjq8/eoSFgxl0ls4s9EGgH/B5H0P/71VUatnMfsfC8PxkiLx4nK6LBMgV+s6OAHKy/kVcYhlVj3zNtYXXvAsy/EGyzDCCykvu0ypl5Wm+Y4t1zA6h05A9jL1fZfPkF9+ynGUIUmXp2lUHslIexsGM9VmMOp7f6fYElb7Z9z2GflhfySwCJgexORnm/5XI7ftJG7ny1cjTARDZATYoE/rZzH7L/NZ6hxSCW0pHE9XS1nE+NJxPjPQRzJVHpWLU3zI5KeX8D6yAUvI8YZrrItiZcwpX0Pc6gyIx/4HJG3G8T/CGFnauNZBiFpa6yYy6R8htuIvMU0pOd7oI2dVnTw7RC4DhhvIhoEtTHSMqKXO1bO5c3GIZVYd8u1bCrsC3QCcZBGcST52tvS+lys5xewhmYnA2NcXVs0mkK8xBiqSEPrqwih2SBeQCFOS/tlqJLK6/7ZjFnRwZJnr7ryahJpCx66kCOG1HAncLJpaLBF2DcGfrl8LrmYe4mXfknqm6vOfYqu5slkMkcN4rOxdiNwM/Xt70lbfP/zgRQDMNVV9aKf6MfR0HqiQVTFZAdi+Dp4GfULCmFnep95t0FI2uJJeSu7DB3CTcAHTEPawjeNSFjewdmZAjdG2MlElCDZEPjcym34wbILfDusVHILZ/6SnszrgbkMzpsKR0K8hvq26WmK7b8LWJM7DsBnX23Ft41wERM7hhtEhatrrwcON4iX/PY90RAk/a+VczkwM4TbgANMQ3q+B3IMWzmPqwNcCHg1s5LqXdmh/M4HvEtlcEXTWrqaZxLia4EfDcIIskAHdW2Xksul4gV+/13Ayhe8smjrTGBkr1eqVbK63DACXzCIrXK8txFKeq4Vc3ldzPBTIruYhvR8D1/GiNox/ACvTlQ6vDIW+OWKubzOKKQy6Gz5K13NJ1CIRxP544BvP/Bxlo34bhou0vnvAlaIb3X1bK3YQl3OVxpXrBEfA3Y1h60yhvzTBxqDJIAVc9mbwPVEbzmRtuT+2YwprOUGIseYhlJkBzL8fMVcDjUKqUwWtfyUCeveQGQysGyAt34Co3qvp27e2CRH9J8C1uYrKA521WylEHYmM7zOICrQWfOHEvDB7X2RD28yBEkPtLETgZ8CO5qG9HwPX8aIoUO4ATjMNJQ6kZcR+IlXYklllMv10t3cSe2YvQicDqwcwK0fTui5mUkdib2Q4z8FrJ7Ve+HbgfqmEJqZeHXWICrMmg0NwDiD6JMDjECq8vOaHDVDsnzbz0/pBY6RSMiv4XLgjaahFBtD4LrlHd6pIJXVgtN76GxeQFz3SiLnACsGaMv7kun9FQ0X7JnEWP5TwIr5vV0lfRTYg5EPvMcgKkgul4HQaBB9/iTx5Q9SlVs5hvYYOMIkpC1bMY9cCHzYJFQBds3AtQ9f5sUPUtl15zbQ3XwRtWP2JHAacG/ZtxnYg5j9BXVtiTvH+08BK4Q9XB1FOdsIKsiDw0+E+EqD6KNoAUuqZg93cDjR34fSC1k5lxMDfMYkVDlf/TgoruEik5AGyOYrshYzft1rieFE4JYyb3EcgV9SP2efJMXw3Ie4j3VVFCGEI2hoPcggKmU+MzMMoSgv93ZaqTrdk2NIHr4GBNOQnu+BeYyNgUs8RlRpYmDK8g6OMwlpAOVyBbqbfkhX85sJhcOBHwGxTFvbCQo/Y3L7fknZ/efcQhi3cTUU++mdOcMQKkBD60EQ32IQRX6WjPr7tsYgVZ9tRjM9wD4mIW1ZbeQr+GZjVagAlz8wzwshpEHROetmuppPIJN9A8SrgXwZtrIjhXgjdXNenYyTzv8Y7QooVvwIU77sG5fSz6uv+qNQYxFcqjKPtDMyBD87pReyfB7vBE4xCVWwXWsjXzYGaRAtnHEnXS0fJBv2gjgfWF/iLexIKNxI3QUTBntX/1PAygRPPos3lHztx4whxaa0jiOG9xtEfz5NMkMNQaouvRmmAdubhPR8MRIykS+YhKrAx5bNY09jkAbZ5U0P0NVyNtmePQjx88CqEva+K6FmKVPn7TyYu1jznN+yoxJ8a/5qkn+F2CeYelkrC07v8chJoXw4G6hN+CgTfhwUhrmQpCo6Oc9R83BgWqzcXXySyMMEHgWeCvBUIfJUJkN09tMrRB4fqG2tmMd7A/ic1MBTVfkZGckGqJYLBGqzkU8DDX7KSAlw+aceBXJ8dH4HtRvqCcwCdirBJ9sr6em5nskdR7Gw8cnB2LWa5/x2qUnwt43rKHAkIeyc4GWyC5uemQhc5RGTMg2to4mk4Qq6y4HpCT5OMy4mqXo8vA3vjCX5MjSongD+FCP3BPgTcF/I8nAYzvJdTmeds6yiv+JHwsp5fK4KdnUT8Ptnj5+/AfflYWU28uim1Ty2R44N1b4WnpjPNqvzjMz0MIIh7JqJvBp4TYzsE+DVwO4VsqunLu/g/N0a+bufAFJCXDntGeAiTm2/nFo+RowzgHH97PW1FHp/xMSOt7Okcf1A71JNKoKPmY0EvgrxS4keZ4jTsYCVwm+ZYQowJuGj/BchXkUM050wSQlRn8IxbwR+RuSGbOSGnWdyr9OocljZwdsIvK4Cd61A5I6Q4boIN6zP8vu9prHRGX9h203jGeCZZ//zfuCXz/37Ry9kx97I22LkGOA9QFpfilOTgbOAs511KWGuaFoLXMjE3CWMHt5ADJ8BdulHj29iZO8V5HInk8sVBvSDJjWhZ7KXUug9FxiZ4FEeRH37IXQ13epRkhITr87Cg59MwUi/QshsIHrniqTB90g7I3vh+BQN+QkCX+vp4eI9mnnEGVTZBU6rsP25nwJd1LJo3DRWOMGls+M5PAp8E/jm7ZdRu9Ma3kHgE8Bx/PcLtxIvwodvv4yZB52Oj1SRkmhJbhPwNSbmOhk9oo7IF4Edivy98H6WjWgFmgZyF9Lzobiw8UlCWJSCj+5pHhkpMnrZ+yHxD51cR23ma06WpKTozfBWIC0vbvhufiN7jZvOpy1eaSA81spo4H0Vsjt3xsgHdl3F3uNm8GWLV+V10On0jJvBj8Y18i4ir4mRbwKFFO3C9juvTdX/3JCq05LcJjqbF1Bb2JvA+VD07d4zqW/7xEAOPWXPrOmdC+QTPsiJTGkd51GREjGm4Za8RSyY+biTJSkxH52Bd6TjI56zxzXy/vHnVudDpDU4NtbyPpJ9x8DWeJTIabtO5w27zeCakEtVEaUijJvBfbvN4COZAm8Efp+a3w9wqrMnpcSCWavobP4UBfYDflhkL/NpmPPOgRpyugpYnef+g1B0sAOllnw43aMhBU5rOww4NPHfA2JmvpMlKUkCHJmCk6j23Wbg56cGw3EpH/938ht5zbgZLA7Bt24Otl1mcseuz3AI8KXNH22Jd3S8mqwzJ6XIoub76Wo+kUI8Gvr8fNAaYuEqJl/wyoEYagrfGlaYm4JBnk5dbphHQsJlQmMKRvkDumf+xcmSlBR/m89QNr85K8l+O24c5zpbGiRHpnTc+WevWpzoVYvJEnL0jmvkMwFOgsS/2XHM8hUc6KxJKbSo5aeMGvb6Z28r7O1Dy7EUst/l1PayX32cvgJW56ybgd8mfJTbE4Z/2CMgwaa07wHxPYkfZ2SukyUpSUbm2ReoTfTJXoHPhpMT/8gBVaAVc9kb2DmFQ+8JkY961WKy7drI94kcD6xL8jizgaOcLSmlvjJtI53NnyIUDgLu6kPL11JbuLzcw8ukMtQQ5qVgkNNd/QlWiNMh8Zc3305386+cLEmJ+vjc/JyEJPvdrjNZ6kxpMMQMR6Rz4EzZdQbfdgaTb9wMfh4Dp5Lgh7vHmNLjQNJ/dM76A3Hdm4A2tvY55DF8iLr2st7llM4C1urx1wD/SPgoX8vkOX54J1HdvLHEUJ+Ckc5xsiQlTmD3hI/waidJg3Z4RPZJ25gjtI+bwWJnLz12m853CbQmeIivcZakCtCd20BXcwshHA7cv5W/CNupbz2tXENKZwFrycl5QvhK4sdZiGe76pNo0+kQRyV8kMsYv+4a50pSAu2a6AJChh85RRpEr0zTYAPcs6GGzzht6bNqFTngTwkd3oTbL0v2reaS+qCz6RZCPJAQrtiKn85A6CxXESuT3hQLC4Gnkz3G+J7Nz1pSYky9rJYQzkzBSC8il+t1wiQl7jdbsp/vs2zXc/irs6RBlKoCVgHO3GsaG5229Nk3x6YIzQkdXs2OG5jgLEkVpLNlNZ1Nk4iczEvXYcpWxMqkOkBYkPBRZunlE672BOl55oPAbgkf5TPUFjqdLEkJtW2Cx3ab06PBEnNkgD3TMt4Q+eVujfzCmUuv3Rr5CXBrIgeX5xXOkFSBupuXEPMHAre8xE+WpYiVSXV4+Zr5wKaEfzv42EC8TlJb/fVyWgoGuYAFs1Y5V5IS+WsNhib2Ex4ecIY0WB4fzkgSfHw873jJ8BVnrRK+2vK1hP6y2M7JkSpU97kPsmbdUcR44eavXy8oA2Ehda2nlmrT6S5gLW5cSfIf1jqW2sKprvIEqGs/Cjg44aPsJV/wC6WkJBue1IGFyAanR4Nl7RBGpWi462p6+bGzln5De7kG6Enc53EhVceDpL5akttEd8t0Qnwv8OSL/GSWELppaJtUis1mUh9cPrTz4lW/wRfDWRCDq3zQz2waUzDKq1k86yEnS1KSz5cS++s2wa+VV+XL9DAiPd+J+PVOTax11tJv+xZWA79J4NC8A0WqBp0tPyBfeKlbCjNEOktRxEp/AWtx0x+Bnyd8lPtQ13a0q3sQTZq7N/Cu5H/7jRc5WZKS/kllBNIWDoxseq44CfB7Z6xyxJi852CF4BVYUtVYPOshxq87ghBaeeGLi7KlKGJVxpfQyNwUjPJsV/ZgfqvMT0/Ber+JhS2/c7IkSUrh19GQnudfEfmbM1Y5Qoa7k7fEUnQ8SOq/XK6XzqZZxPg+Ak+9wE9tLmLVtX+k6NP6igiru+nHwL3J/s0Sjqeh9VWu7EEwuWNbAml4DtlcJ0uSJJVb4YVPLpRCIb7kK+0laWB0t1xLb+EAXviWwiwhLmDqvJ2L6b5CbgMIEZiX9EESOcMVPRjf0nrPIOn34Yd4H+PX/Z+TJUmSyi0Gn39VSQJsNAVJifHStxSOpHfT54vpunKeYzFq2BXAIwn/9VLP1NljXNED6Kz5Q4kxBYXDMJdczocPS5KksqspJPwFSJKkdHvuLYWw+nl/H0MDk+eM72u3lVPA+sq0jcClCR/laDZl6lzNA2jN+o8Qws4JH+VjrK65wsmSJEmSJFWM7pZriYXDgIf+52+yxMLUvnZXWW8SytRcDAm/JDpwFrmcb3AauEWR/Ifnh3gJSxrXO1eSJEmSpIrSPetPZONhwD3/9eeRKZw1v08vfKisQsrCxieBbyR8lK9g2YjjXcUDoKHtWIivS/goN1IIX3OyJEmSJEkV6fKWFdD7ViJ/fM6f7sDaDR/sSzeVdyVQPtsBJP1ZQme7ggdADI2JH2OIi+lufsTJkiRJkiRVrK7zHmNI5u0Q73zOn07rSxeVV8BaPOM+4LqEj/Jo6ma/1hVcRqfN3hfisQkfZSRmL3SyJEmSJEkVb8HMxxm+/gjgB8+eEb+ButZjtrZ5pT6LaW7iRxgyZ7p6y5lvmA6ERI8xxv+ja+a9TpYkSZIkqSpcklvD+HUnEZkN5CHMYWJuyNY0rcwCVlfzL4j8LuGjPJVJ52/n6i1Hsu07EMJHEz/OTAoKrZIkSZIklVIuV6C7+Vxi5k0EHmXkiNO3pllNxQYSuBC4KsEjHEG2ZjLQ5uotsZp4JjAs0WOM/JGu5pugxfkqlamX1dL7zBcTO75MYRGXt/zZiUqJibkhjB6R4OfThSY6mxY6UZIkSUqt7pm3AccysWP4Vp3qV2wQ49ctYdmI2cDuCR7lmeRyHeRyva7cEqnLDQNOT/w4M7ENQnTCSmjB1F7q22cC2USOr8BvAAtYaRJ5WWLHFuIwJ0iSJEkVYUnj+q06ja7YAHK5XkKcn/BR7s5DI97jai3lSd3I04AdEz7Klaxev8TJKv0ZPYFnzEGSJEmSKk+mwvdvAbAq0SOMnO0yLFmYAWLy8wzxIpbkNjlfZTmeVhmCJEmSJFWeyi5gdbasJsSkPyPkcBpaD3IplsDkOccDr0n4KFdTGPJ1J6tMoldgqVrWegyGsAUBc5EkSapQmSrYw3lAT6LHWAhnuhRLkWNsTMFJ50K6pz/tZJXr5DXmDUHVsdZ9ht6WY6HWFCRJkipT5RewLm9ZQYjXJPsbNx9mypd3dDn2Q93s1wJvTfgo82QKX3GyynowWcBSdfAKrBfIhTGGIEmSVJkyVbGX+eychI9wKIUhU12O/VnJ2SZI+q0j8Ro6z/2Hk1Xeo90IpCoW2N8QJEmSKvS0vyr2ctHMO4jxl4keY6HwCSbmhrgki9DQugsxfjDx44zMc7LKfvZqAUuqZpED4tVkDUKSJKnyZKpoT+cm+7w77MzIkR9wSRahEM4CEl78CzfT3fJbJ6vsZ68WsKTqNmrFw+xrDJIkSZWnegpYnc0/BP6c7NlIwUPIk2ZqbgSBjyV+nLEw18kaEBawpAH4REvy4EKetzlFkiRJlad6CliESIjzE35K8AbqWg91WfZBz/AGYLuEj/IfrN3jh07WQBzmFrCkAbA64Z8D73WKJEmSKk+mqvZ2de0i4PFkf/EO01yWWymXy0Dm7MSPM8a5LDnZwspAKFjAUpWIYfBeWhF4IuHpHLFiLnu7SCRJkipLdRWwljSuJ8ZLEz7KDzCldZxLcys8NPI9EF+Z8FE+ST6zyMkaqBNrn4EllV3kqaR/EgT4pBMlSZJUWTJVt8f5zMXAhgSPsJY8H3dpbs1JVJyegkFeyhVNa52sATtvtYAllf1jjb8mfoiB05d38EonS5IkqXJUXwHriqZ/EeOVCT8JP52JHcNdni+iofUg4PCEj3IjtUO+6mRJqrBvDremYJRDAlwac1X4PUeSJKliv4ZW5163A4UEj/DljOz9sMvzRc1I/hDDVSyY/k+nSlIlyWb5HQl/E+Gzjl65Dec5Y5IkSZWhOgtYnS1/hXh9oscYmA4xuES3YErrOGJ4f+LHGfIXOVkDLHrMSOW28zQeA/6QkuF+Yfk8pjhrkiRJ6Ve9l9YXmJvwEe5HffsRLtEtyIdzgNpkDzJcT+esPzhZksrzERMGt1gbuSI1SUUWrOjg0zFigVuSJCnFqreAtajlpxDvTPgoz3aJ/o+G1tGQgv+bHgtznawqPKmXqkRPnquA3rR8MgBfXDGPn6yYj2/5lSRJSqnqfrhpZF7CR3giU9r3cJk+d87CFGBMwkd5N93NNzpZkirVHs08Anw/TWMOcCy9/HVFB19+eA4vdxYlSZLSpboLWEPGfgtYnuARZsnHM1ymz5p4dRb4ZPIHGudAiE6YpEqWh89t/leqjADOK2RYvmIeXSvncEzMUeNsSpIkJV91F7AWnN5DjF9N+CincEZulEsVGL3s/cCeCR/lo8T133ayBosPcZcGyvhG7iFwZUqHP4xIXcxww8pteHRlB99d3sHZK+bxtocvYneflyVJkpQ8/l/HnuGXMmTDecA2CR3hWNaPOBW4tOrnKsbpKRjkRXTnNvjRIqkaZPJ8tpDhJGB0indj2wgnBTiJCIU8rJzHhpUd3B8D9xN5CtgYAk/FApsirE31nGWIEZ7+938HWB0L9IbI0/kang4FnsoWeHrnGTwRAl5NLEmSEsMC1pXTnqG+tRvCtMSOMcRzIH6tqm9LO63tMODQhI9yHfn8Aj9WJJVdTMbVhrvMZNnKeZwTIwsrLOFhEfYlsu9/IgcCqb80K/7PN4nI5v2KATKFzX9WyMDKefSs6OARNj9q4Z/Ag0T+BtwXA/ft1shKD0RJkjSQLGABxMI8QvaMxOYRw940tB9DJzdU7RxlQiOJ/x/BoZPF5z3hATWYU+D1AtJA23U6ncs7ODHAe0yjotQCuz37z7Ofsf/51/IOngH+kIE7I/w+Zrhz3C7cE05O3XPRJElSSljAAug+90Hq26+F+IHEjjFyNlRpAWtK+x7kY9JPjApkei/yYJJUlV8mavhYPs9+RF5hGtUhbH70wuERDgcIBVi5glUrOrg5Rn4VMvxy11XcFnL0mpYkSSqFjBE8K4a2hI/wnTS0vqoq5yZfOAfIJvyr/LUsPPfvHkiDfhz74GVpEOw8jccKPbwD+JdpVLUxwLtCYDaR36zchqdXdPDDFfOY+uA8djYeSZLUHxaw/q175m0QfpPgEQYIZ1bdvNTNGwuZhuQPND/Xg0hSNdu9mftD4H2AL7LQv40E3k3ksprI8hUdLF3ZQf39sxljNJIkqa8sYD1XLCS7CBGpY+rsKvvSt+l0iKMSPsjb6Jr1Gw8gSdVu1+n8OhQ4EVhjGvofWeDoCJ1Dh/DIig6WPNzBsTHnd1FJkrR1/NLwXBPWXwshybeBjaY3W1818zH1slpCGq46i20ePEmZiugthKqS397JvV1215ksjRmOBp50ovQChgEfKMD1K8dw3/K5tKy4mO2MRZIkvehXYCN4jlyuAIVkP4g7xrOZeHW2Kuaj55kP8ty3HyXTg4xff60HjyT9x27ncGsejgAeMg29+PcaXhECs9nEQ8s7+MqyeexpKJIkaUssYP2v2vWdwBMJHuEERi47vkq+1U5L/hjDPHI537AkSf9jfCP3ZAq8IUSuNw1thREBPpmN3LdyLt9Y3sErjUSSJD2XBaz/tSC3jsBlyZ61eHbFz0Nd+1HAwQkf5TNsGtrtQZMgAW8hlBJkl5k8vstqjg/wOaBgItoK2Rj4aIA/r5zL11fMZ5yRSJIksID1Aqn0zCfJb1GKvJ1J7ftX9ByE2Jj8MYZLuXLaMx4wkvQiH5U5Crs28oUIbwPuMxFtpZoYmEIvf1kxl089kGOYkUiSVN0sYG3J5Z96lMi3Ej3GbDyzYvOfNHdv4F0JH2UPMfNVDxZJgyKFLyzYrZFf9DzD6wh8GehxErWVRhL4Uu023LNyDscYhyRJ1csC1gvJhrlATPAIT2XS+ZX5xp5Mfnri12YI36JrxnIPlOTNjBFIybVHjg3jpvPpCG8Afm4i6oM9Y4brV87l6/fPZoxxSJJUfSxgvZCFTXcTWZrgEQ4nk51ScblP7tiWwKmJH2fIzPMgkaTi7NbIn8Y18rYQOIbAHSairf3tGwNThg7hjyvm8SbjkCSpuljAevF05ib7a1w4i6mX1VZU5oXeM4CRyc6dn7Jwxp0eIImcG6/AklJk1+ncuOs5HBwiHwpwj4loK+1O5KblHZxtFJIkVQ8LWC+ms/kGCH9I8nd/ep5+T8Xkfdb8ocR4RgoOm7keHJJUGiEQd53Bt3dtZL9MgcOBH5HsW/iVDEMCXLh8Lgtvv4xa45AkqfJZwHrJb9bxwoRPYeX838c16z9CCDsnfJR/Zfc113tgSFLp7TKTm8c1ckIeXgssAFaZil70a1qgYce1/OiR9oRfvS1JkvrNAtZLWb3uKmL8Z3IHGN9C3ZyDK2Q5Jr8YF0I7uVzBAyOph4O3EKpa1nqo6LU+vpF7xjVy+voadgxwIoEl+OZCvdCvZji2t4afPNbKaNOQJKlyWcB6KUtymyBcnOxvbvHM1Ofc0HYsxNclfJT/orD2Sg8KSRoYe01j466N/HDcdE7u6WX3GJhGYCmwyXT0XyJv2VjLD/82n6GGIUlSZbKAtTU25S+FsCbB39o+RF3bTun+4hkaEz/GEC6mO7fBA0KSBt4ezTyy23S+Mm46xw7t4eUx8gGgC3jUdPSsI4fnWRRzfr+VJKkS+Qt+a1x17lPEuCjBIxxKYGpq8z1t9r4Qj034KNdTEy71YEg8byFUlfz2LlT1Wt++hdW7zeCacY00jGtkp0yB1wSYAiwC/uECqWKRDz68DZ82CEmSKvArsBFspZowF8gneIRnctb8dF42H8J0kl54iCxiwczHPRD8TJMSoZDxLX3PsctM/rJrIwvHNVI3rpFXFHrYNUTeA3zm2edn3Qf4/MIqEeGzyzs40iQkSaosNUawlS5veoD6th8AJyV0hDuwdv0HgHQ9o+nU9h0I8aOJ/y5cE+d7EKThrCUGghdhSdVu9xYeBn7w7D8APHwZI3rXs28osFeAPWNkjxDYA9gDGOd3ooqSDbDokXb23amJtcYhSVJl8MtaXxSYSyaxBSwgTCdtBayaeCYwLOGj/CGXt/zZAyAFQiYDXpiiKlDltxAWY5fTWQfc9uw//+X2y6jdbT3b9uQZEwNjM4XN/44wNhOoLcTNb7fLBMYSUnKrcoERMTAUqI2wKzAuwC7A2CqZ8vE9GT4LtLj6JUmqDBaw+mJR86+pb/stcGgixxd5Aw3tb6Kz6ZZU5HnW/KGs2XB68k8UM3Nd/Ok5rTcCSX110On0sPlh8BX/QPjlHQyPvexSk2HnmGEvAq8isneEfYG9qKBnCYbAOQ/P4ZJdZrLMVS5JUvpZwOqrSAeBq5M7wMI0IB0FrLUbTgN2TPa3X+5g4cxfuvBTc4BawJKkF7FbI+uB+5/95+bn/t3yDrYlcEiIvBk4AXhdynd3SCHLucDHnXlJktLPk72+Wjvhu89+6Uvo+Xv4AFNaxyU/yBiInJP4YRbCHBd9qnhblSQVabdGntxtOj8e18hnxjVyQD7wCuBTwMrU7lTktOUdbOvsSpKUfhaw+mrJyXkiX0nwCGsohE8kPsfJc44HXpPwUa5gyDbXuOj9TJOkajR+Ov8Y18j5j4xkDwKTgBUp3I1hGfiQsylJkid71SkfLgeeTOz4IlOZ2DE80RkWYmPi5znEC1lweo8LPkWCn2mSVGoHnU7PuOlcMWQoryFwISl7W0aEk51FSZLSz5O9YlzRtBa4PMEjfDmj8x9J7OjqZr8WeGvCZ3k1NfFyF3vKRG8hVLWs9eBa14Db4UzWjJvOdCIfBNamaOhv+tdXGeUMSpKUbhawipWvmQ9sSu7JTTwHYjJPcDLZJpL+rKIQv86CWatc6H6mSZL+27gZLMnAO4F1KRnykE0bONiZkyTJk73qtLhxJST5bYTsR92cIxM3qobWXYjxgwmf3V5Cdr6LPIWin2mSNBB2aeRXMfABoDcN4w0h8c/dlCRJL8GTvf7Ih3aS/ByIEKclbkyFcBYwJNnfcuN3WDhzmQs8hXwGliQNmN2m82Mi09Iw1gh7OmOSJKWbJ3v9sbjpj8DPEzzCE2m4IDlf2KbmRhD4WPK/5WYudHGnls8FkqQBNG4GlwJXJP6XQ2SMsyVJUrpZwOqvyNwEjy5LzJ6RmNH0DG8Atkv2fMZf0tV0qwvbzzRJ0laq4TxgfZKHWICRTpQkSZ7sVbfuph8D9yZ4hJM5Izf4b97J5TKQOTsFR8RcF7WfaVLihejVhkqMcdNYAVyT6EMmeIWuJEme7HkWEYF5CR7gWNYNnzToo3ho5HsgvjLhk/k3dl//I9e0n2mSpL6JgZ+YgiRJ8mQv6UYNuwJ4JMGzfPbmK6AG85ttnJ74eQyxg1yu4IJOs+D/YZekQZDN8xdTkCRJ5WQBqxS+Mm0jcGlixxfD3iwbdsygbb+h9SDg8ITP4pP0ZK5wMadd9DNNkgZDLY8ZgiRJKidP9kqWZM3FwNrkDjAM5vOnZiR+/mL8Klc0rXUh+5kmSeq7jRvZZAqSJMmTvTRY2Pgk8I3kDjAcR92cVw/4Zqe0jiOG9yf9ezeES1zEFcFbCFUdorfLSpIkqbpYwCqlfLYDSOozlAIhnjnwmYRzgNpknwjGb9Dd/IgL2M80SZIkSZIne5Vv8Yz7gOsSPMI6ps4eM2Bba2gdDUxJ+KxFYpzn4vUzTZIkSZLkyV41mZvcocVR9GQaBm5zYQowJtnTFX/Coln3uGwrRPQh7pIkSZJUiTzZK7Wu5l8Q+V2CRziNiVdny76Vzdv4ZOLnq5DkgqP6LPhcIEmSJEmqRBawynISzYUJHt0ERj/wrrJvZfSy9wN7Jnym/sSi5p+5YP1Mk1InRou1kiRJ8mRP/TR+3RLgoeSe+ISzB+DkanoKTgDbIUQXrJ9pUuoEP7skSZJUXWqMoAxyuV4aWucTw5yEjvBtTGrfn8VNfyxL76e1HQYcmvBZepi167/tYq04FrAkSUr6l7CL2L2nkK7zkGyWTeOmscLZk1TpVsxnXOjhsEJgnwy8MsIeREYTGAEMJbABeDoUeLwAfyfwt2yBO9YO4ba9prGxnGOzgFU+C4DPkNSHmNcUPglMLU8JITRCwi8OiHE+S3KbXKYVJhDwuhRVxVqPrnRJqRV7eFU2wzXA6NQMupe4fC5f2G0GOWdQUkV9JufILB/LWzKRD8XIcfSyRwwQeM5Z/XMfXvHsHz77M+8AKGRgeC8bVnTw2xj4bm8PS/Zo5pGSlxqcrjLpbFlNiAuTu0rDKUw6f7uS9zulfQ+I70n47KylkL/cRVqJn75+pkmSlHS7zmRphKOBx1I07BACn1s5l/kx5/cNSem37AJetmIu567chmWZAr8g8okAe/Sjy2HAUSEyv7aGFSs6uG7FXN5eyjH74VtOGeYBPQkd3XBqaj5W8l7zhXOAbLInJi5k8XlPuEAr9KiTJEmJt1sjv8sUOIIkPzd2S98iA2et3IarH8gxzFmUlEZPzGeb5XNpzQ7lIQLnA+PKsJkscDyBG1d08PuVczjGk72ku7xlBSFek9zfwHySqZfVlqy/unljIdOQ8FnJUwjzXZyVKvhmNkmSUmKXmfylN3Ao8IeUDf39tdtw3RPz2cZZlJQWMRJWzqNhfS/3hUAzMGqANn1gzHDDig7+X3t3Hh9XVf9//HXuJF3oBgJdkkkXoKAs3y9L+YKCbCr4BQE3Kl8VaCtSZSmdydIi+mNwAbokKQXRVkhDEcHW5QvI8mWVXVYR68Ja2sykLSDdmzbJ3M/vj6RC25k0aZPJvTPv5+MRpZnJnXM/59zlfObcc+5eVst+u7MhJbB6WjoyO8ClK6V57Re7b3PNk8EGBrtC3O+5teotNcy8PS3rnCYF0tS1CqGI5IfRMVa0OE4yeDJkRT+lKc2jK2cxVLUoIkG3Yi77pubwv2bcAgzrpWKcGTFeSdbu+lzc6uz1tFsrXsLsicCWz+PybtnORfOKce6SwNeHo0aNMq/pnCYiIhIyY2Ks2VzE53AsDlXBjaNaIvyp4XrGqhZFJKhS1Xwq3cpfMc7qQr/5LWABUIFxpuczzvP5RNqxvzOOdI7jMSbiuBZ4DNjcyS0PwpiXrOG2N+bSt6v7olUIc9OlrsY4IaAX3uOYMPto6ite2K3ttKz7GlAW7Ipwz1BX+awaZJ4fbSIiIhI6Y6ewxRbxP6kk/wK+E5ZyOxhDmicbazm9JMbLqkkRCZJkLV814zbo1Lx9/wRuizh+NSLGO514/9Nb/2Npgn59BnGqeXwT42ygz07+9pv9WhmVvJEvRS+l0/NTq7OXC3VV9wD/CO6V17909zdiUwJfD+ZXqzHmPc2BJQXS0k2PEIpI/p3axpOOxvmuGdNDVvRhvvH48jlty8mLiARBsoYLMH7NzpNXzzs4qzTGwdE413QyebWNMQk2l5ZzdzTGeIrYH8ccoGknHbdPs4U/Jm9k785+jhJYOepp4CzIE4efy4SZw3f5ryfMOgk4OtBVYCxl45i71Bbzns5pIiIiO5F2wV4xuqycGRgXA+kQhXWg53NXsobxamEi0tvaz0W37KR/9B7GxNIYx5bGucc5uuUL0ugUktEYsbTjUODeDt/sONQ188Bb1zFEnb0gWV98K/B+QEvXB9zkXf5rZ/HAx99ZDYvHp9UQ857OaSIiIjtXGvQCRsv5mRlfo/PzqgRBX+COhlouy+WHtnoFOwLdD27XQ1P1SO9JVfMp4JfQ4ZcVDxd7HBYtp767ElfbGxXj7WicL+CYTAejsQzG9enDIkvsvC+nzl6uLI43ATcFtnzOLuayuV2eRI0JM8cCZwQ69o7V9G+qVyMsCHqEUArklt3TI4Qisss8OCAM5Swr57cGnwfWhim8zpibrOEnZrm5L4n4O51rJl/v+jYGtWjm6K8zjfSGVXMYZh6LgeIO3lZbuo7Thk1lVS7KFI0x33Mc72BlB524U1ODuXpn21JmOJda3U8pskoI5AltKBu2nENbprYr4gQ9EWru59yU2KAGmOcSCY9lCoOIiPRSX9rYEpavUcw4PixxLYvzeMMcTnDG/RglIWoS30vWMNwSTHYJWnu4PvcOWtszenaf24+5DUH9NsdgoM6K0huafRY6OjxX/iAa58db/5Gaw0F+mi92+fiDNUCTc6x1Pq+N2MCbHZ3rSmK8vHwmx3tFPAyMznrerOaP0XIeybYdJbBy6bbKd5k483bgwoCeamN0JYH1rZqP4beeF/CotxDxb1LjKwgaUSoiIr2pKURlPbpxHnuUTGZTGApbNpVXV9RyXBoeAA4KS5CdY1JqMPs2zuPcHo112zwzwdp32NLjPRcI7BfULvCrs0s+StZyHsapHRwzs8o+krwCMOMw57huN45DzIPUYJqTNTzj4LfWhzsyrSw4soq3ktWchuMpYN+M/TnHz5cmOGxMIvPj4+rw5fxsZrMJ7vPaRzLxuk91+t1+68XAgIAH/FfcPC2phlcAGkfo8UEppGuJHiGUYDXJYj3C7cKVwOpj6zkuTPEdEeMdz+d44PmQNY0z/Y081FDDx3qw8R0TuOPB0ZyDgy7IT1iM6cx8PiLdZdm17IVR3cE16vfRGNN68roCnGRwAy28kaxmaqZjIFrO6874ItCSZTsHFA/ie9k+RAdVrtVNe422b48CypvSqbddNrcvZhcHPt5mc9ToCkTfLcE+n2nOIunWc5tTwlaCdQpOs1ehx8BZqBJY+C77t/RBVVLB+0VpTnGBvpfO6FPAk6nq7h+Vs7SWPTGODd51Kgej+3w+CHCd91s+mE/o6iA568X3ZSqZRzUBJK0P3+6pydozHP974ahtHMxtltjxqb/Scp4x4wfZL6jEV85iaMb9VFX3yi1OdYAL9xUmVu/84rqh6es4NyLggX6I+qpX1N4KxMrWYJ/PNGJG1J4kj7VGOCLYhww9vhLxiA18QPZvlIMXE8e5tqjDFaoCaXglG1cM4CzgtlCdtuFgczyzrIZDunO7xT5fJJjTwnyQg6C+EeQ6L3KcpKuD5MJb1zHEQdaBKAbfzvRIX08z+HpyEN/P9Fp0PbOA57L86YB0hFimF5TA6g0LKh8F+3NQz7Xgf3fnb/MuD36g/Wo1tgKy17qgj0gZpEoSkXzljC8HPHvQ46NBXAIfSIWo2qKNSU4PY3sbN5mW0hgXmDE7ZEWPRuCJVG03Pr7Ztjx9EI+593PQO34t2F0RztTVQXKhX1++DeyZ5Vi8uyze9VGr5vi25zMu04/vcaIzzsb4DnArjtVZTwWOaStqd5y03SXwfY/LyDK9kg8Xr5y143RFSmD1Gq8muGWzyVyU2CPry5Nmngr2nwEP8BIWTHtQ7ayAzL+qiWB/832wKkm6r2PgNAJLAmNZLftBsDtqRo4mK3eEat5NM35gFs75y5zDysqpxChvq+LQ+JgZD6WqOWt3N5Ss5RQI4OODbRXS4wksbyBvENy5hTHH5xpnM0pXCcnBATch62neMo+A2pmI8VpJBS9l+hk5lSdKy7k7Ws68aJwJffow0hk3ZNlUv7TP/2R6YeRUXgDscGgCAAAhYklEQVR+l/lyyuDWoh2/HFMCq7cUD/410BDUCyste3y9g9djITiKa0AdvALr0RvwXoALeLjqSETyUVHbKJjigN/cr8rJlchnWbgunRzdOIdzw9z+ouXUmOM8QvT4JtDfHL9N1fCtXW7SbZMjzwzqDrbAOz39Ge0rOwY5aeyZo1xXCelJy2sYZ2R9NPmBsjh/7ekyDL2EDaXlTMGxMMu15oxsf+vDjA6u3RfscFCpynvJ/MktwI0BLuHlYDt+I3fBdYdgnBbw6L6LNd2hRlaQVga4bKdw3qwBqiIRySepGi42+FLQy2kuR4klx1/CVodmzGmczT5hbodlMW734AsQ6FXptldk8ItkNVfuyh83DqEC46iA7tu/xsRYk6PPCvSqlOb4TmoOB+lqIT3Fc3wx+yWJeTlu79mm8Dkg29+MjPOigxezvHzS0tptH41UAqs3Nff7ObAuoKU7lEkzT9rxKHCxtmMhyNxc6hOb1cAKUpC/hduDIjtfVSQieXPCreVwg3DMN+nxVo5u3l8KYVUO9T3uzLRSVJiUxHnQ9ziFYI/G3rF/6fhxQzU3ZlpuPuuxV82xZvwowPv1Zu56zDwc8DouNp87G2ror6uG9NAxcEqWs8vqNeu4P5dF2exlnZdun47OcQa/yvJSpI9x4raXc+k9t09ZBywI8DV125UMzps1FOe+EfCobqLYzVPjKtQTuD0T8BJO1ygs6Ra+ViGU3tU4m49jPAD0C0FxW1rX5GZkVAu8TLjmY9rqM42DuSms82FtNXIqL1iE4wyWhqncznFJagh3vjGXvjt7b7KaA3HcA/QJ8C7lbCRi2uOhEFTx4Q5+2pUkpUhnvDeDQcC4jN0inwcOSdCcy/IMaM66aJWjg9xT2nFX1u4dnPzRf+sg6vUOd3oO0BrMsnEWk67d79//LrJLAn+j6lw98yveV8MqUBEeC/q9NUX+NaooEQmzZDXH+h5PAMNCUuQlYxLkZGR2+2NTS0J5SwrfTs3hZ7aISJjbZ9nlvJF2HAe8ErIKOKd/K/f/ay6Ds72loYbD8HgMgv3Ip1nWx4G63agYbwNvh6CGJ6aGcEvYjy8Jli19OJQsc1A6xxM5P/YjWef8Xe0S2XMe7cfx8izXpiM/+m8lsHpb/RXv4Ph9QEvngXcJAJfN7QsBXab3Qz6+u0GNqoCVNb1McB/L3Xo5mcKEGeepskQkjJI1XIDjUWDfsJTZOXK6KrGDe0NbwcbkVJJ7tp9zJGxGx1ixpZmTIPBfbG3v5KZWHl86k+E7HHu1nOEcj2OUBP6Y83ghx8fcH0JyfE1IJXkkOZeoribSTb3fgzpob8/mtHkn8PCpyPLya53YxDNZju8Dt0tQSO83PG9WcE+07kK+MXcwGzdfQNC/aXXcTX3FP9WgClgi0QrcHYLeVB0TZ31TFSa70Yb0CKHk1Ko5DEvVcDtQD+GayyXtuC+nh6cf4gRWm/8uNv6crOYzYd6J/aeztqmI/8axOGRFP7y4iKcbrmcswMpZDEjWUotxD8ZeISj/u6VreTW3fXhuDlH9nkgrf0nVcOmL8wK+eqsEn7dtcuejvXhvIG/kqhhvXceQ1GDqzGVZ7M3xwE7TDvB6lpeGffRLlSLVegDUV7zApJlPYxwXwNINpk/T+Zi7OPiB9KvVmASzn+Jc0JNDRWALmTjjaDY0VbI40ayKE5EgWnYte3l9uLzFZyowJIS7kCor4elcfuCIkTybSvIeIRqllsFoHA+largjkub7wyvDNafUVmOnsMUSnJscxLvOcUmIir6fS/NUspprWx1xjLIQlf1Bl8DP5QeWxflrsoanIZB9qUw+ZnDD8I1MSVZT27eVX+47jfW64kjX+z07jtZs11gymU271bOGcanaHefl840iZwxyHoN8Y6iDo4D/BrLN87vJjLqdfZ5zvJltBsm+aYZD28qmSmAFhqsGC+hJ110DWSdkC4oXqJv+lNqRUD/tT0yc+TLbPS8dxAML3BQG7nECk2bEqZv2mCpPRAJxP7yIyIokn/JhInAOMDDEu7PAjSed05P7eNIN1dzqXNZHKUJzc2rw9dYIX03WcDvG9dHy3E3O3W070ZZMuTRZw0rghxCaieqH4qgNYaPpncf5jPm40CSwthqL46YtxcxI1vAbz3E3e/Dg7iYepJBSCAzMmPQxVnfD1msyLRnk2v/HrHMnUzN+WFZOqhNv/SDbC61FH+YilMAKipEb72LZgDfBDghg6QYF/+B1s9WI5CNn1usxbg1JaQ/H3KNMmPkgjhsYtek+EglflSgiOev3LSKSTHKwc3zS+ZyQSnIaAZ8kupNavAi/6JVPLmI+acoh3Kv6tesDTMQxMVnNCzjuiDh+PyLGO2HaiWicHzfUstIZP1MfqMes9V3vTOVgjsUezDCyjkgJskHARN+YyEaaUm3H2TMYz7Z6LBlZyrJcJ+IlJF0eY5Bl7gttCEgRfx6NM5Pynb/Rd6z3sozA8kwJrOBJJHwmzZyDcaOC0WXLGLnxdwqD/NvITb9k2R6XAkeH5wrEqcCpLNtjORNn/C/GHxjU/wlumLJFFSo73qlbr8yBtTRBP29I8CcQlm0V+Qwx2NPzGOL77GmO4a6tkxcFDkwlOdBBXwzM5dFhAgtLLs+8qlFPK7ucN5I1PArhnkcqw7XqaODotFGTrOENHI864wWMl5vX849crfa4y/US4+ZUNe+a405CNpdbOJoHi6JxmnqlbuM0JWu5CmNeyMPY3xwnACfgIGKQSrIlWcPrwDKg0TkazeddBx/4sD7iWI/PJiJYS/tjVhLg46SZzSOn0dgt1zlHJMtjd739ZfgKjOnRchYS79wfRIx0tptbl/5w9U4lsAJ1h7lpAS17XA3srWB05Szg5rRP3i3SJpHwmTjrMrBnCN9iFSPBTcExhQ2bm5k481XgBcyW4NxyfH8pfUkyf/paVbTk/DI1mGOc8UdFIly2JqV8a+thusLY7S3FaX7Sq3GHH7l8S2BtayzGWIPJOCgejCVrSBksdbAOxwaMtWas8zw2+H4wklvtvboHHZyts0P3NnkzftqbBSgt5ZZUkkuBw/Istn3b9+mwtkC3ncvb/6+tTXttJ52I2mHwFfM0cHw3XWiyzZ02oBf27F3gSYy7m4r59dgpdOlL+LRjYLYRWOY+3E8lsIJkfmITk2bOw/iegtFp6yhKL1AYZAcLKp9j4sx6YFKI96IPMA4Yh2vvcnoetAATZwKsBTbC7nYKnI+z/E2IGYPp6j2dFUofXyRvj/uZvT3xeFmcxxtqeNDBqQUSdQdEXdvIPraOCnBb50rRWTXf3dfbc6S58aQbapnmLLcrj4r04ll3Q6YRWAaDd/8yyizneHO7Xx+HcX6Gk/+k0ji71Sf3/OwLxaSVwAowr2Uu6eI40E/B6MyR5eZpJIpkP6nbVMx9EvhEnu7hELplVTADU3PZoRsW7LatGhPJfvy+ZXBtIG5T4EoHnyV8o4FFutTUzeNHQShIWYz7UzX83uBLqhYpAB9kuY2NvjiP4nGTadnVDUfgnpIYT370dw013ObaRo/tt22XnB8vreX3Y2K7/girwX7Zbr/9Vv619b91MQ2am69chXGnAtEpLfhpzRkm2dVNW495XwYtTSz51kF3SmCJZNYKnFfWS/PwbG9knBetbdJwkXz2y7KpPBeYk8AWvkXbfFEi+c3n9SyvFA/bzOju/riyOE04puzwglFS5FO9Wxs3xmb+NevGVLFy67+VwAqiiKtG4yE608gXsXD6cgVCOlRf8U/MXaRAiIgUhKuiMZ4NUoH69mM6hGvFPpHO346zzm9hepDKNOoKVpvH12DXR5+IhES2BBZemqN64gOjMe41uGv73zvHpOVzOG1Xt+tc5sW3vO32UQmsILqlcgnGQwrEznjXKwbSKfWVd4L7vgIhIpLHHItLY8F4dPCjhl7CBowL6f1VoUR6wne7a0W17lQ2lecwrlb1SD4rjrCELANfDE7sqc+N+FwObNqhd+7z83d/ysCubq9xNvsAh2bcD8eSbT5D1R5UNlsx6NCj1Fe8oDBIpy2o/AnmEgqE5AVfc2CJbHej/mTLWs53Lpgj2KPlPGJwpWpK8oqjvizOr4JavNI41+CYp4qSfDVsKqsM/pHlunia9dCiRCUVLIOMK/2ObtnMNV3dXtrxebLNQOvz2Ef/qQRWUNVPewjHSwpEtjtVu05BkK4fV5VXAz9UIERE8sqf9ijiC2MSu7sia8+KxpjhCG5nX6SLnvf24JIgF9A5rHQtF+u4k/zuF2+b4Pl3+4cxjTV8sqc+du06ZgP/3KE4jksaa/h0F4/Vr2d9sZhHP/pPJbACzc1UDDJ6hfqqhxUG2SULqq7CuRiQVjBERELv2S3NfH7vKawL/F2dw3y40BlPqNok5F73fM4ombzjI0SBO+4S+CVRzgd+o2qTPHVfB69N7KkPPSRBs3NcluElz4dfLE3QrzPbSVVTBnwuy8uvRqeQ3Gbjqu8AWz/qt8DfFYjtmF0NWoFLdkNd5Rwcp+NYrWCIiIT0dgDu8gbw2f2nszYsZS6L0xTxOR34o2pQQuqfBqeUVPB+WArsxpNuKuKbOBaq+iTfRNfzoOPDVfq2uU46znunlhE99dmlMR4GFmV46aA+Q0h06lruKAeKsry8wzGrBFaQLR6fBvc9BWKbu9Xnqa+6S4GQ3VZX9SCtkWPJMPRVREQCrzYa5SthGAGyveGVbOzbwlnA06pGCZmXi9KcWBYnFbaCj53ClmiMCwymogUVJI+4BK0Gt2d5uW8RVPVs95w4sH6H3xvljbM7XgmxoYZS4MIsL7e2uh0f/1UCK+gWVN6F0w3Oh0coVRp9Jd1mYfnrbCg6Eudm6GZGwnUu1HlQCtYGZ5wbjRN348P7KPi+01jfVMRngF+qSiUkFnkD+PTwSt4N806UxbnejDMzdbhFwirtuAlozfiicWlDDYf14DGVgowrfhb5HnV/S9Ane9ee2cCALK8tGh1jxfa/VwIrDFrdxVkbZEGxRSyoelxxkG61ON5EXeV0nH8i8IYCIiISWM87j3Gl5fw6H3Zm7BS2lMY434yrASWlJai2ABWlMc4N44jHjB3ucu7zWzlC89FJvhgV421c1i9EipzjJktkfUxvt5Wu43qMJRle+o8hQ5iW6W+S1XwB+FqWTfrO8eNMLyiBFQYLK1/F7MYCj8J60sVxNQbpMXXTn6L/piNx3IASxiIiQdIM/KB0HceVTuW1fNox57CychIOzoZwj2yRvPQXg6Ojcaqdy68k68gq3ipZz8k4JkN+JOaksJnxk/brZYYXOT41iP/XY9eyBK1+hEvI9GWMceWyGg756K+Sc4niWAC4jNsz7iiJ8Y9MrymBFRYe/w94u4CPyOksjKfUEKRH3ZTYQF3VFNKRQ3AsRt+IS2B7vaa2KQXS1HkiDUdG4/zYJfL3y4XSOPcUpTkMuEe1LgGw0Yyrm4o4pizOX/P2/JLAj8aY7znGoTnpJOTK4ryJMSN7g+f7yVrO66nPHzmVJ8j8WHzfCNTZIiIA781gEK3cBeyTsdsP63yXedQW0HPDyKSb1U1bz4TZ5+L8p4HiArt9/T/qK39G9nYs0r0Wlr8OjGfirGPAZgGfVlBERHKqwWB6aZw78m3kRzbDK3nXjLMb5zDRjGuBoWoGkmMtzri1Oc0PxlRlXtUsH7WP9Dg+VctnzagG/kNNQUJ5AK/nmuLBfA04MFOnGuMXjTWsKonz4L9/65PEY3GG93d5pdFij8oWn764HUdWNTZwTOM8Xtmykd8BR2bt+RvTo+XZF4pQAitM6iteYMKMH+DcdQWzz2YrKGq5QBO3S69YUPkccAKTrjse86YBZ5BlqKtIbs+Nns6Jkp8cq81nBo65ZXGaKLDJA9qTdXVLa/ldH58fmuO7ul+XHGgFbk87fjgqXrhPfJTGeNgSHJEaxFdwzARGq2lImIxJsDlZy9cwngH6Z3hLXx/uSVVz/tb5JKPl/AkY3x2fP2wqq8gyr9Wya9krson/A47vYBN/KI3zc8qzv0GPEIZNfdVMYGGB7O1m4MvcfOUqVbz0qrrpT7Gg6kyMg8DmAk0KiohIN3Ksdo5EejP7l5Uzoyxe2OfZMTHWlJYzxU9zBPBb9Ei79Iy1BrO8CPtH40wYFSvg6Uq2nooS+NFyFhscbI5vA6+qmUiYRGO8YsblHbyljznuSNVw/YvzcvNkV6qaIyJ9eR7rMHn1ZovjvJ2NulYCK3ynVWNgv4uAx/J8R9MY51M/7U+qcwmM+qo3WDDtciItY4A42J8VFBGR3buvNWN632ZGlca4etQVrFZIPjSykiXROF81j8NRIku6mzG3LE5VyeUsVzC2VRanqSzGzdE4/+n5jANuQ4v8SFjabzm/wFHTcVKBKcM28siK2RzcU+X4W4I+DTVMN8ezwAEdvPU9z3HWmBhrdrZNJbDC6IYpWyje9AUcj+TpHvo4JlFftViVLYF085WrWFBVy4JpRxKxg3F2NehbS8khTeIuoW/DvIRxwcoBjCkrZ8a+01ivoHTQGZnKq9E4X/V8DnbGDQbrFBXphuPwB8ka5lhCfcKOlFTwUjTO+c7Yz+AK4BVFRYKudCoVwPyOTwF8Ou3xSrKGmndqGdFdn20JvIZqvjJkMH9xcC3Qt4O3r/Ucn8+26uD2dLIKq/mJTRRtOguze/Nsz7bg7HzqqhaqkiUUbp72D+qmJRi1aSyeHYO5BPAc4Cs40mPMaS42CaNVDuY648hojHHRchaOm0yLwtKljvQ/S8uZ0q+FqINLgL8oKrKbLk8N5va/JeijUOwkIVBOQ1mc66Jxjog4xhhMRasXSkA5h5Wu47sO5u7krcVArMh4u6GGmxtr+LTZrs35u3IWQxuqmZIazBLn+A3w8Q7LCCt9j8+VxHi50/v17/+aOPNB4HMBDf+tLKicoGaYuRfDpJlXYe6qPNiZfwFfYUHV46rXDL4161B8C+5Sxs6Opm7ai6qodhfN3ofW9GmY+zzwKWA/BUW673hjMnVV83P9sQ01nOjgj6oA6fRdCqzz4A++45fRtTzkEnoEp7utmM3BrY7xzvENOn5EQ6Qjj/Uv4ot7T9Hovq5KVnOgc3zW4DM4TsbYS1GRDjwdjXc4F1RP3L9d7qAaiHS2WeN41Bl/THssSRtvbP94ny0i0vAOo10xB2IcC5zs4JN0cuERB39zPmeUVLCsK/uiVU3C34sx6kgwYdZLOJsPDA/pHe6D+EWTWBhPqU4lL8yveB+4vf0HLrpuCK2Ro8E/HnNHAccC+yhQskt8rcwqgfY28LCDP6xdx/8dkqBZIek5Iyr4O5Aw4+rUHI51xllmfAHHoYqOdMHJTa08tmoOp7evJCadFC3ndeB14CZbRKQhyRHO+IxznAAcBQxTlKQ3lcW5vqGGV1zbYnAjO9OsMc43ON/z2x7bS9awGdgANOEYmEqyl1fELs3MaHBLn75MHXoJG7r6t0pg5Yv6yns4/5pD8SIzcG4Cnc+u9rb3wX2f+or5bXPJieSp+dPXAg+3/7SZNKMEOAg4CJ+DcBwE7qD2C4vOz5KdZ3qEUILkNYOnnPFEkc+TwytZqpDkXvvKTc+2/1yxopbRvvEFc3wO4zhgb0VJduLIFuPp5TM5bWQVbykcu3AcjicNvNj+MwMgVU2Z8zjKN44CjnJwhIV10IGEVlmcx5fW8p/FUItxAXT5McF+7T+7s5xIyuCysji/39UNqIOUTxZ+71/AhVxwXS0R78cYZxHcec7WgfspxekZbR37StWfFJ66aY1AIzusKmqOC68ZSmtkKLjhwHA8hgIlmBsIDMJRhLEnEMExBJ9iHAMV1G4zgCB/Y6oRWNI7Wg1ed/CqGa/g8Wofx8sarRFMI2K8A9wI3GiGa5jNIZEIJxh8GscJGCWKUo9bS9uIhdLQlNjY3yvi6cZaTu/KvDSSXWk5DUAD8L9bf7e0lj0jjrER4wCMsRgHmmMsbVNOaIS+9Ij2xwAnNtTwMwe1tE1zkgubDGYXp5k5vJKNu7MhJbDy0a3T/wZ8iQtm7o+zS3HuG8C+ASnd3zHm41kddVVacUgkI2fczCpgFfBXxaMXTJh5Do5FCoQUkE20zUX5vsF7HryPo8F8lnqOpekIS9etZpkeBwzpVaVtdNaS9p+bAJJziVorh3qO/zDjUOBQ4GA6Xi2q0GwA1mCswWv/f1hjsMYZq4E1zmOND2scrPFgTQusYTOrR05nTXvcSdVylRmJEO33MN/4Y6qWL5fGPjJyXLo7kfBC+8823phL3wHNDDdHqfMYakbUjKEGpZ5jL4MhOIa0z7U1BBhM20TcIp1SFud54LjG2Rzve0wDzgB6YnT/+85xSwtcPzrGiu7Y4IcJrOLiC2jd3D+QETZTomNX3Fr1FhDjnEUV7LH0JCLelzE7hZ2sBtDNWmkbQvsgnlvMLZVLVDG7aN3G1xnUd//Alm/AAM1fJpKz3qj1ygis1nU85w1hf1VA+Bk0uc1s9vth20/MKoUhOoUkkAQe+He7SFC0YiClFiFqPiXmKMGIejDChwHOMRBHP6A/xh6EJ9m1BdqTT9aWdKI96WSwBp/VzliTLmKN81kd8VkzYgNrdmvRgSs+/M/SGFcnq1mJ46eEZ5qPQWbcm6rhgtI4d+qIyZ2xU9gCLGv/6bTGeezR8gF9+wygqDnNIEUyoLdwzWwOSllKKngKeKrhesY6n3Od8TWDQ3Zzs03AvWbcieO+aIymbo2fmlABuqh2BM3NnwTvMLDDcHyctjl3dvdE9z6wHOMfOF4F/y849wx105SAFJFwCf4IrG+zoOpmVZSISHikajjb4A6gf4iKbQ6mlcaZpRoUKYDzVDVlPpzoHMcBn8AxtoNHzjdjvGnwpnO85MHjW9bxwphEzyXplMCSj3TYavekqHkEadsL8/YEBuBsIM4V79BQfZpw/jo8t5qWojX0W59kfmKTgigi+XE+VAJLRES6X7KaY3H8gZBNqu9gbsk6Yi6Br1oUKSxLE/Qr3ocB6RaGuBac148t6Y1sHHUFq3vhXCQiIiLbCHoCy7kLqau8RRUlIhI+y2o4JAL3A2UhK/ptKwfwrXGTaVEtikhv8BQCERERERGR3BgV529+C8cSvoVazhu+kfvem6H5lUSkdyiBJSIiIiIikkMjp9GY3sKJwNMhK/pntxTxyIq5gVnhXEQKiBJYIiIiYeP3ziqEIiLSfUZdwWpvAKcC94aq4I6j02meXT5Tq9KKSG4pgSUiIiIiItILSiazqTTK2Q5+EaqCG/t7RTyZrOVw1aKI5IoSWCIiIiIiIr3EjSddEmOyGVeHrOgjMB5bPocTVIsikgtKYImIiOxwdXStCoKIiOSKc1hZOQlzTAH8EBV9T8/nwWQN41WLItLjt+gKgYiIyHZ8awp2T0dzYImI5KOyGDeY4xxgc4iK3Rf4VbKG76gGRaQnKYElIiKyw9XRtigIIiLSG8pi/A7jdIN1ISp2BPhZqpbrVIMi0mO36AqBiIjIdsxzCoKIiPSWaDmPAcfjaAzV5dOYlqyhzhIUqRZFpLspgSUiIrLDHbgfCXT5HM2qJBGR/FYW569FrRwPvB6yok9MDuY3DTX0Vy2KSHdSAktERGR7zhsW8Mv3JlWSiEj+G17J0mKPE3C8FKrLKJzt4NHkjeytWhSRbrsDVghERES2Y/6BAe8abFYliYgUhmFTWdWnDyc5eCBkRT/WmnkiVU2ZalFEuoMSWCIiIjtcHd2nAl0+l/6XKklEpHAMvYQNa9Zxthl3hKncDg42x5ONs/m4alFEdvsWXSEQERH5iItm74NxYqDLmHbLVVEiIoXlkATN0TjfMJgVsqKP8iM8k6rlONWiiOwOJbBEREQ+qsX/DgR69aRmRm96VxUlIlJ4nMPK4lQZTAX80BTc2MuMB5O1nKFaFJFdPgcqBCIiIu0umr0PLf5rwMcCXMolLKg6TJUlIlLYkrWch3ELUByiYqfN+G5ZOb9QDYpIV2kEloiIyFYt/s0EO3kFuBdUUSIiEo1xm3OcDqwPUbEjzjGvoZqEalBEukoJLBEREYCJM2cAZwe/oP7LqiwREQEojfGw7/EZ4L0QFds5x1WpauZaQv1REek8nTBERKSwnbMowsSZs4CqUJQ3wiOqNBER2WrkVF7wW/kkjrfCVG5zXJYazOKlCfqpFkWkMzQHloiIFK4LfzIMv/h2jM+EpMRvs6Bqf1WciIhs751aRhQZ9wGHh6zoj/Uv4ot7T2GdalFEOqIRWCIiUnjOSfRh0oxy0sWvhSh5BdgfVHkiIpLJ6BgrWhwnO+OJkBX95KZWnlo+gxLVooh0RCOwRESkcHz92r3o503Cd5fgGBO68htHUF/1iipSRESyeWMuffu3shAYH65LHEuJcFrZ5byhWhSRTJTAEhGR/HZxYiBN/T8P7mzgy8AeIb1iv0Rd1ThVqIiI7IwtIpJKciPwnZAVfZXnc0ZJBS+pFkVke0UKgYiI5JWvX7sXfSLHgDsGxydpshMhDyaI9e16Va6IiHSGG08a+G6ylnlemkiYym5FbFANikgmSmCJSP74xtzB9N3yXwpEATEG4PwDMLc/cACwPzAGcGD51BV5k9Gb7lCFi4hIV0RjvKIoiEi+UAJLRPJH36YDMfeQAlFgrACehjf/hyQSrapsERERESlUWoVQREQk0Nwz1Ff9UnEQERERkUKmBJaIiEhwteJ5l4IzhUJERERECpkSWCIiIsH1I24p/7PCICIiIiKFTgksERGRIHI8zYbRP1EgRERERESUwBIREQmiRjw7l8Xj0wqFiIiIiIgSWCIiIkGzETiTm6clFQoRERERkTZFCoGIiEhgNOO8c6ireFmhEBERERH5kEZgiYiIBMMWjC9RV3G/QiEiIiIisi0lsERERHqd24DjLOqr7lMsRERERER2pEcIRUREelcDLn0mddP/olCIiIiIiGSmEVgiIiK950mM/1LySkRERESkY0pgiYiI5F4Lzq5m1KZTqK9aqXCIiIiIiHRMjxCKiIjk1l/xvYncWvGSQiEiIiIi0jkagSUiIpIbLTg3gw2bxil5JSIiIiLSNRqBJSIi0vPuAu971FX8XaEQEREREek6JbBERER6jHsGz13BLRVPKBYiIiIiIrtOCSwREZHuZjwPXEV95QMKhoiIiIjI7lMCS0REpHs047gL3HwWVD6scIiIiIiIdB8lsERERHZPEufm4zXP5+YrVykcIiIiIiLdTwksERGRrvsA5+7FZzGjN95PItGqkIiIiIiI9BwlsERERDqnEbP7cbaYUZsfUdJKRERERCR3lMASERHJbDPwFGYPY5GHubX8ZXCmsIiIiIiI5J4SWCIiIm0awf0J5z8D9hz+5hepT2z+8OUKRUhEREREpJcogSUiIoVmC/AP4O9gS3D8jVZ7hYXTlys0IiIiIiLB9P8BNlniW+g5XJsAAAAldEVYdGRhdGU6Y3JlYXRlADIwMTctMDctMTlUMDQ6MDY6MTcrMDA6MDDL6QuYAAAAJXRFWHRkYXRlOm1vZGlmeQAyMDE3LTA3LTE5VDA0OjA2OjE3KzAwOjAwurSzJAAAAABJRU5ErkJggg==;" vertex="1" parent="1">
          <mxGeometry x="713" y="70" width="116.5" height="60" as="geometry" />
        </mxCell>
        <mxCell id="v3yQSLaKoU9rgjY1iF_y-38" value="" style="shape=image;verticalLabelPosition=bottom;labelBackgroundColor=default;verticalAlign=top;aspect=fixed;imageAspect=0;image=data:image/png,iVBORw0KGgoAAAANSUhEUgAABLAAAAIiCAIAAABXPabqAABGGUlEQVR42uz9e3SV5YE3/O/puJ71rEVM07WyAsZYHqQYMsYwUUhSiTIGtQStGSsWhKp4GFOlZnmmOFgPMFKP+MOijRWFMiIotY0HoB7SQUlLgJoG00lijHkcMUIWv1Uad971vv+9q93zpj4eOWQn+7rvz+evHuO9r/twXd/reFTO6SUJAAAA4ucrigAAAEAgBAAAQCAEAABAIAQAAEAgBAAAQCAEAABAIAQAAEAgBAAAQCAEAABAIAQAAEAgBAAAQCAEAABAIAQAAEAgBAAAQCAEAABAIAQAAEAgBAAAQCAEAABAIAQAAEAgBAAAQCAEAABAIAQAAEAgBAAAQCAEAAAQCAEAABAIAQAAEAgBAAAQCAEAABAIAQAAEAgBAAAQCAEAABAIAQAAEAgBAAAQCAEAABAIAQAAEAgBAAAQCAEAABAIAQAAEAgBAAAQCAEAABAIAQAAEAgBAAAQCAEAABAIAQAAEAgBAAAQCAEAABAIAQAABEIAAAAEQgAAAARCAAAABEIAAAAEQgAAAARCAAAABEIAAAAEQgAAAARCAAAABEIAAAAEQgAAAARCAAAABEIAAAAEQgAAAARCAAAABEIAAAAEQgAAAARCAAAABEIAAAAEQgAAAARCAAAABEIAAAAEQgAAAARCAAAAgRAAAACBEAAAAIEQAAAAgRAAAACBEAAAAIEQAAAAgRAAAACBEAAAAIEQAAAAgRAAAACBEAAAAIEQAAAAgRAAAACBEAAAAIEQAAAAgRAAAACBEAAAAIEQAAAAgRAAAACBEAAAAIEQAACAz3CUIuCwvbLy5wFd7VkLLkn3PyI3O2fKxOJQCuRPH/Vvb9/tMQYAEAjhcEwunqQQPm7KxOJ1960M5Wp3tbUOQ0gGACCTmTIKAAAgEAIAACAQAgAAIBACAAAgEAIAACAQAgAAIBACAAAgEAIAACAQAgAAIBACAAAgEAIAACAQAgAAIBACAAAgEAIAACAQAgAAIBACAAAgEAIAACAQAgAAIBACAAAgEAIAACAQAgAAIBACAAAgEAIAACAQAgAACIQAAAAIhAAAAAiEAAAACIQAAAAIhAAAAAiEAAAACIQAAAAIhAAAAAiEAAAACIQAAAAIhAAAAAiEAAAACIQAAAAIhAAAAAiEAAAACIQAAAAIhAAAAAiEAAAACIQAAAAIhAAAAAiEAAAACIQAAAAIhAAAAAKhIgAAABAIAQAAEAgBAAAQCAEAABAIAQAAEAgBAAAQCAEAABAIAQAAEAgBAAAQCAEAABAIAQAAyBRHKQIYKjs72ubevCCUq/3TR/1uGQCAQAgMjf39Bzbv2KYcAAAIhSmjAAAAAiEAAAACIQAAAAIhAAAAAiEAAAACIQAAAAIhAAAAAiEAAAACIQAAAAIhAAAAAiEAAAACIQAAAAIhAAAAAiEAAAACIQAAAAIhAAAAAiEAAAACIQAAAAIhAAAAAiEAAAACIQAAAAIhAAAAn3SUIgAAgMirKCr52tHZB/+/f7f3/c497yk3gZAg3/OvZmUXTyg8pP9vW1fnn5P9Xn74vLrzpAkTs7OOPtS/0J/86K2ujtS/3tnRtr//gFKNhuqyyo//26mlU47kr72/t/e/PvzAc0LmJwSPaIYrLBh7fP5xqQqrYMyYY/OOSSQSk4snHeGfTQ4kO3q6E4lE+7td/clk6pPlSRAIGeGGyNePOfa4MfmpV/3oUVmF48YP7T8i9eZ/0Pfhnr17m1p2SolEuzE05HXnF9vV1ppIJJp3tyQSCe9XZjanBjNedlZW0fETUv/VxHHjs0ZlDduVdPZ0fzSQTH2HUz0LHhUOsqvi4/3C5SWlg/9t+p7h1OOa+tf9A8n27q5PdHb86aP+7e273aB0fK+mlk4pGj/h2LwxQ94aHJQ1KitVM366ftzV1vpB34f/+U7XW10dm3dsc1NC9Hc5p5cohcx/20tPOLF4QmF5SWl+3pj8vNEjchmpiNi8u6Wtq/PVXb/d33/gT1tbAyrGr02b5FnyKqUqzlQTfwTfps9Liak69fU3d2g2pVtuds6UicWpRvNg5Et3R8DQPiqp3jo99PH08Z6sovETskdlZdoH7UubE4NjTYPTKGSJg8/8J02YWD7p5InjvpGBN72zp7ujp+t3f3jzP36/XQeWQMiRvu1TS6eUl5QOc4f0Ib3w6euIEggZqjbTpBOKTvzGCUXHT8jYV+kLGv3Nu1tefP014XBIOgJSTefyktJ0TKkYWb19+zp63mlufVNXQoQ7LwYf4ICC32F/+gazYlPLTkFxsDo7/eSy8kknV5VPDevrtLOt5Xd/ePMXv/m1riuBkIN92889fXp5SWkovdRhGYZAWFgw9uJzvhNKgby/t7e+YUP0Wk5nTj711NJTio6fEJn3KDmQfK15mwr14D+k/+uYguIJhakJwHH7nCYHkjvaWptb32zY+oq++XC7MDJhWlCmPdiDy1hSWx7EJCXOqZp5aukp0ytOi8Bj0NnT/dwrm3yaBEI+922fcdq06eWVYQ1fCISfVl1Wue6+laEUyK621rMWXBKNxtM/nVLxzX88eUpxaeRbTg2NW7a8sXV94yZv9GAXwJSJxVNLp8Qz/n2x3r59r21/Y92mBsOGoTzGmTwtKDOf8N6+vc27W1LLFKMUEavLKmdXfzuqLUPJUCBEDhQIBcIhe4NOLT2l7KTSiE3/O8hm0C9f3bz2pediWJsaPDnsZLhyw881vzIqBKamM8TzIzYMEbH17fbgukJS84zOP7M6Jl+2xuaml5u2Rm+ykkDIl6soKpk7s+b86TPkQIFQIDyMyrJm2lnBLaJIn4bGLctWPRLtVr7BkyHU2dP95C83mHs8gqrLKqtPO0MIHM5nvqOnK7UBZibvwDSnauaFM86NZ9WWHEiuadgYzy5OgTB2crNzLjjjW5edP1sdIBAKhIcqtZj+O2fN9PrEJBam9tD7h29MiMM0YM2vmDQAzp46rax4kh6NkZXagam9uytzduitrZld970rfOhi0sUpEMZXagLApTWzVAMCoUB4GO9OfCbPHKG1z2+862cPBzryk5o+l5oIah2g5ldkav+aaWfpyVIJft5H77qLLtM4/Mz78uCax2wtO8wcTJ/eymDRFdfUVM1QFKAVlW4Xnzfr/Okzbr7/30LZcmZwN6CJ4ya41yOipmpGTdUMsXDIG/qXf3uWL1jme3DNY6JgBppcPGndfSt3tbX+YNltvksCoSgIsVNbM/vsqdOsDzxsWaOyHr192YUzzq1demtmDhXGakvYgGLh9PLKNQ0bH3r6SWsLfcFiorOne0TGoGprZi+urRMFDyYWbn/qed1VAqEoCHFhp6WhVVU+tWX9SxfeeHWG7LAnBAbRlbBg7vzzz6y+6b67zNQ6jCd8wexLfMHC8uQvh3tny+qyytuvucG48SEZ7K5aXL9caaSVNYRDJjUHYMHc+YoiM1lD+AmZsIawtmb2rLPPsWYsTX744N0ju533LfOuvPSfvysEhqWxuSljR5gzjS9YoHr79p144dnD2WVwd91CQ8dHeMt0V6WVEcIhqxXMAYCDrx3ttDQMfnzDrd/8x5Pn37lwpC7grFNPlwaDU1U+deuqZ7S9vkBqlaDOjnCt+PdVw/bPumXeldfOu0xld4Ty80avu29l0HunCYQRV1FUsuQHN+kghINRXVY5u/rb5lQPm5qqGasTiRHMhITb9lq5brVpWp+OgrYDCV1v377hmTpRWDD2J4uWaB8OoYvPmzW94jTdVQJhxllae705onAwzK2SCQnLgrnzi8ZPMH10sHFvg4BoWPOrZ4anyjNxLB0GhwrrHliiNATCkVdRVPLQwjssDoYvVV1Wef/NPzK3amQz4YpkUvXJoaoqn/riiifOrbs8zpkwNzvnR/9y7cXnzfI8REByIPnECxvT/cDUL77bisG0uvi8WWUnlV66+HobkA6VryiCw3DLvCs3/3StNAgHY2rpFGkwE6rP2prZyoFDVThufMv6lyqKSuIZBZfWXt+y/iVpMDLWNGxMa+9GRVHJiyuekAaH59P06mPr5lTNVBQC4chUD6+s/Pmiq65VFEBYfnzDrfFs1nOEskZlPfvAo3F7eGprZresf2nB3Plm/UVGciD50NNPpvWZefaBR40WDOen6dHbl90y70pFIRAOq4qikpb1L1kEBQRq1V3352bnKAdkwi9QXVa5ffVzP77hVlEwYtI6PLi09nrPzIhYdNW1q2+/RzkIhMOktmb25p+u9aoD4crPG/2jfzHBAZnws+Vm56y+/Z519600yBNJa196Lk1/efXt99hicATVVM14ZeXPdXcKhGm3+vZ7fnzDrcoBCN3F582qLqtUDhxeJnxo4R1RbXXNqZrZsv4l+4hGVUPjlnRsQJKbnbN99XMemxE3uXjSiyuekAkFwnRJLRr0qgORcfs1NygEDk/huPEvrngiehX9L+595NHbl5kEFGHLVj2SjifnxRVPGE/OqK+TTCgQJtL0qls0CESs1rTjKEfy/ERpxU5qYNC2kNGWjuFBaVAmFAhjIbV3sFcdiJ66712hEDhsNVUzItCnkFoxaGAwDoZ8eFAalAkFwrikQXsHA1GVnzfaICFHYnFtXdAbzKT6fK0HiYPG5qahHR6UBmVCgTBGaVCXIRBhl50vEHL4UhvMBHrxzouLlcc3rpMGZUIEQmkQ4DPqS+fUc4SP0NLa64O77BU33ua8uPjY1da6ecc2aTCeH6j7r1+kHATCw3p6CsZKg0BMzJ1ZoxA4EpfWzCosGBvK1aa2Db/4vFluXHw8uOaxIfxr91+/SBoMSE3VjBU33qYcBMJDrirWLF0uDQIxMb3iNIXAkcgalXV33cIgLrWwYKxtw+NmaIcHV9x4m0Wnwbn4vFkWzAuEh5YGTQMAYiU/b7RZoxyhqvKp1WWVGX6RFUUlrz62ThUfNxtffmmo/lRtzWxjy4EKfQcsgXBYmQYAxNDpJ5cpBI7QDZdeleFp0GKQGOrt21ffsGGoHqHFtXWKNFBZo7JW3XW/DWYEwi9nGgAQT2ederpC4AhNLp6UsYOEtTWzN/90rTQYx6bdv68akr+Tm52z6q77PUJBy88bXb/4buUgEH5JbWEaABBPE82MYChk5iBhbc3sH99wq7sTQ0M4PFi/+O78vNGKNHRV5VNvmXelchAIP5tpAECcZY3KsriCIze5eFKmbTcqDcbZUA0P3jLvyqryqcozGq6dd1lAuyILhMMnNzvnoYV3mAYAxNmkE4oUAkduwexLMudi5lTNlAZjKzmQ/MVvfn3kf6ewYOy18y5TnpGRNSrrJ4uWKAeB8JNsJANw3Jh8hcCRO396pizFrygque+mf3VHYmtNw8b9/QeO/O/8ZNESYwYRM7l4komjAuH/YU7VTBvJAJSXlCoEjlzWqKw5VTMzIQ3aUzTOkgPJh55+8sj/zi3zrnRqZSSZOCoQ/k1udo7uQ4C/br82RiEwJGacNm3EK3dpMOaGZHjQZNEIyxqVdXfdQuUgECZSe0apMABS+3ErBIbE9PLKkU2DL654QuUeZ0M1PGiyaLRVlU/N2JNyBMLhM6dqpj2jAAbZaJQhkTUqawSbWfYF4LXmbUc+PDinaqbJopF3+zU3KIRYB0KTRQE+4WtHZysEhsTU0ikj8s+9Zd6V9gVg2apHjvyP3Hb1dUoy8grHja+tma0c4hsIf/Qv15oGAPBxXz/mWIXAkBiRPYqqyyoXXXWtwo+5hsYtnXveO8I/srT2erPoY6Lue1fkZucohzgGwoqikovPm+WuA3yckycYKsM/1y43O+exO+5R8hz58GBuds6lNVqJcZGfN/q6i2wd9N+OitWvXfKDm9xy4ON2tbUmEon2d7v6k8n+5EdvdXWk/vPNO7YdzP89tWJqaumUgjFjJo6bYAkTVJdVHuTrMyTsEsdQDQ9ed9FlnqVYubRm1kNPPzkkp1YKhMGwShhirrdvX2/f3ubdLe/v7f2vDz/Y2dF25NVAquE72PwtLBhbM+2sS//5u2FNOioaP8HjwVCZWjpl2ALhLfOutEsciURiw+YXjvAvxGd4MFUVprpBP/3fZmdlFR0/IT9vTBymzmaNyrr827Pufepxb1CMAmGcVwnvamvtH0i2d3clEommlp1f/D/+alZ28YTCVBsxe1SWFE24Onu6O3q6/vOdrre6Ooanhdq55717n3r83qcen1M187arrwulQs3WKX7oj9ZHA8lPDyx/gZMmTMzOOjoO39Vh619wWNyg5ECyo6c7kUh80Pfhnr17v/h/XF5SGrEncFdb65F/4aO9x0RnT/erv3ujqWXnwfeE5mbnTJlYXH3aGWUnlUZ48sul//xdgTBGgbC2ZnasVgnvamtt3t3S1tXZ8vYfD2cSReOmj/+7iqKSSScUnfiNE6L9USBKD39Ty87hnLT2aesbN72667f3X7/IzocR0Nu3r6PnnfburqaWne/2vn94M9M+8UBWFJWcfnJZ+aSTozfAdWzemOH5B8X2sLjBB7Ktq/N/f7hne/vuQ/q/L629PmKB8ME1jx3hX8jNzjl/+oxIPiprfvVMw9ZXDuOrtb//wOYd21IfrsKCsQtmX3L+9BnRe+Py80bX1syub9ggEMZC3feuiPxvTA4kX2vetuWNra/u+u3Qzofe3r57sL7Jzc654IxvffMfT55eXmmqPRkVAl98/bVDbRil1f7+A/PvXLg6kZAJQ9TZ073jrZbftvz+MLvVDvK7+tRfPqqXf3tWcNOMv8Dw9BveMu/KWE1gGXwgh7yKz1gNjVv27N2bmsGYWul97OhjJo77xifelCEZHoze6sFdba0PrnlsqDpGO/e8V/fAkroHltTWzK773hURG2Kp+94VAmEsAmHkhwcbm5ue3fLi+v9zWC99bdz6hg2pN+dPW1u1GhkpvX37Xtv+xm9bfj88T/5hu2n5sinFpRn+CTIz/BMP1XC2uff3H0hNM45SS6uiqCStvTO52TkxmSza2Nz0ctPW//j99nT0SmS4DZtf+Mw8k5rKOLiV16pfrD/yxylKqwc7e7rvfOTBNM2RSbUAl9Zef2nNrMhE6Py80cO8FZZAOGLRP5K/KzUkuGzVIzGsJ4itzp7u517Z9PqbOzJqMPCLm/sr/n3Vj2+41b3LcFffuWhkOxfqGzb84je//tG/XBuB45G+dnR2Wv/+/dcvivYUlc6e7id/+Zfnwf6Hn/lRHZzKOCQuOONbkXmcVq5bvbh+ebr/KYvrl6996bmfLFoSmc7E2dXfFggjLqrDgw2NW25avkxVQaxy4OEthBhx9Q0bojfHJnr+nOzPhJZu3QNL/vjO24tr64JuoaZ1o9HqssqoTsPWzzsiojFs0NnTfd09dwxbV2nnnvfOWnDJ0trrF8ydH4HSq6makRvvRnX0A+Gss8+J2C/a1db6g2W3qS2IgyNZEJ9RXtv+RgSGfRi2HoTWt9uffeBR67Q/0w2XXhXJKLimYaMj0YZfdVllBHrrGpubapfeOvwPz+L65e/v7Q29Aysl5udPfCXy73mU1sYkB5JX37norAWXSINEW3Igufb5jdXfv/jEC8++96nHI/DAb37jN24rB297++6b7/+3cK+/vKQ0TX85kkcKr1y3unTOOYvrl0uDw2929bdD/wkNjVsuuOWakXp46hs2XHjj1cmBZOjF+J2zZsb5RTjKex6KXW2tFy2qU1sQbbvaWje+/FL09vva2dGW4VeYm53j85JR1jduKp5QGI3pWEMoYkcKNzY33briHp28I/jdC336cUPjlvl3LhzZa9jevvvCG68OfVJD4bjx6d4NK5N9xXsehLXPbzxrwSWaa0RVakiwYt55Zy24JJK7P2f+yztlYrHnMNMsrl/e+dfTxoOTn56jCKO0KUBv3765Ny+44JZrpMERdPm3Z0mDQ5UJr7pjYejPw9yZNbF9F77iPc98P3zw7roHlvhwE0m9fft++ODdpXPOqXtgSbQbRr19+9xuDtWdjzwYZiBMS2yLzJ7ha5/fOO2K747UroZtXZ3erJSgZwnuamvNkDSYsnnHth8+eHfQz8P0itMEwgi69J+/G4006LhMImlXW+vcmxeceOHZ9Q0b4jD63du3103nMNpYDY1blENkhgeTA8m5Ny+oe2DJCH70MmFD3YPx1az0Hl5SWDC2cNz4YCuUfRctqsu0q6pv2BD09yo/b3RFUYlAGCkVRSURqDmkQSKpoXFLanZozI/9gYOxYfMLIV52YcHYof2DERge7OzpLp1zju/eQSqeUJjWv18z7axwC+em++7KzI7Um5YvC3o6TGxnjUY2EEbgjkqDRDUKzr9zoWUzcJA279gW4krC4/OPG8K/FoGzARoat5xbd7m9ADJHuPNFV65bnbHdCvv7D9x0313hPhVlJ5UKhJES+jzgZY89LA0iCgKJROK5VzbFvASunDU39A/g/DsXSoOZI9z5or19+xbXL8/kK9y8Y9va5zeG+mCMGz/ksxsEwhET+nzRhsYtcT4ck4hpatkpCsIRVQpbX4l5272qfGroadBjnFHCnS8axPjbXT97ONyTCf/plAqBMCKCni/a2dN90/JlPtZExuYd20RBOKJ6Yc97wS3LGcIdQRbMvkQaZGiVTzo5xMve1dYaxBrU/f0H1jSEOkj4zX88WSCMiKDni153zx1mlQDwcTvbWsK64CHcEeT86aEeKdzZ0y0NZqZAx5xv+8n9oVzqQ08/Gegg4fTySoEwCgoLxoY7X3TlutXb23f7UgPwcb/7w5vx/OFzqmZmjcoK8cqTA8lz6y736GbmQxXiZTc0bgmoiRjuIGHWqKwYHj4RwUAY7rzwzF8oDMCI+K8PP4jnD79wxrmBXvlVd9hFJkOdWnpKiJcd3Ak04Q4STjqhSCAMXqDzwkNZKAzA8Ivn4XW52TmBTu3L5IMBgmnOlaTrAIAQjxbo7OkO7ona33/gl68FeU59DJcRRjAQBlp5hLJQGIAREe6ufYftgjO+FeJld/Z0m++TsXKzc0I8cOLJXwZ5FNnKDT8P8bInjpsgEIatuizUlaAPrnnMZxqAz9MR4PH0R+jsqdNCvOw7H3nQ45qxpkwsDu6akwPJX/zm1yGWduee9zoD/HAVjhufm50jEAZsaumUEC/b8CAAfFyg80UbGrdkeIUe8/ZGiA3F15q3hbse9blXNuk4EAiHW9H4IAd5V/1ivbofIqmiqKS6rLK6rPLoMHdKJHM0726J1e89c/KpIV72slWPeFYzWfqWJqbPlje2hlvgDVtfCfGyT5owMVbvxVER+z1lxZOCu+bevn3rGzf5RkOgCgvGHp9/3FezslMHrxWNn5A9KuvoUVkhLlOBzDHjtPDmizY0bunc8557l8kmhvZlTg4kg24lpmaNBlch/sM3JgiEATfLQjytaM2vnvGBhsyXm50zZWLx14859rgx+QVjxhybd0x+3phwTz2FDDelOLyRHMODGopDbkdba+jF/urv3gguEB6bd4xAGKrSE04M8bIDHUyHaKsuq0wN+qVG/CYHOPsAgm64B9fb0tjcZHgwwx2ff1xw1/xy09bQi/3F119bMHd+WNcct0o/UoEwNV8rLJ093eoPyITWZ+kJJ6bi38Rx3zDuByOrZtpZwV3zs1tedOOGUDrmdoa4o8x//H576Ldye/vu5EAyuLHZ3OyccPfyiXUgDHGhcKCbL0HoKopKJp1QdOI3Tig6foLRP8i4Cn1SYAdD2w5gyKUjPxSMGRPccxWNYYOOnu7gqtopE4vjsyVvpAJhft6Y4K7ZfFEYNtVllVNLp5SXlE4cNz7Lnp+QwSaO+0ZYF/za9jfctcwX3MKwnW0R2Vu4eXdLcIHw68ccG59XI2KBMLBZXpHp+IHMlJudc+bkU08tPaXspFJ7fkIoQlxAuG5TgxuX+YLLJP/5Tlc0Sr6pZWdwywiPG5MvEIanuqwyuGvWoQjpUFFUcu7p08tLSs0FhRAFt0Vcb9++7e273bgMl5udE9w1v9XVEY3C39nRFtw1BzfBWCD8i69mZQd3zX98520faBiqmv7MyafOOG3a9PJK00EhaMFtEReZeX3RNmVisRw1Uvb3HwhuX5lYnTxxlPpjBEVg5ygY8Rx4wRnfOnvqtKryqUoDoiG4LeK2vLHVXct8wY0c9Pbti9IulyHuKyMQhic7K7AxgeRA0gJCOGxzqmZeOONcORCiZ2JoK35f3fVbdy3zBTdy0Nu3N0rl3/5uV1iBMFbxNTqBsOj4CWFdcEdPt68zHKqKopK5M2vOnz7DvFCIpNzsnLDe7ogN40RYcCMH7e92Ran8+5NJD6FAyCc177bkAA5Bbc3sy86fbbNQiLbgFnp19LzjrgUhuJGDiCWotq7O4K45PmfTRycQBjew25/8yNcZDuZzfN1Fl11aM8uQIMTBSRMmhnXB7d1d7hoS1Jf6c7I/uGuOz9n0RghHTGS2EoY0KSwYu+iKa+waCrGSnXV0WBfc1LLTXQtCft4YCWoERWbHVIEwc4V4tsy7ve97/uALomBN1QxFAXET3BajIdbmnT3dMZx+n583OqwL/tNHkQqEltoKhGkX4tkythiFTzNBFFCbp9tHA7b3CMD29t0KgeHxFUUAZIjamtkt619aMHe+NAixFdaOAL19+9yy9KkoKlEIUdIZ2gb7Xz/m2JjcGmsIvRKQEbX+kh/c5MhaICwROyku03zt6GzZMkqCG5o+bky+QIhXAobD0trrF8ydrxwArXYyP1sOD4PPCISHLLhdqoFU4++hhXc4WhAItNUesaPDyaRAaPAZgfAQBbdLNXDLvCsXXXWtcgDCFbGjwwGBEGA45Gbn3H/9IqdKAJ9gvg+AQAhEXGHB2DVLl5smCnya+T4AAiEQZRVFJc8+8KhTJQAAMoRzCAFpEABAIASQBgEABEIAaRAYZuUlpQoBQCAEpEEAgJHUn/xIIAQ4UrnZOdIgAByS/LwxCmHEvdXVIRCSRkdrHxMPL654QhoEgEMMhKMVAgLhoWnr6gzrgh3CRhysvv0ejzoQYdlZOrzgYBkOEQjT68/JfvcSMsqcqpk1VTOUAxBhRcdPUAhwkPQRC4R8UkVRiUIgsh/9grH33fSvygEgA/UPJBWChiJfamdHm0BIen3t6GyFQFTdXbfQ0kEg8gLd+aO9uytud+rd3vc1FEdWbnZOcNe8v/+AQEh6nTRhokIgkuZUzawqn6ocgBgEQjt/hKFzz3vBXfNXsyIVCKdMLPYcCoTptXnHtuCuuWDMMZ4/Ium2q69TCMBhaN7dEtw1FxaMdeNIh+IJhVH6OcHl286eboGQtLMSnUhaWnu9LvPPkxxIxqqCgTg4Pv84hUA6RGwP2+Dy7UdxWmp7lPdtpEy01RKRk5udc2nNLOWwq611cKyjravzz8n+d3vfT01Yqi6rXHffSkUEkTG1dEqI05SCcNKEiUNYtrvaWicXTwro50ds5CC4fPtB34cCYZAtsLDe86xRWYUFY0Oc1A6f57qLLovVXjLJgWRHT/cHfR/u2bs3Ffy0CyFuCsaMUQhpixBHx/nnB7plUWTy7Z69ewVChsM/nVIhEBIl559ZHe0fuKut9YO+D//zna63ujp2drTFZ/8xGB79yY+Cu+aJ4ywACcMHfR9OTkwKKhCOzs3OiUxFE9zMuBA/RwJhov3drrBGCBOJxDf/8eT6hg2+0URDbc3s6K0e7O3bt7Ot5T/f6Xr9zR3b23e7y5BWb3V1BHfNhePGR6nVHmEhDvhMmVgcjYknhQVjg5tAFOLnSCBM9CfDW/o5pbjUB5rImHX2OVEKgb/7w5v/8fvtxvCBL3Xm5FPXN25SDhnfUAxvwGdoV1GOoNITTgzumkM8u1IgTLR1dQZ3zfl5oyuKSgw7EAGFBWODG6L/dA58bfsb6zY1eCVhpPzpo/4QL/vU0lMEwswX4oDPP3wjIhOSQzxCI1Y9wtEJhH9OBlmLzJ1Zo/VJBNRMOyvQK08OJH/52hY5EDJBoK/h9IrT3LvMF+KAT2SmkpWXBPZDUruFx0d0ziEMdEhdLUI0fOesmcFdc2/fvh8+ePdxM6fWPbBEGgQOW37e6LCOp29q2RnEdQ7tQQUhDvgE92h9nuDmEPXH6RDCqB1Mnwzw5qVmjapNCVphwdjCoHYPS0XBEy88265OkGkC7ZgPd5ZEJhvygwo6e7qDK4R/OqUi9PtYXVYZ3DW3d3cJhKHqCPA9TyQS3//uPB99ghZWdbVy3eppV3xXFASG0KX//F2FkPk+6Atvo9Fv/uPJwQfC084I7ppDGUUXCD9D8+6WEC97enllbnaOzzThOnvqtCCus7dvX/X3L15cv9wG8aAqH1rm+wQhxGGf6eWVoRd72UnhrYTc2dEmEIbq/b29IV521qis6y66zGeagL/1IawN6OzpnnbFd60VBFV5mpjvk/lC3JE+a1TWnKqZ4ZZ5cItKUt3Hces4jlQgbH27PdArv7RmlkFCwv3WZ/5ps5093efWXW5gEDLff334QaBXXlM1Q1We4Vre/mOIlz3jtGnhlnmIy2s7et6J26sRqUAYbt+/QULClfmnzfb27ZMGIRRBz9RSlWe4zj3vhbgBYdCzRkPchLy59U2BMGzhHhtikJBAZf5ps1f86CZpEEKxv/9Ab98+VTlpEuIGhFmjsmprZodY2hVFJcHNF00kEm91dQiEYQt0MXrqbb//+kW+1AQnw0+bXfv8RusGISy9AW4FqSrXUEyrWWefE+JlB7qwNtCzzQXCvwl6l9iaqhkhHtVCzB2dwQsIkwPJu372sHsEmuzDWZXbbjSThbivTOpg9+Ceq9zsnJqqGcEVdbiTDQXCvwl9l9j7b/6R2SaEJZNng7zWvM1kUQhO6CeALfnBTW7ikMjPGzPkf/PVXb8NtDSCG20LdEntK799XSAM3v7+A0En+/y80WabEJAM77/Y8sZW9wiCE3rf7uTiSUtrr3cfh6RRlI6GYmeAywhTg8+FBWMDah5cWjMrxHJ+/c0dAmEUBD3VJPXC3zLvStUAQZgysTiTL2994yb3CIITbpN90IK5800czVg73gq1oXh33cJQLvW6iy7L/COpPi05kIznvgMRDIQvvv5a6D9h0VXXBn0IKWSCeC4DgGjo6OkK/Sesuut+a0Ay029bfh/olVeVTw1is4nCgrGBDg++1rwtni9FBAPh9vbdIR4y8wn33fSvOhfJfF8/5tiMvbYP+j50gyBQv/tD8OeA5eeNfnHFEzJhBgp68sjt19yQ+Rd5d93CEIcH47zS5CuR/FURyPdZo7KefeBRmZAMd9yY/Iy9tj1797pBEKhf/ObXEfgVhePG1y++293MQI3NTeE+VBm+QnVO1cyq8qk6CwRC+X4oM6GDKACImwgsI0ypKp+6+vZ7jBNmmpebAm4oZvIK1dzsnPtu+lfdBAJhpuT7CMwaTWXCdfetrK2Z7dsNQKyEu/PHJ9RUzTB39LClaV/N0IegH1p4R2Y+UU8vWxHoZNHQuwkEws8WpVWhP77hVv2LAMTKuk0N0Uk148ZvXfWMZSCH4fj849LxZ0Mfgs7M2chLa6+fXDwp0CJNDiTrGzYIhFHz02eeitLPqamasXXVM6aPAhAT29t39/bti8zPyc8b/ewDjzpWKnM8+cuwW/+p2ciZcz21NbMXzJ0fbnnGdn/RiAfCiFUkqbpk3X0rV9x4m6FCOBhF4ycoBAjaa9vfiNLPyRqVteiqa19Z+fOAjhePsAhsXFRTNSNDMmFtzewf33Br0IW5YfMLAmE0rfnVM9H7URefN6tl/Uu6GOFLHZs3RiFA0KI0a3TQ5OJJ2596fmnt9bp3R9b+/gMR2EQkEzJhBNJgb9++zTuMEEbUEy9sjOTvSnUx/vHZl2+Zd6XqBD5P4bjxXhAIWvQm+wxaMHd+y/qXRiQWVhSVVJ92hqcrkUg8u+XFCPyKkc2EEUiDUR1DEgj/2/7+Aw2NW6L66/LzRi+66tqW9S+tvv0e69QzxEkTJiqEjHLBGd9SCBC0X766Oao/LWtU1oK587te2Lr69nvmVM1M6z8rNztnTtXMFTfe9sdnX97807UXnzfLoxWlTelrqmZsX/3cME9Fzs3OWX37PRFIgxEeQxII/1vEtpb5zOqkpmrG5p+u/eOzL6+48TbJcGRlZx2tEDLKrLPPUQgQtLUvPRf531hTNePR25e9v6kplQyHasywsGBsKgRuX/1c1wtbH7192cXnzcrPG+2h+rg1DRFJAoXjxr/62LphW1JUXVb54oonaqpmRKDoGhq37O8/EPMX4aho/7zt7bt3tbWGuwfuwcvPG33xebMuPm9WciC5o621ufXNt7o60jQfuqKo5GtHZ08tnaIioT/5USZf3uTiSdVllTFfGABB69zzXkzq8VQPb6qF3dnT3dHTtWfv3qaWnX/6qH97++6DiX/H5x/39WOOPW5MfnlJaX7eGNnvIHscgt4b8xOP0KKrrj3r1NNv+8n9B/PMHJ7c7Jwf/cu1URpkXrbqES/CUZH/hQ+ueWzdfSvjc0ezRmVVlU+tKp+a+re9fft6+/Y2725JJBJNLTtT/+HOjrbP6wvJzc6ZMrF48N+mUl92VlbR8RNSzWvvDB/3VldHhl/h7dfcIBBC0Da+/FLcap/CceMLx41PLTUc/A9TFfon/pdHj8pK/S857B6HhsYt0RjpSplcPGnzT9c2NG756TNPDW0szM3Oue6iyy6tmRXu0fOftquttXPPe16E6AfCzTu2xaRz8TPl543Ozxud+vmR6QODQ2pXrb79nvl3LlQUEKj6hg1137vCeFeqQvc8DLkNm1+IUiBMSY0272pr3fjyS7/4za+PcEpkdVnl7OpvR6+UUuNGXoFYBMIYDhLCsPnTR/1B1IurEwmZEMK15lfPLLrqWuVAOkR45GBy8aTJxZN+fMOtjc1Nza1vvv7mjoMfMywsGPtPp1R88x9PnlJcGtWeiF1treYQxSgQxnyQENInfasU0pEJb1q+zMJxCNETL2y8dt5lUZqoRkaJ/MhBajHRor/+686e7o8GkqnFRCnv7+09bkx+6l8XjBlzbN4xE8eNj8PrZngwXoHQICFQUzVjSnHpkkcfWt+4SWlAWPb3H1jTsNHCB9IkViMHqUWnhkkMD37cV+Lzqkf4TEIyRHZWVjw/qaFcan7e6EdvX/bKyp/X1swezn9udVnlnKqZS2uv/8W9j9x+zQ3eFDgMDz39ZDSOjCMzGSxyx+PsqPj81GWrHpleXmnCCemT2os1bvpDa6Kl1lQsrq3b0db6ctPW1rfbh2ria2rb969mZRdPKEzNurHzOwwVg4SkleVFsdLY3GR4MKaBsHPPe+oSGHLt3V2Dx5wE5BMHtOxqa+0fSLZ3dyUSibauzj8nP3eznI+fwFk0fkL2X/uYtCFgGDz09JMR2/KejGJ5UXzcuuIehRDTQJhIJBbXLz/zm6c5sQeGUFPLzgj0s6QSXYjJFuLDICFplVpeFMnDFfi4letWO3vwE74Stx983T13uOswhHZ2tCkEYHgsrl/e27dPOZAmy1Y9YqlqtPX27Xvo6SeVQ9wD4fb23SvXrXbjYajs7z+gfQYMm5vuu0shkCap5UXKIcKWPPqQA6gEwkSqf7Gzp9u9Z8jl542J5w/f2dbi7gPDY/OObY3NTcohLvXLsE9CMQodYY3NTY6eEgj/5tLF15sSQBoCYUz3k/zdH95094Fhc+uKe1TiMTEigzlGoSMpOZCsXXqrchAI/6Zzz3s33/9vbj9x1v5u11D9qf/4/XblCQxnJf7wU1YBkS6bd2xb+7yJo1Fz8/3/ZrKoQPhJ6xs3eduJs/5kcggbZ6ZhA8Pp3qce39XWqhxIk7t+9rCJo1HS0LjFZFGB8LPVPbBEdQJD4rlXfGeBYfWDZbeZOEqa7O8/cMWPblIO0dDZ033T8mXKQSD8XBctqjOywZCoLquM889v2PqKZwAY1kae1R+k0/b23csee1g5hC45kLzunjtMFhUIv8j+/gPX3XOHLkY48paZvhVgmFn9QVrd+9TjtrQN3dL6FdvbdysHgfBLbG/ffeGNV8uEcISe/OUGhQAMs7oHluiNIn1ql95qMWG41j6/sb5B40QglAkZLl/Nyo55CdQ3bPASAcPv3LrLfXxIk9RiQg9YiHa1tdY9sEQ5CIQyIcOneEKhQljTYO4WMAJNdjU4aW0iWq0anM6e7osW1SkHgVAmhC/S1LJzyP/mQ08/6Q0CNNmJmPWNm3744N3KIRTJgeSli6+3kYxAKBMy3LKzshTC/v4DBgkBTXaip75hQ0PjFuUQRBq88MarO/e8pygEQpmQ4VZ0/ASFYJAQGNkmu0xI+sy/c6FMGEQatK2oQDg0mbB0zjl2LYPDsL//wNL6FcoBkAmRCZEGBcKwG7Xn1l3u8BkOXn7eGIUw2CDb1daqHACZEJkQaVAgDDsTXnDLNSvXrVYUHFwgHB3WBe/saEvfH//BsttMHAVkQmRCpEGBMHiL65fPvXmBpi3Rk9bdtzr3vGfHP2DEM6HqO2iZPNlEJpQGBcJ42bxjW+mcc0yB4wtUl1UqhE9Y37hJZQmMbCa0SxxpzYTmkY24zp7u0jnnSIMC4XDY33/grAWXLHvsYfUKHFJlaXMmYARtb9995lVzfYhIk8X1y01OHkGNzU3n1l3uvEGBcFjd+9TjZ14111Ahnza1dEpYF9zbt294/kHn1l2uKQaMoM49751bd7kJC6RJfcOG6u9fbMBg+K19fuMFt1wjDQqEI1OvnLXgEssSCF1v397h+QelNuyVCYERtL//wPw7F6q7SRMD0cMsOZC8+s5FdQ8sURQC4Uiqb9hQOuectc9vVBSklJeUKgSZEMjwuvvCG6/2LSIdOve8VzH/O1qGw1HUPd0X3nj1+sZNikIgzIg2bt0DSyrmnWcGKYlE4uhRWWFdcP/wdpPLhEAm2N6+u2L+d2wEQprUPbDk6jsXGYhOn7XPb6yY/x1byAiEmSU1g3TuzQvEwpgrHDc+rAtu7+4a5n9iKhNaxgOMuMX1y6u/f7EuqszXvLsluGte37jJ1vTp0Nu3b+7NC0wTFQgz1+Yd28TCWKfBgrEK4SAzoU26gUyQGiq0eThpquxsTT+01j6/cdoV3928Y5uiEAjFQjLU8fnHBXfN/cmPRuofvbh++dybFwzbNqcAn+fepx63IwBpfboam5sUxZHo7OlODQzaTVQgDC8WVsw7r6Fxi56hmAjuzIlEIvFWV8fIvibTrviuRhgw4gZ3BDChnXQ8XRfcco0+0MOTHEgue+zhivnfMTAoEIaqc8978+9cWDrnnGWPPewrEHlF4ycohMNrhM29eYFlPECG1NpiYaYZwcksQ2jzjm0nXni2GaSHZOW61aVzzrn3qccVhUAYhSbvvU89fuKFZ1d//2IDhhF2bN6Y4K753d73M6SarJj/nR8+eLd+EyBzYuHa5zdGuMre1dYaygSNkZ3MMrRSM0hXrlutNfjFGhq3VMw7b3H9cnNEh9NRimAYbG/fvf3O3YlEYk7VzBmnTZteXpkV2ikFwent29fbt7d5d0tbV+f//nBPWncoDm6L0VS7J3Mupr5hQ33Dhtqa2XXfuyI/b7SnFxjZz2PdA0vu+tnDF5zxrcvOnx3iF/4LouCDax7bvGNbdVnlxefNcq+H2f7+A4vrlz/09JPXXXTZpTWzNAU/HQWXrXoko9onAiFpsb5xU+okzTlVM08tPWV6xWmav0NYz7W/27Vn74dvdXXs7Ggbto6l6rLK4MoqM7snB2PhrLPPmVw8ySMNjGzbPfVRqigqmTuz5vzpM8JtvicHkr98bcvKDT/X1M60WHj+mdXagZ5PgVAyTFQUlZx+cln5pJOryqcqlkOKfx/0fbhn796mlp3v9r4/gh+RkyZMDK70OjJ42d5gC+z7351nLD3dL1H/QLK9u+v9vb3/9eEHOzvalAl82vb23dvbd9c9sCTEOT6NzU3Pbnkx1d4Iseb600f90Y6Fi+uXx7kbtLdv34p/X/WL3/za7FCBUE3zl5om8VQiNdY0tXRK0fgJZcWTtIM//r1ITf7sT340zKN/B6N80snuUVreC7Oshy74DZ7v3NSyM7V0U7HAofp4T+65p08/85unZeZs0uRAckdb68tNW7+gnZ2ddXQodUHkn6tUN2hhwdgFsy8JeiD6kB7R15q3bdj8gspIIOQzbN6xbfDdqCgqmXRC0YnfOKHo+Anx6Tfq7On+aCA52HL900f9mV8ZlAV4d1IlHFYLLDXLuuyk0iit5xnydyc1bJ7qOhH8IH0pZXv77sX1y3Ozc86cfGrxhMLyktIRr6l3tbU2725patnpxQ/yG/7XlauBDkQfvMbmpi/uqkAg5DPqm8F/W1gw9vj846aWTikYM+bYvGOCjoipEb9PDFlk2rjfQaooKjFyNczJsLBg7D+dUnHiN06IWzhMRb7UJM9EIpGa55nhnSYbX34poN6HDNl69wukvpahCOtqD8/+/gN/+S79fxMyUz25x43JLy8pzc8bk9a1YcmBZEdPd/u7XX985+3Wt9vjMJIWt8ouMsnwYIasGXF/l3N6iVIIVHVZ5VezsosnFCYSifKS0kQike4a6JDy3idaruGmvi9wy7wrF111bXCXPffmBZHpQq4uqzxpwsSCMccUHT9h4rjxgVacqbCXSCRSQ3wff2tGdokscCRSnblfP+bY48bkD9bUKV/asZua7J3S/m5XfzI5hIP/S2uvXzB3foaX3q621rMWXOIpSk1RzoRR6EOt13a81bL5jd8Ysg6CEcKA/fc79qnF4qnPx9eOzk7966mlUz7+X6XGGA/pH5Sqij7xH3689zeIuZ3pEOgCwigt0//4ROvM6SgZ7BZJ+fgo2eCLE9u3BuKjc897mdmhk51lbkswPj5lLLXZRHlJaWZ2gKb2e/9ty+9f3fVbg4FhMUIIR5CstraGeNlfmxbTQx1ys3OmTCwe/LeDufHgtXV1/jnZ/5m51OsAhOKVlT/P/OEmI4RfrKKo5H8dU5BawjoiE8TMW44SI4RwmOZUzQzxsnv79sX2lu3vP/DJ5PZZA+wAjLiAViCPiP8eOfxYLZaaHZaaFzaEE2Q+sfVDqmNUN6hACPzFjNOmhRkI97p3AHF2tO3QIhoRv2DGSnVZ5SH9tejt+4BACENvenlliJetzxUg5oLYovn9vb3u1BAypscX+IoigMMwp2pmoBtaqmIB4iw3OyeI60zttAwIhJChAp0vmkgkWt9ud/sAYuvje2tlsihtiA0CIURNbnZOoPNFB9cYABBPXz/mWLUVIBDCEbngjG+FewC62wcQZ6lT8gEEQjh8l50/O9Ar7+jpcvsA4ix1IEGG29XW6k6BQAgZqrqsMoj92T7T7/7wpjsIEGf5eWMUAiAQwuGbXf3tcC/ejjIAcVZYMPbITyofBk5IAoEQMrcqramaEejFJweS1ugDxFnpCScGcZ39yY/cLBAIIRMtuuKacC++w44yAPF2aukpQVznW10dbhYIhJBxgh4eNAMHgLKTSoO4zp0dbW4WCISQcYIeHkwkEi++/pqbCBBbhQVjQ9kUbX//AfcLBELIuHo06OFBCwgBYq5m2llBXKczJ0AghEwU+vDgDvUrQLyVTzo5iOtsf9eRuSAQQoapLqsMengwkUi83LTVfQSIrcKCsVXlU4O41D17P3S/QCCEzHL7NTeE/hP+4/fb3UeA2AplvqgtRkEghIxzy7wrQ1mF/3k6e7o797znVgLE1qX//N1QLnXzjm3uFwiEkCkKC8ZeO++y0H/Fc69scisBYmtO1cz8vNFBXGqnI3NBIISM8pNFS7JGZYX+Kxq2vuJWAsTWFRfMCeVSO3rsKAMCIWSMW+ZdObl4Uui/wnxRgDirLqsMqC77z3cEQhAIITNUFJVEYLKo+aIAMXfDpVcFdLWvv7nDLQOBEEZebnbOQwvviMBk0UQi8cQLG91QgHiqrZkd0PBgciC5vX23uwYCIYy8+sV3h76zaEpjc9P+/gNuKEAM5WbnLK6tC+iCd7S1umsgEMLIW3HjbaGc3vulnt3yohsKEE/1i+8Oa6pLc+ub7hoIhDDCamtmX3zerGj8lt6+fesbLSAEiGl1FlznpgWEIBDCyFefP77h1sj8nDW/esY9BQKVm52Tm52jHA5PRVFJWJNFU52YFhCCQAgjXH1GKQ0mB5K2kwHCNWViccv6l5bWXi8WHkaWDnFftJ1tLe4dCIQwkmnw2QcejdIv+uVrW2wnAwQta1TWgrnzxcJDTYMvrngixH3Rtryx1e0DgRBGxpyqmc8+8Gg0DpkYtHLDz91ZIEqxcMWNtxUWjFUgkUyDiUTConcQCGFk1NbMfvT2ZRFLgw2NWzr3vOfmAlGKhRefN2v7U8+vvv2eiqISBRKxNNjY3OQOgkAII+CWeVdGad3goGWrHnFzgUiqqZqx+adrX1n589qa2UpjUEVRSbhpMJFIvNxkviiMmKMUAbG1+vZ7aqpmRO93GR4EIm9y8aTJxZPqvnfFL1/dvPal52L+0ZtTNfO+m/413KkuyYHkL37za081CIQwfIKeV/Ol1arhQSAm8vNGL5g7f8Hc+Y3NTS83ba1v2BDD6uz+6xeF3rn5WvM2u6DBCDJllNipKCppWf9SJNNgIpFY07DR8CAQN1XlU398w63vb2qK1QrDOVUzt656JgJTXTZsfsEzDCPICCHxcsu8KxdddW1Uf11yIPnQ00+6y0A8ZY3KqqmaUVM1o7dv32vb31i3qSGqB51Xl1XecOlVk4snReC39Pbt27xjm6cXBEJIu9zsnKeXrYhG9fl51jRsNOsGID9v9MXnzbr4vFm9fft2trVseWNrZI40iFIU/O+a61fPeGJhZP1dzun2bib6Ql9wfzB6+/adeOHZ7jUQmeSz7r6VQ/gHG5ubmlvffP3NHSEOG+Zm51xwxrcuO392xNY7JAeSpXPO0ZUJI8sIIRGXm51Tv/juqvKpkf+lSx59yO0G+DxV5VOryqcu+mv32c62lt/94c3Wt9szPxzOqZo547Rp08srI9mnaTsZEAghvWprZi+urYv2wGBKY3NTZCZEAaRVft7o1FLD1AhVR0938+6Wtq7Olrf/mCGbclUUlZx+cln5pJPLiidFuwqzLTYIhJAuhQVjf7JoSbRXDA5KDiRvXXGPmw5wqLJGZaWONBz8nHb0dLe/29WfTDa17Hy39/3hiYiFBWNLTzixeEJheUnpxHHj49CP6dRcEAghXXKzc6676LIFc+fH5yc//NST6lSAoc2Hg/VIb9++3r69/QPJ9u6uRCLR1tX552R/IpH400f9hzTjtLBg7PH5xyUSia9mZRdPKEwkEuUlpUePyorqMUhfymkTIBDC0KutmV33vSvy80bH5yfvamu996nH3XqANMnPG52qVuKwHH3YNDY3OW0CBEIYStHbiftgJAeSP1h2m7sPQFisdACBEIZMYcHYu+sWxrPj1mRRAIJj9SAIhDBkUXDRFdekdoqLocbmJpNFAQhLciBpc1EQCEEUPFK9fftql97qSQAgLGsaNhoeBIEQRMEjkhxIXvGjmxzmC0BYevv2La5frhxAIARR8IgsrV9xSHudA0AmuOm+uxQCCIQgCh6RletW1zdsUA4AhKWhcYujJiADfUURkPlKTzhxSnGpckjVpibbABCc5EDypuXLlAMIhHA41jduOvHCs3/44N272lrjXA6NzU3z71zoeQAgODff/2+WvoNACEekvmHDWQsumXvzgnjGws6ebtuKAhCihsYt6xs3KQcQCGEIbN6xLYaxsLOn+9y6y/WtAhCc3r59JouCQAhpiYUV885raNwiDQJAxnJOEgiEkLaktOe9+XcujHYslAYBCNeyxx52ThIIhDBMsXDt8xuTA8ko/bSGxi3SIADh1mL3PvW4cgCBEIYpFtY9sKR0zjkr162ORixsaNwy/86F0iAAQdbLPd2WDkIQ/v5/jh2tFIiM/+v/+b8bf7997QvP/X3i7wpGH3P0qKxAf8iyxx6++eF73VAgtiYc+/ULzj5HOQQqOZCcdsVsfZoQBCOERND+/gOL65enji7s7dsXXCV69Z2LzLEBINw0eOGNV0uDIBDCyKtv2BBWLOzs6b7wxqsd1gRAuG6+/99sJAMCIWRcLLz6zkUZfnRhagsZlSgA4frhg3fr1gSBEDLR+sZNGXuifXIgueyxh20hA0DoabC+YYNygLAcpQiIlc07tm3esa26rPLKWXOryqdmwiV19nRfd88dBgYBkAaB4WeEkJjGwgtuuSYTTrRfuW51xfzvSIMASIOAQAjDavBE+xGJhb19++bevGBx/XI3AgBpEBAIYYRj4XCeaL9y3eoTLzx7845tyh+AcCUHktIghM7B9PAX///+Pw+eaP8Px3/jf/yP/5Gmf9CuttYrfnTzz7c0KHOAL+Bg+iDS4IU3Xt2wrVFRQNCMEMLfpE60L51zzrLHHh7yowtT3ahnLbjEikEAQpc6OFeNBgIhRDMW3vvU40N7ov3a5zeWzjnHpBoAIqCxucnBuSAQQvSlTrQ/wli4q621+vsX1z2wxBmDAETAynWrL7jlGpUaRIZzCOHLY2F9w4bqssobLr1qcvGkg/8/9vbtu+m+u+wcA0A0JAeSV92xUL0GAiHE0eCJ9gcTC3v79q3491UmiAIQGbvaWi9aVGdgEARCEAv/EgtnV3+7pmrGp/8HyYHkmoaNDz39pCoTgGhIDiQffurJe596XFGAQAj8LRYWrnpk0RXXDMZCURCA6NnV1vqDZbd17nlPUYBACPwfUifap2Lhnr17RUEAoiQ5kFxav8LyBxAIgS+PhcoBgChZ+/zGu372sI5OEAgBAIgRc0RBIAQAII5R8ME1jzlVAgRCAABEQSAW/v5/jh2tFACAjHLgo/6/T/xdwehjjh6VpTTSGgVvum/Jj372/3vng/9SGhBPf5dzeolSAAAyU+ro1+nllVmS4ZBqaNyybNUj1goCAiEAEIDamtlnT51WVT5VURyJ3r59a371zBMvbLSDKCAQAgCByc3OueCMb0mGhyo5kHytedtPn3lqe/tupQEIhABA8OZUzZxx2jSzSb80B255Y+v6xk1KAxAIAYAIqigqOff06eUlpZOLJykNORAQCAGAOMrNzjlz8qmnlp5SdlJp4bjxcfv5u9pam3e3vPj6a+aFAgIhABB31WWVU0unlJeUThw3PqrTSlMhsKllp1MEAYEQAOCzFRaMLT3hxOIJheUlpfl5Y/LzRoebANvf7frjO2+3vt1uJBAQCAEADlluds6UicVfP+bY48bkl5eUHj0qKwOnmCYHkh093R/0fbhn7962rs7//eEeCRAQCAEA0pgSE4nE1NIpiUSiaPyE7L9ONE3rjNNU6kskEqngl0gkmlp2JhIJU0ABgRAAIBMT46BUdDwYqZg3aGdHm6PhAYEQAACAEfMVRQAAACAQAgAAIBACAAAgEAIAACAQAgAAIBACAAAgEAIAACAQAgAAIBACAAAgEAIAACAQAgAAIBACAAAgEAIAACAQAgAAIBACAAAgEAIAACAQAgAAIBACAAAgEAIAACAQAgAAIBACAAAgEAIAACAQAgAAIBACAAAIhAAAAAiEAAAACIQAAAAIhAAAAAiEAAAACIQAAAAIhAAAAAiEAAAACIQAAAAIhAAAAAiEAAAACIQAAAAIhAAAAAiEAAAACIQAAAAIhAAAAAiEAAAACIQAAAAIhAAAAAiEAAAACIQAAAAIhAAAAAiEAAAAAiEAAAACIQAAAAIhAAAAAiEAAAACIQAAAAIhAAAAAiEAAAACIQAAAAIhAAAAAiEAAAACIQAAAAIhAAAAAiEAAAACIQAAAAIhAAAAAiEAAAACIQAAAAIhAAAAAiEAAAACIQAAAAIhAAAAAiEAAAACIQAAAAIhAACAQAgAAIBACAAAgEAIAACAQAgAAIBACAAAgEAIAACAQAgAAIBACAAAgEAIAACAQAgAAIBACAAAwIj7fwMAAP//lR3kNrYENhgAAAAASUVORK5CYII=;" vertex="1" parent="1">
          <mxGeometry x="730" y="320" width="110" height="50.05" as="geometry" />
        </mxCell>
        <mxCell id="v3yQSLaKoU9rgjY1iF_y-39" value="" style="shape=image;verticalLabelPosition=bottom;labelBackgroundColor=default;verticalAlign=top;aspect=fixed;imageAspect=0;image=data:image/png,iVBORw0KGgoAAAANSUhEUgAAAfAAAAHWCAYAAACIWdvNAACAAElEQVR42uy9CZhVxbX+vdaq2vv0yIyioohGjYoYRUVFbZse6EHNNbHJTWKuGdWYSwyB7sbk/r/EDEo3EGK8mcxgNOaa0Jm8SjfQkziEOMVo1MQ4geLELPR0zq6q9T1nN0Rv4gAIe59h/XyO9IPCOafeXfXWqmEtDYIgZCQNDcvUhL6S4hHJROlQgkdqwlHO8AhSNMKBGeFYjSRjJ4OmgxFhLFgoCP8gYQAMm1nBi8j8nHOwBRVuB2dfQ6e2sWe38hZ4zR6ybcfSttmD0tKCkJ2gNIEgxGnSj/tHb35lfJBwh6Khw8HnI8Dh4Yx8KABNAOfGAMAIZipGxZ4iBQgEgAjpf5gdMDhg5v/bscP/ToBIwMAAzODYgbGWCTgJBH0IuIUZNwC79UD4nHP8DCI9nRrAddvWwis3rSsfEoUEQQxcEPKephm3lWJh0eGAdDx7MBUQjmeG9yDDwYAwSitv2JwB/o8x7zLg8Nd90OVx2OHDn9IGH77C32UwLgBm3AHsXkKAv7PDR0nhw87xY4M4tPb6jrqkKCkIYuCCkNM0nto7QY3jqc7BdFJwmmOeAkyHaK284cjYgXO7jNplzqAQmrsCIgonFOnI3ZrUEBM+i4wPI8G9LoVrzKiCJ5e2nSFL8IIgBi4I2c2C+rtHB8acqDWXA7hzGHAKAY1T5IUG7djujKw5CweKdLSeNnUVDhrGpgwgPs3Ma2wAnQVF3j3fvO2cF+QpEAQxcEHIEtPuOsIhlaGDGufwDKX4UEV+GLU6NhkVWe/roYNQgSIVLvMbG2xDgPsZcbkyuOraVeV/k6dDEMTABSGjaKrpOQYZa4D4fEd4qkd6RPr3nTNhlJ2XAwkSKNThr8YFAwB8PzP8jtC7Y+Hys5+Vp0YQxMAFIRaaKzsPwwJdx9ZdBEhnaOUVpaNry8G/nACXQQWByANCgpQNtivkO8Hh/wwOwMrrVpdvkxYSBDFwQdivXHFcb0np4VABwB8BwCqt9Oi0WVsXZOU+dmyROWlIN5e1Zi0qbGPgX7TcMfMRaR1BEAMXhH1KU03PMYz4YQL+d1J0DKIaNu2c3c+OhuE9cw9MkBoCxE5Q7kfPFm5e2dY2OyWtIwhi4IKwVzQ0LFOT+8fORMBPI0Od0n6JDfe0jTTOPh90EJTygdmCY/cQIPwQhuyylq6q16R1BEEMXBB2iysaektK+/gDQHQZgDszHSFal5J97YhItzcigXXmKUD+gdmBNy9ZXb5JWkYQxMAF4U25quJ3Y50ecTFoukyhOpZheG9biAdCHe6VWxOsZcPfJ+d+cm135WZpGUEQAxeEkDm17eOLoOATAHi51t5kxyYd/UnDZIyR79wnt8EzgHzdjufwxu89Ud4nLSMIYuBCnvLZ+jtGj3TFnwSA/1TaOzwdbefrne1siciJVHpy9RcwvPDZEZt+1dY2WwQTBDFwIV+YO3FZYeLEcR8DoHmK9NFi3NlFeAUNEJyzPQDB1S3ts+6SVhEEMXAhx2mq7v031PBlpfQpadN2slSetWjywVobAMDPIDDfaOmqel5aRRADF4RcM+7KzlPIV18BpPMQUQ6n5cxghaBVAqwxLzG5b/xxOf5oNZTLrEwQAxeEbGf+masOUKN0MyJdTqSKjJXS1bkI7ayKZo3tNpRqXrJ81kPSKoIYuCBk6XPcVNd9MaH6qiJ9hHFJucedB2jlgzO2z7FbGDy2+VtL18+W2uSCGLggZAvzaruO84iuRVQXpE1bMqfl2QCGBJo8MMbcg8RfWLh8pkTjghi4IGQyl0570Bt94LY5AP6XlcIxslye59E4+cAM2x2nrn62eMt1cuVMEAMXhAxkfk33VIX4La29CiNFRoQ3ROOKPHAu+N+tfckrf7i6dq20iiAGLgiZATXX93wOga4motHGShEr4V/xVEHaxNc55+a0dFTcLi0iiIELQoxcWdZxeEFx4ttKee+X0p7CO6FIAzMbZ9212zY+/fUbHrpM7hIKYuCCEDVzq1ZdmFDedcrThway1y3s9uA2fG/cmOB23m4ub7236iVpFUEMXBCiMO6Jywq9qWOvJlDzAIHkhLmwN3iqAIxJPWlTqU8s7q5ZIy0iiIELwn5kwawV7wHl/1Apf6axSWCQe93C3qPIA7buNUPuPxcvr7hFWkTIBUiaQMg05td31oNO9JLyZgZ2SMxbeNeE6XQJRmr2bvpidedXAFiCF0EicEHYlzRWdTWphP91AOdL8ZF37r5hB0YMf0LEnb+HO3t2+l8Mu+Y/wxMhDrPUhT/v+jXPWkwpH4xN3bjt1YH/vOGh8wfkORLEwAXhXdA047ZSHDniOkXqE5aNnDJ/o+UgAiEBotpl2WFJ1HRUiUAD7FwfEPSBgx2AtIPBDSDjECA7RER2oBE4wYSF4LgECEoBsBQcliBxoSIvvEOdNnfHLmx7F7Z/7pq7pwogsKkViof+49qOuo3ynAli4IKwF1xW1nH4qOLCm7TS5wR2KK/j6bSREqWNmkIjNS5lEXETM7/EDGsR4FkAXqtIPW8Nv8KEmzV42zdv2Na/9YjB5DtlIGtoWKZGP1uYGHvAqGKjBkcR83gEfYgDOAIBjgaHRwPxZGaeoFVCpT+TYwPO2ZyL1tMmbk3wgOkPPrT4rurnpCcKYuCCsCeR96zu04jwF6S99+RbOtTQrFGFr7RZWxMMMeALoPivZOkRJn5sgN1T/oB6Ycnqc7cAYCTLEgvq7x5tt6cmYxGeiAqmA7jTAOgYpbyiMPp3JlwByAWGy5MGT9oBc9Hi1dWPSY8UxMAFYXfMu6bzAiL9UyQamw81u4eXwnVo2Omo1jreisyPO+YHiPCPZPDRzZv7ns+0fdky6NVn1tkjLKozkLnaOTxbaTxUoQKbA2auyQfH/PygDS66bkXlA9IzBTFwQXgb5td2fsYD7ztMUJDL97uHa1fr8GdjU/0I8BgD3YUIq/Wg+/M3eypezLbvlI7QEYMzrOMLydEs0upQ2HnSO1uX2cNrZuxeCaxpWLKi6h7poYIYuCC8WeRd13UVsP4mkUOXg4fV0qYdFtXgdHTqXgTme5nUCga8Z9EdZc8AQM586bmz1ozx3UA1evhRZqzQ2itMG3k2RuXDmrlNzgUXLeqoXi09VRADF4SdMDAumNW7UHm6KZujtbc2bR0e9nKOn2PiTsV4OyTtmmu7Kzfng77N5/ccz5YvQcQPa/ImWraQbVcBwxzqwJusFRMXxMAFIaQMevXp9e47ivzPWpvKCfMO7xSTF/Yia+xLgG4loPsNJOGelq6q1/JV6/lnrjqARquPENBlRPq9HF55M1kViTPzRptKXbios/pe6b2CGLiQtzQ0PO4f0f/KD7VKfDwXrontWiI3Lhhgx3ci8a3k/JXXdpwt94nfwJza9hHFrvAjoOFKRfq92XTgbdeeuEua81u7qh4UNQUxcCH/Iu9JvQVnHMc/Vtr/aHabN4JOR9sAYNk+hRZ+ycy/alk583FR+e1pruwcCb76FCDM1eRPNC4ZZoPLChM37gVmrhWdBTFwId8isEQhJm70VOLD2WreiBheMzIusODwTmPcT1I6ufz6jrrtovCe0TSj82AcreYh0+VEVGRsKuM/c1p7a82TQwPJmutW164VFQUxcCHnaWhY5k/uG/NTTxdkZeSNSDuNO9WPgL9jCz9sWVEu14v2hZFXdp6CCf0NhWqWY5vxy+phshcbPDjAQ3XXS9pVQQxcyGXKoFdPrzM3eKrwE9lm3ruMOzCpbQR4Czv+gSyf7pcJnjpsYNynNODVivSETM/CF9YUD5Irt24c+IAUQBHEwIWcJLwqVtd9vVYFn8sm8x5eKk+AdcFWB+4mMvTdhSvLnxZF9y+Nte1HEhW0KtQf2HlvPqNNPEgO3tS6quqTuXSXXxADF4ThAbmm81rPK1gwvL/JWdEFPOWnjbufAW92GCxddEf1U6JktCI01XR9FlB9Uys1yrjM3Rsfzp2e/FpLR+VXRDZBDFzIGZrquhoVea3Omay4563IB7bOAbg2VnBtyx0zHxEV42NBbddJQOr7irzpQbikzhk4YCIwKwab/ETrqlk3iWqCGLiQ/ZF3VffHlef9hDGgTL8iNFwBTINz5l4H7urW9opOUTAzmFPbPqKQEosU6ksd24ysC59+foChj52pbZG86YIYuJDNNFevrEWd+A2jK+SMzm2O4KkEGGNeYnbffK5004/b2manRMEMfKbqez6LoBcjuqJMzOIW5k237jntq7Jv3nbOC6KYIAYuZF/kffaKk2lEYiUCjsvkqmKKNBjLTAg/g5T5aktX1fOiXmbTdG5nBRXoG0mrQzNxX1yrBAQ22WMe3XLe0vWzB0UxQQxcyJ4BtrZ9IlKim1Afnbn1vIejbuuCvzlrmltXVP2vKJdFz1hNzzGk8BeK9LQgA6+ahSfTzeC3Wzuq5opaQtSQNIGwN8yfuqoY2f+5Jj9jzTusw83ENhX8IOiDs8W8s4/WFTOfRKdrAxesSJtlpjF8f92/sqm266OiliARuJAVz01TTdePPK/gU5l611urBDhrXgCAuQvby38jkmX/hJEO0T/0wpz6mXVCnVABM26x/amyxaurHxO1BInAhYylua5rrtZ+Rpo3/mPJ3Cw3fUGZmHdusPjR6v5tG576RJBK/kArP6NiD8cWFNEYVax+fMVxvSWiliARuJCRNM5aUaN04vcMnMi0E+fh9R4AY4375mubnv7mDQ9dFohiuRd0NNV2LtG64AuZlixI9sMFMXAhY1lQ33UEAN0FSIe4DLvaE1aNcm5DKrCXL+2s+J2oldvjVlNt1yKtE/MyycQx/Q951rjkBxe3V90mMgn7fTYrTSDsDnMb1hQ6hz9V5GWceXsqAY7tI9YNVol55wXc2lE535ihbw8vp2fIhwonEk6h09fPndl9iMgkiIELmWGS/X3f8HSiLNOu8oRVoqzpGNzkZi1eUfuoKJU/tHZUzTOp1A/SE7hMIT259T3vUO3zUgaWFU5BDFyIl8a6rg8SJL6QWSUfd2ZVs8mfpYoLPnjdfRWvilJ5h9u26enPp2zqfzLpillgh0Brr6GpqucSkUjYv6OgILydedf2HEkE9yDgBMc2Qx5aDFNZBiZYurZ0c2Nb22wrSuUvl067vWjUgYW/8VRBTabcjAivllnYYL3g9MW3Vz8nKgkSgQuR0gDLfET3fUVeRpk3kQbrgm8sWlHxRTFv4YaHzh+w/epjxqYe1BmynJ7uL9rzDkBDS2QpXRADFyJnct2YeZ5KVGXK0vmuyDsVpK5uaa/4f6KQsIslq8s3OR76d2ODdelnJBMIl9KVd2FzbfdHRCFh/4yJgvAmNNV2nk6U6GYwRZlx3xtBkweBTV2zqKPyy6KQ8GY0Vq2aofyCdgA7IhNWjQg1MNv1yR3Bad++u+ZlUUiQCFzYr1zR0FsCiN9DhKJMSdbiKR+MS31HzFt4OxZ1Vt/LEHwOWTvMgPjEsQGtEhO9Uv01UUcQAxf2OyV99r88VXCSzZASjmGGK5u89b52NU/UEd6JluUVtxg31Jopd8QDmwSF6uNN1d3loo4gBi7sNxrru84mUhlzZSysuWySq/vWqktXQ7kRhYTdYW3p1q8EQWp5ZtwRZyAkDRpb5zasKRR1BDFwYZ8zXCIUrkOkBGdAekpFHhibegaALv7eE+V9opCwu7S1zU7BDndp+vnJhENtxgXgKe8U1dd3magjiIEL+xw8BJqGl87jrwFCSMDMOxzxx1o7yteLOsKe0npv1UtDSfdptm4IMf6hzjoDxPqqptreiaKOIAYu7DMaq1a9j0jPMxmx742QHnCNTc1dfEflGlFH2Fuu666607K5OhOicMcWPM87gNH+lygjiIEL+4Qy6NWocbEirzgTTp2HKVKd+e7iFdU/EXWEd8v9K/RiY1LtmZDkxdgkENLHr6zpOlWUEcTAhXfNabX2P7RKVGTCwTWtfAhs8g+83jWLMsK+YDWUm+QAfc5Z8/LOmvGxwcCgyEskCK6W8VcQAxfeFV+a2X0gIV6dGUkvFDhnN1pjPrX40ep+UUfYV1y3unwtD7kvsiPOhCgcWNc013fWijKCGLiw1wTafVmrxMT4DRzBOWQzGHx+yapZfxNlhH1NS0/FLxmDWzKhcplSiM7BVxoaHvdFGUEMXNhjFtSvnKaU+kwmLJ2H93XZfH9xT/UvRRlhf8Ebk02BTa4j1LF+DhteK0ucOrn/pQ+JKoIYuLDH2jumb5D2CuK+870zx/mfBzF1lcgi7E8WPVD/Cjvb6BhjX0pncACMzfOnrioWZQQxcGG3aaruukChVxN39I1I4JgHHJjLr++o2y7KCPvdxFdUtzGnlsW9lG6dAa0Tx/ME+qioIoiBC7tFmM6R4KuA8Rd7UOSBtcHXF7dX3yfKCFGRGjALjA02xn4qnS2ghnlXHNdbIqoIYuDCO+JtH7jE8xInxp1xTasEGJvsXVu69VuiihAl162uXevAXU2kY4/CEypxdOnhVqJwQQxceHsW1N89GgiarYv31DkigQ2C19DSnDBvtSBEzNriCT8yNvkHTfEeBLds0x3iC7IXLoiBC2+L4+Tlnk4c7jjewl6KPEhHQC0rZz4uqghx0NZ2fAodN1trgzhrhztnQJH/XjpIzxZVBDFw4U350szuAxFoTuxL5+SDMUOr15Zu+a6oIsRJy4qqe5jtzXGnWQ1TGKO7smzSjQWiiiAGLvwLQYKv0Mo/KM6kLcOnzk3/IOBcWToXMgFLya8bl9oU54G29KRaae/EU4479DxRRBADF/5v9H32ioOQ4fJMiL7ZuSXXd1Q+LKoImcCS9vp1lt234q5YhoBADJ9vaFimRBVBDFx4Pfou0Zd7XsEBcUbfKkzYknyMt/cvFkWETCLJqe8GQeqpOE+lG5cCRf6Mw7aPPlsUEcTAhZD5F646ABEutbHW+kZgh44D29x67/t3iCpCJnF9R912tnwNxTwkkkJShJ8TRQQxcGE48h3ET3qqYIKLsda3p3xwLrVsUWd1uygiZCJDOnmrtakH4lxKT0+ykVRdU2XnsaKIIAae51xS1juKkS6Lc+8bkcA4s5XY/D9RRMjgKDzJFq6BGGsDMDNo8ooY4ZOiiCAGnudMKLYf8rR/eJx73+HBtZRdunBlzdOiiJDJ3LdK3WGduSvO5C7pyTYSfGTurDVjRBFBDDxPKZt0YwEzXBHn0rkiDcYO/R2ZvyOKCJnOaig3bOFaY11sYXh6sq39goMV9l8oighi4HnKqcdPnKWUNzXeq2MEzPC1lq6q10QRIRtYO2JLp+NgdZxROLMDIvikXCkTxMDzEkZkvCLOFJHpAdBac8+2Dc8sEz2EbKGtbbZFxpY4o3DrDCDS9Elbxpwmighi4HnGgvrek4lVeXzRN4JLj0Pkrr7hocsCUUTItigcILg3viic0xNgRRr+Q9QQxMDzDOv4U9rzPI7pRK1WPjgTLF+8vLJb1BCyMQoHi0sYXIx9OABQ8G9XVdw/VhQRxMDzhMZTl08gpItMTIlbMB19O5sChm9CnHdyBOFd8NzILe3WmD/FdS88PMxGiQmm8LV6UUMQA88TcJx/kVbeeI7p9HkYfbP5TevKivtFDSGLo/AUMP03YpzDJAM6vBiAURQRxMBznDLo1cD4sbjufaejb2OCIQ5cq6ghZD19O35tbPKZuCqVhcvorM5qquk9WsQQxMBznDOreDopNc06E1P0nQDH7teLOqv/LGoI2U7rve/fwex+GtcyOgODp71CIPcBUUMQA89xjOc+pshTcWw9p6Nva4IhsG6JKCHkCgjm5sCmtsS1lB6upjm46NJpP/REDUEMPEeZO2vFGAa8IK6rY0r54MDeJtG3kFNReEfdemD7m7iulFlngBRNHTP+yPeJGoIYeI7ika71yTsonv3vdPRtAoduqSgh5NxAyfgjY4IAYkmMxKDI145QUqsKYuA5C8K/A8ZzWFUrLx19dy5ur75PhBByjYUrKh9itPfomPbCLYdnWs6fU9ueEDUEMfAc48qyjsMBqCyu5XNjHAPQdaKEkKM4AL4xtjcPU6visYXgnSRSCGLgOYZfos/3lF8ax93v4RO67r77O7BHlBBylVf79e2BCV6I60qZJl8B0gWihCAGnmM6osWG2O5+IwKD/f5qKDcihZCr3LS6fBui+018mdlM+l91l057UE6jC2LgucL8slXHocLTXAx3v9PRiLGpZ3F74e9ECSHXsVbdYoIgiKPKn3UWENRxiQO2TRElBDHwXBGxUL1fUyIRR+GSdDRiDN7ceu9ZO0QJIddZsqr8YSZ3P5GO4d0ZtOd5BYyzRAlBDDwHKINe7YgvjGP5HJEgsMEO3+OfixJCfoCOAW6l2JK6OEDiWsmNLoiB5wCnne2mKqemxpE6NbxS4+zyhcsrnxUlhLyxcKbbApPaFkdmNscGHMPJV5bdOUmUEMTAsxxX5C7QnufFkTo1MJaB8KeigpBPtHaUrweGnjgOszE78HWixC8y54gSghh4FlMGvRoVnhfH8rkiDYDBY4OcvEuUEPIuCif8FXA8pe5xuO5AtaggiIFnMadVBVPiWj4nTBs4/eL6jrqkKCHk3cCZdN3GpF6NYy98uL/jjCsaektECTFwIVujAI9q41g+R0QwJtnHDn8tKgj5yLXdlZsZoDOOZXTH4XWyw0oH3FRRQgxcyFrtsD6e5XMPLHDvoo6Zz4gMQr5irPutiyHzYRqtNTnH54oKYuBCFtJ43qojgenkOJK3pAN+DeoXooKQzxQ4usu64JU4UqsyO0AEMXAxcCEbwUBVeNorjDp5S3qwSjnzctIlO0UFIZ+5trtyMwD2qhiSulg26Z5/0lW1d48XJcTAhSzDEdcxxFG4RINC7li6smaLqCDkOzaA2+PIgJiOwBWqcRZT7xMVxMCFLCI96yZUp8dx+tyyBTTUJioIAoAacKuNtVvjSOqiyANkPktUEAMXsmnWz0NnKKLxUZcOJVTgrF3r+rx7RQVBAGi9t+olcOZ+hTqWKJyBZ4gKYuBCFsGE1XEcnEnP+Bl5pRQuEYQ3gLAijgg83AdnOOGqiq6xIoIYuJAFNDQs8xGwLN15Ix8wnAGw8HtRQRBexzH1BDGUGA1X4FCPTyXs8aKCGLiQBRyxdfQxiHS0c9He/05H/NbaF4ao9A+igiC8zrrSCX8Dck8SRb8q5msPGek0UUEMXMgCWOPZmjw/6uxrijQQQu/1HdO3iwqC8DptbcenwPFdFMc+ODBoh9NFBTFwIQtAwpnxXFthcAR3iAKC8Cb9g6CHY8jK5pwBhzD1kkm9BaKCGLiQwcypbR/hHJwWdfY1RALjzFZve3CPqCAI/4rdYO8PnNke9WG29KSBACYdeCxLfXAxcCGTKaLEFIXqkKjzn4dXZJy9/5q7a14WFQThX/nWg7NeBOcej/p2SLiETn4C0J0gKoiBCxmMS/FZSuvINUtHFY5wlSggCG/dPcHivXFc7wyjfuSTRQIxcCGDQQ/Ojj59KoKxSaMZekUBQXg7I+V746gOOLz3jpJSVQxcyFSaKztHMvBJcVwfY+ZnXn5C/VVUEIS3xtP4cBAEfYjR3gffOWk4Zv7UVcWighi4kIGwB8cS64Mi3/8mDYD8h5vWlQ+JCoLw1pxYPHM9KXgq6utkO0+/H0IH64mighi4kIkG7ni61l7kejEwIFKPKCAIb8/sNrTg4E9xHGRT5CVAwTGighi4kIEg0RlR3/9GQDDGDDq094kCgvDOWAX3Qwx5GtKTBgQ3RRQQAxcyjLIwSQO+L+r732FqSHZ/f+3l59aKCoKwG5Nedo8YY6LP6JKOwxnEwMXAhUzjlGNShwPy4dGXD9UA6O6/4aHLAlFBEN4ZL0lPM9uNUSd0cezAAR4d5oQTxMCFzEFrb6omPxH1Enr4fhal9rcg7CbXdldsAYJnot4Hd2zTg/lhc2o7pLSoGLiQSbjAnhp9vWEE60zKJd1DooAg7Ha/YWCMPiMbpyf3PKbAFB4iGoiBC5mEhydHv3xOwM49bw8ofUYEEIQ98vDHon9TBkW+As8eKQKIgQsZQnNl50gAOCbq+99EGhj4L0vbzhgUFQRhjxz8r9ZFf2wkPelGgKOl/cXAhQzBoZ5MgAe6iCNwTP+D8IAoIAh7OKhaes5ZHkz3oRgmD0eJAmLgQqYI5AdTlPJ11HdLLRtgJtn/FoQ9nXT3ea8CuBhOotv0MHGEKCAGLmTKYJDCE6OeyYfVx5zbQYH9myggCHtG671n9THAi3HUBgfkiXMb1hSKCmLgQgaAik6I4wAbAK/bunW01P8WhL3wUgRYF7mBDyc+Hu/1DclVMjFwIW4unXZ7EZA7KuoDbIgK2PFfb3joFEngIgh71YlgXdQrZ8wMxFSSZHuQCCAGLsTMmHElB4NTB3EcB9gAHxEFBGFvQ3B8IYZ3BVKKEoYPFQXEwIWYCdAcSYoKo87Alo74kdxjooAg7B0mgJeiXjmDXfkbFImBi4ELsYvD9N6wHnfE0bdlmyLGp0QBQdg7fOU2Rl186PVO7CaJAmLgQtziKD428r6PBMC8wZXwi6KAIOwddpC3wc4yn1EyvFqHE0WB/EBLE2QuDHB05PvfoYHb51vaqraLArvHnNr2ESMwMdoQjnJJKEFknwJEW+QC2I79UIKvGZfaunTlrG3p8EhaLPdJFplXCx2uBAXTCPU4RTrcmkq/9mefTv/dSHiwKJAfoDRBZnLptNuLRh1Y+CihOjLKvTRPJSBlhm5e1FF1iajwr1zR0FtS0memIKlTgflkZnwvMxyChKMAbBECql3Xh8JrPRYcEgwBwGvM/DIS/h1S8LDTcJ9xqb8sXVmzRVo1d2k8tXeCGwsnegxnM3EZMJ+gtDcy/YxYZ4aTr+zDMy6EGgybvz/w+Asnrl73iSFRQAxciIEv13VPSjI/pghLhisNRWXgBWDM0JdbOiqvERV2Rdj3jSih/nMd478B8DnW8REJL4HpgdexC6MehvSv8CaD8fBlIkQMVzcQVfg7xqXS/+t6ZLg3MHwbpKhzyeryTdLauc28uu5JGnA6IlQw8DkMcJRHCZV+hoazH7676Dz9jDHzRsX+8dd2nL1RWjy3kSX0DCUV4ETlQ6TmDa9nc3paFABoquk5hjRewq5/NqA6UtNw1ETEENjdDW6GdyVDHcPB2bwhWlITSekPJRR/yPpm/YK6O39rg9SNizqr/yytn5ssaa9YBwDp17K5DcsKva3jjzdeaiYDVwPANK38UYAI7h/R+R53YADHpUa7UQAgBi4GLsSyNKLd4YoSYGwyyneFlAmY2K7N57ZvnrXieFSJLzDChxR6pRYDsC6Afb2REe6JWvsPM1dKf56du/Sq8+78LbP71sLlMyUXfQ6ztG32IAA8uPPV2lx5z2EGgrORuAYsnkNKHabICyNz53ZvqT2cLhIUoE2NBQC5SSIGLsQBAxwZfQ50BCTeYTZgXqZQvaq2fTxjYSMgXqZIjzAutQeR9r4xcyQsIFQfMZYvXFDTc2Myxdcs7amQGwF5QEvXWc8DwC/Sr0vKekeNKzTT2XAtEFQi0LFaexQ+J87A2+WGSJu+ccE4aVExcCEmCGFy1BXIhjOw2U19nNqcb+3dWNf1QWa1UCnvPVEa95tFUIFNpidThUonrkgoe15TXfd/tbZX/Fx6Rf5w0+rybQCwMv0qm9RbMP04eJ8NgjomrmVHJ3qe572VmYdnLSyNl1YUAxfi47Co97+HD8DQyzc8dP5AvjTynNr2EYUu0UJIlyNhbMb95kY+BITqMEX65qb6ngo15OZd2125WbpGfrF6XfnQ6nXwRwD4Yxn0fu2MWnuCcbbWOXUeEU3zyPPfaObhRNw5MXAxcCEOGhoe97n/1YNcDHfAkXl9vrTzFyo7jy0gdaPS/vR01AsRT5h2h+EazxY8VXBJUBCc2Hxez8db7pgpeerz1cyh3KzugIcB4GEGvnbBeb1TjUvVg4PzmWlaOjJXpCEFLAYuBi7EwXv6toy0yOMYYihiYuIowhA9V1Z0nFuQ0D8n0hMzJep+O9KfUZP/PutgVeOsFZcsWlmzQnpKfoOADHdAejKXfi1cUNt14mDSXVCYoA+gR6OkhXIfSaWaiVgzFgBGxhIREuR8BN5Y13VeoV/we0SaGO0p/3eHcSkgdAconfh1U23XRdJRhDfgFnZUPvytVRVXbzfbTsOU+7o0iRi4EMdArYIDEdGPugoZswOH8FIut+38+s56DfpWIBxpXfaVO7cc3iMvJtQ3N9at/KD0FuGfub6jLtnSVfW8tIQYuBCPLBMU6ljMgci8mqut2lzTeRahvoURShyb7A212AIgFyrwf9Z0bmeF9BdBEAMXMgQkPGhXPu3I3hMQ2EBArHIynefcWSveg6D/RwGNymbzfqOJI2EJFqtbmio7j5VeIwhi4EIGwIYPin7WgMDo+u324TKIucT8qauKPaVvIk8fmo3L5m+FdQYU6gngq5ubKztHSs8RBDFwIe4InOHAOJK4AOCOwRFBX8495IfgNzxVcGY2HVjbXYxLgaf8U1jhQuk5giAGLsSNhgOiT+KC6afhtUc7CnMqiUvjrK4aIj0nF817F4FNglKJS5uqu/5NOo8giIELcUbggGOiPoE+fKsUt62GcpMr7Tin9r4RoHAJIqno2zNKGIAsgcbFc2etGSM9SBDEwIVYTKc9wcyjIo/AAQHQ5dT+d6HZcaWvEsfl0r73W2GdAU8ljtQ40Ci9SBDyA8nElmEUkytyDkoj3wNHBHaQMwbeXNl5GGi80rpU3jw7Jv1dCa+YV9u9iZgdAhYhuQIGSACCB440ONDAQKCZwAECIYcJtC0wIDsgMOExSgMGNKYAXJIMDTnCJBEOWDaDxDhgUfdrMP2I2O84GPA2FQ+4kamBzdtGDT750I5ULq3kCIIYuLBbqMHCIudzcSxL6Jg7Bs4eft7TibHZkCZ1n33ntP8ijvBVYvGb/g//vN6mONT9TUcC/eY/K/DC91HA4FiBs+k39YLUASaJDgZHjt86ML0Wd0yHnu3AvIWJtyDgRkTY4JzbQJY2snMbXaG/WTvatuWVwr4bHjolkJ4vCGLgWU/gYwkQF8SRRhURc8LAm2Z0HgwAHzd5FH2/buIcbUU1QkLABCIkQNEICieCuHNCiLtuNwx/NmJgZSEwzGSDAQO0fdQByS3Ndd2vMsCLALAeLDzPHj5PAC+q11Ib7n0+sXX1uvIhGRkEQQw84yEVlBirfIrhdAIDb8+JRhyJH/VUQV5F3zFOGYbXinZOOPkf/3qbZ5ww7e3FGqAYSB9EQMfvMn1QAI4NGGcsl/qvTT/Objz92K4XWNGzmHLPpBQ+pa19TuvCF58ueXlLW9tsKxoIYuBCZkTgQ1SqCwg54lKiENYRhqw38LAUa9/LF+dCtrWcNn3eaf3s3rTmHgIqRBiDqMcQ0jFhZsICAGILlthaMFsm9497sam262lg/CtaeAK1fhJTwfNSM10QAxfiEaQAigkV2IgNnIeDqKxP4nLEjpdOQ/KmWCcGnv0mn7Z4B+5fIvq0ufN4QhqP6L0vTAOsHRiXspigDY21vWuR+QlA/jMD/gW3+0+13jvjFQB00q6CGLiw33AOS5TC6IfL9ITBQn/WD/tEF2ilyVkx8Fw39+FJrvk/xg4IB2migwjpjHQcb1wKeGSwtbmu51mG7kfB4YOo+M80xE9KpC6IgQv7FnSlgHEYOAMryuosbGXQqwFsZVitS8hrY3/jE4BIown1NEKaBgo/YWwSbAJfaa7r/isDPEhOrQFlHlmzXD0v198EMXBh7/0bqAghBgMHB0BuMJvb7rTzaDIYe6wDGYOFN05O3ZuZ+gRCPYGQyh1ZcBb7Tq+Dp06HnvsB+R62+MC2jSOelStughi4sAejDRbGMW0I7/YqyOpj2+TsSUr7Bfl4fUzYG1NP/cPUkbCEEE8i9E5icJcZZwdHT9j+96ZZ3WuI6E6jg/sX3179nLScIAYuvCXWuUIvjjd26GxggywflE+Ouo66kCuGzmDZgN25eoOIhYTqRPL1iczucmVhR3P9nX9htqsJqSdpCv60dOUZW6TlBDFw4fUoErgw+vgbgAmNRsrq0NUBHMcgB42FfWDowGF++TcYeimhPpMocaZ1wVW+GnixubZnDSKvROC7rm2v/Lu0miAGnu+g8uJxP7czD3Z2sqxhmXpwBxwW/f15IX8i9AAsDC9SEapDSOmLAOAia4OBBXU9D4OFlahgVR8P/fn6jrqktJogBp53ITj7EEcITugYszf7yUNbR5ewD+OYWZ4hYf/Pd9mCs3Zn98EiJD2DlJphTPDVIkj8tbmuZ6UydMe29fzA954o75MWE8TA8wGDHqgYBiTLLjkUZG34yl5Qis4vYSUGLkT87IXL7Tujc0QiUscr1McbTH2xdDI+tWBS70oge5t5wa1Z/Gh1v7SYIAaeoyBxDPaNQAq5ZFRx1l6gZqUL0ZAPEoELMdu5cwZ2XWUkVEcp7R1lHfwnHaqeajq0dzmy+90AJ++TZXbh3SJHdjNOEaaYoggOUjZr3U9b8mRCKmQajm1YHS79KwEc5ZH3BQBYXYSFDzTX91zdWLXqfdJKgkTgOTN/jyENW5gALm3gLmsN3AbMrABQHiEhg8181765IjyB0DvB+LigqbZnDTEsc4j/29pRvl5aShADz1LCEsogy8B7CikduOFDeJ60hpDxE86dV9QQ0FdKlxFSGbvg6qbanpVo+RepkZvvXNo2e1BaSnjbcU+aIMMi8LDGosSRe0oycIMALhnTAoYg7F1/33kALrDhdvg4rb2PoqfaEwPj7m+u7/lS43mrj5JWEiQCz5YI3IGN4xQ6E6KXoKx1P5Mo2eFhXx8CjpL1CyE7J+8OzLCRgyI9RaH+pnHBgua6ng60eGM/DfbKwTdBIvCMdvB4ahYjIFocUNnabK+UrOsH4I0oEbiQA1hnwsNvAK5UKW82aOgowsI1zef1Xvmls+86SFpIEAPPRGKphZmOWR2hKsna56GtbbYFhnWISp4hIYeicg6j8vAUO+FJGr1v2xHmT831vd9prOqVE+xi4EJGoSAVk3+TRpfV7ocAT6CcHxByPCpHgAmavDlK85rm+t7fzqvpnNXQsExmrmLgQuwz7oDjKShCjtyAyeoT3AbgYcmFLuQ6jl1o5IxcoEhf6Cm94sj+caubans/On/qqmJpITFwIbYoUsV1SEVhlh9qJKCHrTMDEoULeTHZh9eX15HUDK3ULfpQ748Larv/c+6sFWOkhcTAhagN3OOh6AcCAOdAYUL52dx2p5aUr2WAJ4jkcoWQX1gXgHEpQMQpSvvX+7rggQX1vc2Npy6fIK0jBi5EhGE7GMdcXhEiAyeyue1mt6FlZ7tIDrIJeWvkJrxTjsBHKPIW0gFFDzTX9/x/TTM6D5bWEQMX9rsgOBBHJjZEAu53hdnefhzg/xpjZCNcyGt25WBHgIma/KtxhPdAY233V7909gq5gpZDyFpjhoEWBzgGVUIDL8KsN/B1Y7Y8NLl/9COK/JOsC/J3IogqfO3MzQtvnt2Ph6eKYfq/1yeN4Z/A1//M2/953lkAjmHXAcLw7/qnv1OIz8idtUCkDvYp8RU7Aj+9oKb3+2Z78KPFf6jeIC0kBi7sUyelHXGUxAwToDBk/QnWtrbZqaba7psJ1UlhfeY8NW/H9hln3dOAPIiIA+x4EAj62fFAepJotRtQTvUzuQEEHEDkID0cpIKAPE0KkYjZeeDYB4AEAyUAXSEpLGQHxWCxlLUrYcZSYCgFwlJybgQwFgNCMRAVIoBPpIGQ/jEB4J1GH77Cnxkk93+ERo7qEOV533Cj4TPNdT3fgZT9SUtX1WvSQmLgwj6AyfQ5juMUdTrqwtKcaMNNQ78MxvJVpNQBseTFiXP+B5i2wxTvMLMX3V3zp8jaHBg/PunOxEFT+gudKy62bEeQcaPZx7HOpg5kgxPQx4Mcu4MBaAIBjGcHYwBghNIe7Tq3MGzqNrwqJVH8fjXySUp5S2wCP7OgrnvJmsefv2X1uk8MSQuJgQvvJnoi1RfHXeZw2dRxThj4ogfqX2ms6fypIm/BrvKNedOhVQKMTd4epXnvfH4Y1sFQ+ALY+k7///ypq4rpEDOawB9vXHAIsjkckCcD0xGIOAmQD2bgsYo8PWzuHJp62oAkat+HRk76vUTej06fMvkzpx/fe01Le/lt0jpi4MJeYi30ITmLQCryQQphVK60o5+i/zYUfIqQxrs8Se6SnoRZFySHHLdk+mdd/Gh1PzwK/QCwHgAefuN/a2hYpg7bMH609ugg57sjXGCPYR+OAwfHIMIkAD5Ak6/Ccxv/MHUn0freGLkz4MLiKd5pDPD75rreDmb4WmtH+R+ldbKhzwsZxfzzV08mG/wFEYs5wr1wTxWASQ1d17Ky8gu50paNNZ0LfK/w2uGiELlPWsMgGPpJ64rKT+fqd7yqomss+3BYYPC9yscTkXkqO3wvEByiSftpUx+O1A1IVr69iOhUIpwEIsBNAK5l4fLKZ6VVJAIXdpfNyX4YRYMAWBx1BO4IR+dSU/Y/r/8bJw19WClvaq6fSCdUYFzyVW+TvTqXv+e13ZWb071kZ9R+a/r3rjiut6T0SJ5kh4ITAGAaeDCNAY5FwAlpQ0pH5mGkGRq6ROlvhwnvkGNCqcSl1gUXNtV3L+l7jr77vSfK+6R1JAIX3oGmGfeUwsihvxCqSVEewNLKh5RJ3b64o/KCnFrRKO+ZqQtoBZP1mHN38NYU6vfpxSsqfyK9CGBe2e3jdGHBex2oU0HhGcjuZASYpJWvedfSsRj6O0wKCRT56Yj8ERfYr7auqvy9tIoYuPA2lEGvnl5n/6RIn2Cdiex9FXlgrb2ntWPm2Tk3KartWujpguZcXUr3VAGkgqG2RSsq/z3tTdKL3mQiN3VVsT6Ejmai0wHgHGA+FZgma+0RswMrS+5vOzbsbJs2lzRfae2q+qu0ihi48FaGU9e1WpF3TpTLvkQanLOP3ddOJ62GcpNL7Tl34ppCb2r/ck8lygObzLnB1Vn7pEpy2TU9Fa9K79k9rjiut6TkUHUcKFOGwOXgaBppPIBQh/vn1lmJzv/JKjyVjsbNVgZebF8w14UHEQUxcOH/0lzf9VtFiQtNhGYTJv+w9vlBTJ1wfUfd9lxr03l13ZM0Qg+hPiJX9sNDzRC2QeBmta6suF96zt7zpZndB3IBnerQVQPTuQDuWK0SOrxuFUbnYuawM2OjDpfVUw855qta2ys6pVXEwIU30FjX9QNfFVwW5ZJveCXHum1BamjK0p7zXszFdr2ypuvUAqXaCXFclNsT+8e8CQB10gXJj7SurPqt9Jp9R0PD4/5R2zdPMdpWIXANOD5Fa78kbeKy1D5MuPLD1gLDj5M7Uld/++6al+XJEQMX0tHirM6vFviFX4nUwAHBWQwcufct6ah8IlfbtunczgpVon8NgKOy1cTT5o1IxgbBpa0rq26UHrN/WXBB73vYQAUgn8+OZ2jtjwLgsPJXPpt5eswIEweZ4Dlj3JeXdFbcKk+LGHje0zSr83LPL/x+1Ieu0lE4MJe1tFfclcvtO7++q1KDvhXDSDzIMvNWAKjSkfdnxbxjmFzXdU9Cx5Wa1L+xc2drzx8ZRuYuyNtEMkQakAEcuF8O9SWvum517Vp5UiJqe2mCDITxlThyeCvU4NAemOvNu3h5ZVfKBecz87PpCCJbUOSlf9m6c9lczDsGlrRXrFu8ovInC9vLz7eePcm44AprTTcwDXqqABTlX2oN50y4taDJ//fCkoJ7mmt7/kOeFInA8zcCr+083bH6A5GLVJ8wk5cdurK1vfI7+dDOn62/44gRUPwTTd65xiYzOoJKa2OtecJA6pOL26vvk16SWTTP6jkeNLwfGC8CcCftzGgG+VZMh1DBcDY8+8utyf7mG7rOf16eDonA80sUwg1EMBiW+Iw+/J+YL+38/eXnPbv1lb76wKSWAJLdGeFm3IA4fOo3uJWG7Ewx78ykZeXMx1uWz7zm2eKNpwNAmU0lfwDAL6a1S78wT2Kl9IQlPXFJR+NjEqV3L6jvbpCnQyLwvGJB/R2jDRc+rpAO4ghn8J5KQGCTt7a2V34k7yKo6u5a9FSLIn2CcanYDyelJ2+awihuvTP8/7WunClL5lnGVbXt441J1JPGi5nxHM/zvHyKyol0WBLWAd+ghtyXdqbBFcTAc5swG1utfUgpPTXybGwuuKu1vbIsH9u9ubJzJCTUlQg4R5E3Lg4jHz7Z64M1ZpAJfha8mrr2Ww/OekF6RbZPynumOcCLkfkipbyJYfa3HM/Pv+uJ9oa3Ex4LhsycJd1Vd8rTIAae8zTWdXV45NekTSSyGTMqYLZ/f+VxdeJN68rztrh/Y237keQK5iDBxUr7Yy2b8KDO/m774QmUGQDnfmcdf2vRyoo/SU/IvaicsfD9jPgJAHfmsOapnE8UE6ZjtW6I0X1z66sjW2546JRAngYx8Nw1keruH/qJxKWRJ3Nh2JLakZoiiRkArizrODxR6H8UET+MhMeHgy0bYGf3wYE33FksQodFNSzbdcjwG0jZn7V0Vf1FekBu09CwTB25aVwZFOGnwfH5Svslub68PpzFzYPABisI3eekVKkYeM7SVNd1lacKron2Lnj6cWCLRNNa7pj5iKgwzNyGNYWJgaEZ4Nz7GbCcGY/WnvYQMFxiTw+6oaHzLlvnf7QnDo9c4U/pASzMoAYIySDJSsFz4PAecnAb64HehcvP2yqtnYd9vbLzWFTex4H4Yq29g6NY8YmT4RP6Zj0Hdo5UOBMDz80IvLbrQ57yfxnlEjr8oziGuaClo+J2UeFfmVPbnihSBe9F66Yx0skAfCw7PBQIxqJzRQzkAzGlO5ZxzIogBYyDALgVkF9ChCfZwcMK8QH7mv9E671n7ZBWFcI+f+ryCWps8YdZ8WcUqmMZOGf3yQl1GCw4dq2DnLz6+o66pDwBYuA5w1V1PdMDx2uIWO6CZ0GErtcOjdTj7QizA0uwxPnhfwggHUb1B462J1+h1773RHmftJbwTlzR0FtSMgAfRAefI4WnIhBEPZGPxnx2pWJNrbL95vLFd1U/J+qLgecEXzzlrkPVAeYxQhgR5Uno0MDN0H+3dlTOERUEIT4aGpb5k7ePOw8Ufp4QyghVThp5eH3VBeustZctWVG1UpTfg5UMaYLMhCd7m9DxhqgTQDC49LTuSFFAEOKlrW12qnXlzN+2tp8707I931rbvSuxTy4R2CQopEme0rfNq+2eJ8pLBJ4TNNV2d2nlVUR6lYw0OOf++lzxge9razs+JSoIQsZM67G5uqcGFM5Dwopci8gRKazHYNjchEl7ZUtX1WuiuUTg75o5te0nNdd3nxn5Gzt4KqwQFuUQwQ7YuYMmbn5lvCgvCBllcdyyqqKjpaO8KozInbtLkYZMTAG8t2NPekLikX8JeGpFU03HMaK5GPi7i4Lruj82Qo/o5gAuifzNNTwZRydiwJFegg4V9QUhM418UXvlHc8Wb5hprWlwzPdr8nOmElpgh0Bp73RSBV2NtauqRW8x8D037hn3lC6o6fkukboZAEaD5ikM0Z4IJ8N/sxz9fVDf8xGBj5anQBAyl7a22ba1o/LXA27gHBOYTzrmv3qqYLhmfJZjbBIQcaJC//eNtZ2fFbXFwHeb5srOE3BUqlN5/hXO2eF9JgvHfHlmzwFRfo6UgmedMUNRH2RLv59z7nh5EgQh87m+oy4ZFrtJmjOMSzYCwItpI496+21fY50BRleolf+95qruRZdO+6EnaouBvy3zqro/DAndo1BPH86CxuGyMmkam0R3bJSfZWiteokJXo18HxxcevYrBi4IWURLV9VrLcsrFicH3XRjU99CB31aJbL6rHKY6dAZ0AWJ+aMOOOp/FtTfMVqUFgP/F+bUtiea6rpblVa/QIBx/3y6U5EPyofpUX6m7z1R3ocAz0a9JOacA0d81CWTegvkyRCE7GJpT8WLLe0z5xnmGYEzbczE2XzQjYHDfXFP+xcxlNwx/5xVk0VlMfB/8MVTVh5aiAW/91SiEdHimxUUGM5yjadH/dkQ8bHoT6JbIMCJB02xB8vTIQjZyeIVFY8uWl4+GwyfFx50U4ms3h8PD7eROlOVeiubKjtPEYXFwKGxatUM70C/21NeTfoBeasqU2FxAaYT509dVRxpNMzwKABHPuMlVEXWgBxkE4QsZ1HnzPbUIxvODVKpLwDDy+H+eJYuq5vhpC9HUUK3N85aUSMGntfm3f1x5XsdhHRUYJPvYKQOkPhQPNA7KlKB0DyRCoLIiwUr0oCEJ8rwJwjZz9L1swcXray4LoCBMwKb/DEiGZWlGd2MCwAQxytd9Ov5Nd0Xi4HnGWXQq5vquq9RPt0IAKW7V/GHQStfO9+eFuVntVtLnkZ2W6I/yJaeM/BJMvQJQu6wpL1+XWt7xWdggGcxm/s8lcjK0+rD5VZtsVbqxsZZ3VeKgecJC+rvGH16nfuFp/yrdtVy3qPIlPGsKD/v4j+cuQkQnol674rT7cIw5YfTHpSrG4KQYyzsndmTfGRTuXGpRmTc7IWn1bPMxMM6/E5rT3173qzur4qB5ziNte1Hsitq1yoxO7DJt9zvfstoOP3AODh1Tm17hE87OgD4S+Qn0dMGTnD4U8VbJspwJwi5x9L1swdbllcsdo5nGBf8VpHeWac7exi+ZmYh4XlfaarvXtrQsEyJgecgTbWdpysqWqW0d/rw/e69MDVnAQmP8MGPtFoXIz8UfcdgUOQVYwnJfXBByGFaV8x8smX5zA9ayxeD47WeKsiqu+PpQMy4ADxKfGHyjjE/bGhY5ouB5xDz6zrfj5hYjohHmHc4rPZOj4pWnq8cR3ofHAEeNiZwkT8c6aif4VQZ4gQhD4y8o/wXyWT/Wcalfgrh3fFsisZ33hX3Cj41uX/sz+Y2rCkUA88J8+66TKP+FaIds3uH1d7RTNMhcVmU30Gl8Clmu5FiqEwGCKfJ0CYI+cHSnvNebFk+81Ng7Qcc81PZFo2HJq4SH/Z2DNwS9ZVfMfB9TGNd538R6+8zcGJPD6u9FZbDZfTpc2qfimwf/Nruyi1A8CTGsA+OgFOaKztHytAmCHkUja+q/L3dGpxlTPJHwCqrovHhSDzxAXWIurVpxj2lYuBZRkPDMtVU373Uo8TXES2GkeS+ikqdBQY6MjGw/qhIg+EA74/+IJsDZDqYFUldXkHIMxb/oXpDS0fFpeDcRQ74ueFoPHtMXOvE+TAi+cs5te0jxMCzhLJJvQVH9I/9sUf+F4wL9vik+Ts6KTB4nvY4Yc+M8nuh5vv25URkd7+t1h6xdtNlOBOEPI3GV878bWrAnW1d8lZFXtakYx3On56oK8JEzpp4Thn4Fcf1lpx+HP9cq8THhzOr7b8EZoqgPFIrVe4RY+xg1CkQ0xMWdDhDhjFByF+W9lS8uHB5xUeMM58B5s06S7K4hZG4StQWccH/NM24rVQMPEO55MTeUaWHu2Va+xft7TWx3cU6A4A0PT1hiOr7rb1j2zom9wxR1JXJ0t8VTrl02u1FMowJQn6zqL3ix6bfnGusXZ0tOdVDE/f8eigtybmDbTlh4FdVdI2dcDD/Oj3T2t/mDbv2hgEnlUwyU6L6jm0wO4XgHohlHxxw0pgDCmUfXBAEWLy6+rGgZGNt4FItSGQpCw647TzYdgEdQj/LpTLJWW/gc2rbx7sE/lZrvyIK8x5meG8YgCK9TsaM90TfwgxaJbRFPFOGLkEQ0ixtmz3YunzmAnbmg8C8XmdBKtbhPfGCiw483t1waY6kiM5qA7+q9u7xRVDwW60S50Rn3rvM1AEgV0T6ngPqfuNMKpZ9cOZzZdgSBOGNtLRX3WYdn+uc6cqGJfWd98Q/NvLAbdfnQgCbtV9gXlnvOCbzG639s6I2bwjvg5u0tU1rPLV3QlTvmSya+JSz7lmMYx+c4bRcvo4hCMLesahj5jMvPwbnG5dczKw400+p7zTxy5rquheKgcfAgvq7R+sSblPknR2Hee+KwBX5Y3C0PT2q97y+46gkOr5PxZDQhZEOLWJvqgxXgiD8MzetKx9qWV7R6Cj1HwCwVVFmr1AbmwJNXmNjfdeXxMAjJB0Fskv9UpN/blzm/Y/GSxspwqxI3xR5dRzf1dc+ssVyGaoEQXgrFi+vvsUlTTWzeyyzE78wWBcAOv2Nplmdl4uBR8DchjWFRVhws9aJ6rjNG3ZdJyMoj/RUI6o/mCA1FPk+ODsAjRUAjDJMCYLwVrR2VT1Im1xl4JL/m8n74uHZHnKovMR1TbVdF4mB70cunfagp/sHfqyV//5MMG/YlSuc8D2jjrUnRPWe2zY+9SwT/i3q++CWDTDiSV885W6pDy4IwttyzX0Vrz5XtLkhMENL0mMVYmZaTTowYba+Iv8njbU9ZWLg+6eZcdT4bd/2VeIjmWLeu+ZwmhLKJ45sGf2Ghy4LgN09URfeTz/oHukRODo4S4YnQRDeiba22anWjsr5NrCfRabBqMesPQnEAN0IhXjr/LJVU8TA9zGNdV1f017iiswy7zdE4YC1UbYlInftq+pqe/a+CMrjWhmaBEHYXVpXVvyAjf0gM2xQGZqC1ToDROogXax+1TSj82Ax8H1l3tWdczR5/2VtKjNnb84AOjy5qaYnsupkbqO+zzi7JeplqXDP33FZrpfoEwRh39KyqqJjgE0Ns/1bpiZ9MS4FSvnHwUi6Jco02Tlr4I01qxqU8pY4dvu8qti+Iv25tJcoQOveH9V7Lnqg/BViflBFvCQ1vNTkHer81KkyJAmCsCdc31H5MCfNLGeDezP1hHpgk+CpRHnpYfz9hoZlSgx8L2mu6TxLKf/HQOxFX0Zz90lHwQgIrGFMxMp1xnEwxNMaqdDVy3AkCMIeR+JdVc8DDpy/64R6Zpr4EGjPu3hy/9ivi4HvBQsu6H0PKO8XiDgijr3e3UWRTpt3MmWTTds2PPP/onzvAcfdxibDUmFREmagczBrTm17QoYjQRD2lIXLz9v66mP0IWODG71wOT3zrpkZmwJF6qp51V2XioHviXnX3z3aGb5VoTrMuiBjG04rH5h5fRC4C1vbZy4KT4dHyCslBz3Ojp9UkadVtYCK3lvoEifKUCQIwt5w07ryoWeLN34mMEPf1uRl3F1xBg4rMXpaf7upbmWVGPhuUAa92rngBk/5pxiXzNiHz1MFYJ25z9mhyiWrKjri+AxtbcengKA7+qsZDJp8xcqdL8OQIAh7P4bNtq0dVXMtm68R6fCWS0aZODtAgkLkxM+aajqOEQN/B06rtVd72r8oE6+LQbjQg+CpBAQm9atX+rCmdUXtk3F+Huu4PTwZHjGOTXq+fF6ulOQTBCE+WpbP/IplswAh8xK+pMdXpdXBiAU/v+TE3lFi4G9BU23XRzUmFhibmZF3+sEiUmBSydb7OvDim1aXb4v7M2kz+o+O7fqoq/9YZwFRTRk1eocsowuC8K5pXV7R4sDOJfZcppl42pO09k494BDz3UwLejNizaJxVvfJSNRNBKMy8dDa/8/emcDnVVT9/5wzc++TJt0XCojsgoKgWBSRpabZUxRBU8U/UgXeokjhLW2TFgFXliRd2OQFXFFEbQTF0qTZKYWyFhWhoiwFitACXWjTJM+9M3P+n3ufthQopUty732ezJdPKLRNnue558z85sycOScUSIO+Jn96/aKSG5P03qor2u5wZOr/+REvfByRB35v71V1rcWX2+nHMjBhnHFsaz4MhgKRj3l6EIcraVKOLzzd8+pzYvPtLxX22ue0G1pQ2jpVyNR1jIqSdvtIihTo3nRNbWtxnRXwLUwfv3C0yM+/Twp5tEpg0lp4NsO0UUHv+fWLShuS9v5qKlsnCUr9UZloC90IkkEk/lQPp4+/sakybaceSy5TVbVAHJYecwgo+ASD+SQAfAyYD2Sg0YA4GIDzgmER/mVjfCDsQeCNbGANCHgBAZ/izfQ33gxP1z9WuNo+0Z0FJe0XCXSvN+gnSsQzV4al5+v0F+cuLmm2Ag5M1RXtdzoy76tJPPcW5ACzWaO6/a/P6SztSKKzXzKhfWwqj59CpNFROzuxNMz++NrFJQ/YaceSa0ytaEzlY+oEBDqNkScA80cFOQXBRM7BP2EjjK1Fphi21ZrakoyFwT9IQOGWMIbtK5nhDUB+ggEXCx8WX9NS+Ix90juIxMtaLkFy5yMZTJKIB4ELK14lyJxyVWPRSwNawKdXtExPyUFzknjuLckFo/WLxldVdW0ljyd6xVrefpd03DNVHNvouveGusbiS+yUY8kVLhnfdHDeoLyvIeJZTObYcC5gHZZN3tuKkIGgC5Thr8r43QhwP3vm9k3/XXvvzSsmddmnv928Vtk8U1BeXV889z7VBpECpb3WlQX7nhbeBhqIAj5zYtspgkUzIw9K3FkHpcCwesak1Zl1bSX/Sr6jt35DirzfRC3ghAKMMS/CxtSxdQ+evMlOOZZsZnZl2xHMYioAnyWkO8qwgv685RFE6IIyFzmMMSsM6/+Djanb7VjaTicqWq50RN4Pw92LBIl4ELwo3fOT2saSK+J8H7Fk1E2taByDBn+GRIOSmKhgtH4SQE/MBvEO3/Mm3aa0H3lzkyAqEUIeDMO9QjvVWLKVYD6qKW+/RjM9IqRzEROM8nUv9PcVzUCQlPHCLyQ4ypHujTTUf6imrOPrAIzWMgD1TaU/UsavFyJZXcyCYAnZqZle2lwx4AQ8j915jkwdmbRKa2GWodJPsO9/4dpFxS9ki5NfvbT8NWazZOtqPkrCRYMxX7dTjSUrI7yJ7VX5lP+gdFKzkGB4INxxBBXBYsEPREHg0eSI39VM7Fw4vaLtKGshgLrGollK9f4sSbXTg8UXCnCkcG6Os/1o5AJeXdb6LSmds5OWtBaKt/GXM3SfHhbczzIQ4C5gjmHi8YNgoay6ovMAO9VYsoVpZYtHVld2/kygWEAIH4lLuHck5MGYEuRMdFDcP31ixxRrLTArB+9/kdLpu5Ik4oGtpHQPxmF0Q1zBcKQvWl3edCSSqE/k/T6t/sam90t1TZWvZKWHv2ValfHfiHobPbCl46SGs1Zn2HnGkhVRd0nLJ1Mi1eYI53xjNMRRzfCDCPNZEEalUNxaM7Hj5wO9B39Dw9FeN6fP9VV6SZL6iQcLP0HOl6vL2qfktIDfOuVxB8G5SUhnVJKKtYRn3ko/CZ7KWvEOmLOs9HUAbpMxbKMH9kTCs8dDp7TyYEm0eFe2nSZct4VIHJfZBeTkLspZgzI+SHLPg6H+wkuPb/7wQLbdjU2VG2Gj+box/lOS3ETZCQivmR3DkUdkAv6fVesulk6qOElXxsLrIUY9A6TOyMZt8/cu22GBieX8zgcUYtxnJ5rPWImwJJXqytZvCJALAGBM1IWP9jbKc6Qc74xxmmZXth0xkG1Y92DJq74xXzVGvyZIJkbApXSGa4SbqqoWuDkn4DXFrcc45F6ZpEprgpzMPe+0OjObEtZ2Bhru1Mp/Oera6JnFkCPYh8lWJiyJjLwrWs8hdn4ByIMMq6x7/75Og5DyaIPi3ksHuIjPbSpeYbrVN5hpc1Lqpof10kWq8JDNIy/JKQEPViRawg1EYmhSzr7Dajpg1vjkfSVbrortCrVtJW8xwcI4stHDiEbCGZdMaB9r5cKSJKaVtJ8hKHUbEDtJ7LWw6yLhgSDxEYfp7oGeNFp3X0m7Nt7FbIiT0ks83IlEcUUQsOaMgB+yeeS3XSfv80nZOg+iU2baaDxz1txFZctzzrMR/qi1inylFCazidQYN09/xUqGJSlUV7R+NiXpVwA6lc3ivb2IS+kcDazvrD7pngGd2FbfVPxLAFUnE3JHPJgDBckhxsXro2q13K8CPq1s8eEI4vsmIVvnYTF6FJ5m79y6lqLOXHTqF/PXPWKM+qeIKZmNgb5l+4RbksBlp9y/H4L4LQoalgvivRVfp8Fx8k7hofnXDXQbb3h9+BW+Sv8lKdfLgkDVEanC4fusvyDLBZzRQVErhRxpErF1jmFTAWV6L61vLL4rVx26oWGSBwR/jOMcPNxCYvmpoftuGG/lwxInVVULhBrs3Syle7hOYJfDvhBxKVLnzqxsP38g2/m25cf7PeBN8VX6aZGQzHRjFCCJ78+a2HZo1gr4zMr2M4V0zvQTsnUuhQva6GvqG0t/mutOzWT+pLTXHcfZkCMFogZbfMISK4dsGnmBlKkvJbHLYR+NcmDWQCBqq8s7jhzItr6xqfIN7oJztNYb4ghc3iPgrEGSO1pruDYrBXzy+M7haOiapBg40zXLu3NlwdorBoJD199b+iwb3SmEE0MU7gERVg706y6W+JhZ0XgYIv3IGJXTnzMUCiFGMpp5VVULxEC2ef3SoicAVZjUBglIagsWjojyKzMqW0/POgEf6+oZjuN+JAkVjqRIga/TD/Zy+jsNDZP0QHFoFnR7HDUqmDl45gVKw3lWSiyxgO6PZdhNLPeHe2Yr3ak8uGvkgE8erWss+a3R3k1OQiq1CQGIhq6dWtE4NGsEvLq49WPoiouTUChBkASt/BfTm+nssIrPAKLXpJt9470U21k4wdnTx3eOtmpiiZKayuZTBcoqP0EFoyJYNgMif//Cqs7BA93+vJpnK51eloRKbUEA6zqpjwrtTMueCNzBH0mSQ+K+801hlyzoUuhPvn5J4YsDzZGDBQsCLogrG92RefvTYHWWlRRLdDLGyIYuIyKZ5BKp/SEUjsj7WEGX+sZA94E5T5ZuVsz/Y7Ram4Tz8CCQTZGY1l/Fd/pUwKsr20tIuGf4Ou7oGwFRgKfU9LmNZfcPVGdGz/xWmXQ6jmS2sNoV47enVT00yEqLJQpmlbedhEIWK+0PuM8e9iNAMXXKuIX5A90P5jYVr9CgL0WM/yw8CGSl4w6TBn6YaAGvqlrgsuEfEoCIe/XrhH29vZvnthTfNpAdubat+CljOJY+4WFUQO5RsmvzF620WCIRMYLvSJJiIEXf2483QfJjw/cZVGk9AaC+qeQ32vi/SsL9cF+ngYSoqi5tL0ysgB+yedRXHemeGPfZ99akNfMqV1s3RiakX8S2+gzP5uBi26XM0t/UFLceiAYnKuMP3NGe+de51hsyiDTO9FX633EEMO+eCQmFAGF+NGXcrU7iBPzCozoHs4HLGOI+9xZgjL9GAZ8758nSzdaFATYVYKMy3vNxJbMByBOPL4ciawlLv06RDnzRcfKGJaXfQjxReDDe8NRpZYsPtx4BcE178VrTixcyoBd3vfQgsBUidfKQkYd/JXECXnCA+pbruB+N89pYYCBkaYwxF81rLP6Pdd8MNzcUdmnNd8S1CpWCkFBfysBorWHpJ/lGBjxjIIs3bNnxckSqQEpRYX0iw5zOCR3a966TibhaZoAcvnzGsS0FiRHwWRPvHYGCLo37zndgIM29N9Q1Ff/Juu27jEzit0r1dsXRei/soCRE0YzKllOsJSz9wfeOX3oAIB2vWdmlDBtARivg27F5qPix0v7f4i61Gl4rE6mj8ADxzcQIuOenznNk6uA4iyZIcsE36UfNf/ly667vpb5pwvMG+a8ypiicUAph5HRrCUt/4I/xTnBIDh3oEXgoEsEixsA4W4PhbW5uKOwCoy5m1um4M9O10YAMM4LAN3YBn1a2eKQknBpns4AgqjRsNrJHF9hz750Zmm7VWps4ygwGUTghVcwoajvRWsLSD3HnSXHsLiU2Ahe0D+X7R9un8Ta1i0se0J66UVK8W+mGFWQC3rzzYxdwIeQ3HSfvwDijb0EOaKWvrG8t/Lt10/fn4UZaZkA/JCiOhHAGktJBF2ZaS1j6fBFP+MmBUDZ1VwmrkBnxSfsk3iV2DD/xtfevuLPStyQbXjy7qG1UbAI+teKRoQTw3TjPvrdcGVv8aDP91LrnzlkChQqY/y+ubMzwLBzEaTYKt/Ql1Sc9MIQ1HGq3z9+1qBH8cfsU3hWFt5W8xb6awQZNnA1PwkqVInWAor3vF7HHAp7CTWdJkTrUxJQ4gihAK38tkHNxKE6WD6TrJXGPUv5zhDFG4SmssZaw9JlXDfX2YaAxcV9hTdQzYRPI06H2SbyX+tbSRgPe7+JueBL2ixDw3VkTl46IXMAnH9SZh4AXxbnqFSTAgL6i/t7xz1q33DVuXlHYBQJ+Hs82+pYoHGni9MrmU601LH0BEY8l4kHMbB/GtgjPBMuZfaeMe9yxT2MHwZ/Hlyvffz3OWulhFO7kHahVzzmRC/h+R+uJkuTH40pekyIFSqdbH22SP7PuuJur89fpdqX9NyiWpB8GIiGFocv6q5WtZaCpFYwisoX+3jPOAIalB28qsM/ivdS2lbzMpK+K2280K2BBF+5NF7k9mUTJAHw3rrNURAJt1CYUYprdOt996h8rXG2MuiOuO5FhFE55JdPLW0usNSx7L1U8NAlNKxL2TAIJH7RPN+TZp7Fj1jwtblO69/E4E9pM5l74EYO79ZcjE/AZRW0nEIpT4qo5LMkF7en62oUTnrZuuKfPEG9ROr05rokPiUmguNzWSLfs9STIkBd3mcwkSjgAOu7+nt1Cfx9uf6mwF4AuY0AdZ0IbswFmvmjKlD077thtARcpmCLIiaXfbrBa8lXvk7DGzLMuuOdc01j8H1b8p7juRGbqAouTP1Ox5ytPiyWzGLTh9w4XNlqj2kz22eyEusaiVq28ux0RX4W2MJmN3XEjXlxb3O8Cfunx93+YGb8UT8cxBDZoUOMsW7ClD1Z+iDcoo7w4V5+AePmUcY/nW2tY9tyRjWfT1947VxKy5h6wR4wftNBB+IFWflechYCkRNRCfKffBVzu433NkanhcWSfB6skbby7aluKmqzb7T31zUVPGKMWyZhWn8HK0xHux4fv85Ztf2jZYwTTJrB3wHck4r0iD9P2OeycuU3FKwya22SMddK19gM/Lqkpbj2m3wR8akVjigHPiePedyZxTW80Rl9pXa7vIOZ5xmgVVxRuTPjSNTM+17KPtYZljyY/1Ou0rcL2rvg7GM+4qXfkum77NHaBt3iuMuk1cV0rY2CQjpvHqd3v5b7LAj4IU6cii6PjqLwWrI4M65/ObSl7xnpb31G7uPhBzX6bFPHkumytSIRDyDY6seyZWPn4OjN4NpHtnQEPA78xv2FSr30aH0zdgyWvMvP1cWaka+ODYfrq7pZX3Y0tdP6GI0XkoyRYFfk6/Ypgd751tT4f6owk57COr4yVMh6QFN+ZXdr5UWsPy+7iC70GgNeBzWXbbs4kQMIXIY5M46x9Zr23+Cr9YlxReBDMuMLdz3fgS30u4DM/3bkvaKiM4+qYIAmIpu6aplPesG7WD6vPez/fqTndGdcZELMBSXKIluqH1hqW3WV+c/kGMPxynFW1ErgwB/D5X/Y57DrXLjptPZOZJ2Is7hLMhYT8TQCmPhVwHqUnSjc1KurkteBher73zKaV8lfWxfptsBsGUWdMfFG4rz0gSn25urLdFnex7HbwAoRPWgF/ZzSHEm13xt2dCTcM+rXv+8/G0ysCQBsFyPKEWRNbjtvV79mVd4pE8FWIodYwBusLrWvDGt6WfqO+qbBtZmX7fQ65E+K5IsiAwAIAr54y7vH7blt+vF9VtcA9rHu/ArOhd1BaStdhH6nA8XU39G7q6uq+bfkXbIKOZUvkwg8B8Pn2SWTOv33f72KBT9qnsXvUPXjypurytusEOT8Nc3tjmAel4zier/4fACzfNY38AGZ9sfNwViZYzRVwhEcqQfSttHpS/XPdZ+e/MqnHulf/EkS/ApzFGjyKc/JhNk3IIAzCAcgwHBjyDYIU4UQNGgDSQLCJWbyOxC8xmH8h0N/TXfjk9Us+/xIA2nO/gea7xa0fAxf/hoApHuDHvoIc0Fo/XNdUeBIA2vt1u8nUisahgyC1nEgcHseNK0IBxpgXYWPq2GBB8YF//wO3Y3x1mhSpgqgHRhB9I+IcK94RrT4bi9o1pNtljFWJMufhboUQbqkgeRQR7Y+ChgvCwUA4GAUNQ0H7EIrDpKATJTlfcynvhwLFPakCeLKmonPZrPLOH82u7DjBlmkdODzSJp81AE/ZpiYZAQDmVivee8aNTZUb2cBNcZ2FG9YghDwYhvcU7pK9dx7QMwLQl0zkZ98OKOU97Rfk/8m6VHS+A8pcY4yOtTawMl74ZYwK2yJuqRW85Svz/4GTa+OD0mnwdW+mHCGaISTEZ4XjXGEYl51YActqTuu85LJT7t/Pmja3WQKFyihcaM/BMRg7GhjutV6xF/oj3d94fnpVXP4UdorUeNZeC3j1aa2HI+KnTcTZ52HhFkE3zG840UbfUUbhLaX3aVZNcUbhex69cyjkgaAzGkJBn5boXGeG6OWzJnZcW1PceqC1cO6Sl6a7lEmnB/J98CBq1Gz+vuHN5/5mPWLPuXbRKeuJzG1x3QsPb3sRFM8444MLXO18C92IUimc/Ci3zwllEH2/KNP6j9aVIl/BMzJcpZXyIasnwrfFHJD3E+TWYEo+WjOx47KpFY1DrZ1zj6uXfP5pMLxEiIHbgCuIGIn5jtuWX+Bbj9g7vF76lfJ618ZRIz08ShTuaOqlkr0ScASeyBFnn4dnDww/r20recu6UQxReFPJwwZUrB16+hLDJiPkAGMluVcVQP7SmtL2Cmvp3Ft8egpvYR6YSWyZ7PPe1/lN7w/WF/ae+R1F/wXGO+OrkY5B2PzlPRbwzNkhfVZHmIkXOqH21wPS7daFYlzJ+3CVNrobc6i6lWEdCjkKPBZdWjizvH3ehUctGGytnTsomW7Uyn8izpKYcREIDTP8uv6xiautJ/QNOq1vU366N45jmTCvx8Cpl01oH7tHAq4GeycJkiOiLN4SOiHou+qaCl+x7hMftW0l/zRK/SaufuH9PTDYGOE6qWlDDhrTdGll2xHW4rnBjU2VaUNcOxCjb6V61+q1+ibrBX3HnCWlTzHyYhHDbmS4je64o7SAwj0ScEAoo0j3/zGYXBUD/dy6Tvyke0Wt0v66OPvk9tvgAA6jcSHlyS45rTMrWsZbi+cGjzXKu33l3ydz5AhoVwMfg3zdvMfLVlkP6OO5wsCtSmmOZ2GGwJJP220Bn3xQZx4aPDnK7XNJEozhh+c0Fj5m3SZ+rl9S+CKgvinOPrn9jdJpQIADBTj3VJe3ftFaPftZAoUKiGYZpXtxADQ4EeSAp9Mretm/wVq/73lx6H4dwOrJOI5lws6fiONriluH7ZaA73OE/1EgONyYCPvsIgEj324LECQH6oUbfJ1+KZfv1+rMlY1hJFJ31lS2nm6tnv3MaZzwiCF9fS4eAb1r0gQGo0Hz9BubKjday/c9DQ1Hewb513HMgYY1ENIB7NJndkvAyREnSZGSUXWjC89wtPcGb9B/tS6THK5pL14LGq7N9QpXwUAB0AWIzm+rP99aZC2f/XTli58o1ftYLu8gOSIF7Oub6puLF1uL92MgsxEW+NqL5ThxS+RfslsCbgyPj/LudzjIFDfOWVb6unWXZLHmGfq18tM5n9kbdnBCGEIF4nc1ZR1HW8tnNzc3FHZpxvO1MetycQdJihT4ynt40ypxubV2/1L3YMmroMxCGcMcGM5LwBPerzT0ewR8xrEtBUgwzpjozr+1UcAI9v5iArn9pcJeFHyl1rl/wTbwQ0I5FgT+dtbEe0dY62c3cxYXPanB/w6A0LmUjBkspo3x/6vQTLadGiMSUp9+4ysV+RwY6DCzOGpcZfehuyTg6Q/REQh4YFT1z8PuK6xe4NfMUusmyaR2UXEjsF4YrPpzHWU8kMI5TnPePGv5HBDxxpIF7KdnZaLw7E9qyzQrwY09vfrseY3F/7EWjoZ0Xu+DjObpqJucMDBIKQdJlTpxlwQ8D3GcFG5k59/h1ixD45wnSzdbN0kqGCznrjDG3zwQMnt93QuSnG9OL2k5y9o+BxagLSVztPGuESSyX7wN9Gjfm3x9e8l91rLRcWNTZdpX5k+E0ecDBTMuC56wSwKOhj8b5UrVV4oNwT3WRRIeySwuetIYc5PAgVHliplBOKJu5qc797XWz4lF6Ops3kbPlJjGLmPU2XUtxX+x9oyelPHvVsbzoq7Mpo0GYPrM1IrG1E4FvKpqgTCEn8xk5UazomRUL9OGzY9Y98gCUQMYMFt2hhU4InUAjNE2SSjLmT6+czQAzoz0WmwfkqlQyWs0my/XNZfcbS0aD7VtlU8z82NR38ph1kACD803eYfvVMAPeXXEWDJ8WFQCHqwqCaCz7sHTN1n3SDY1xa3DkHF21L3h40TpNBCLc2tO6/iE9YDsRbj6O8FiLKp5rS9xRB4o1n/3Nntl9U0TWqw1413Xa4Y/R32rgYFBkOMym+N3KuBQYI4kIYZHVf+cmcEw2DuMWYB28TzHSR1uIqzOF/+OA4OUziBWZpb1gOyk+qTW/VGIi8KCPVkEoQzzg3zj3S56dfG8zrJ/WGsmYDHoy8Y4GpwEr8cSTty5gEtxTFT3fcPOY8bfqN/Qy6xbJJupFY1DCeC72qgB99kz5VbpSzXFrcdYT8hChuKl0nH2yZboO5iog6gbGFYp7U2uWzThm2FBJUsiWDlizX8Y8e9Rb6MH/ssAx1dVLRDvL+AGjo1uhSmCF//7vMdLbeexhJMPzpekSB06kKLvd0ThjpvHDk6xnpBdzK5sO4JI/I8yXpYIdwqQqdf30rcY5s/VN5X8xloxWTQ0TNJK8+Kot9HDsqqGDz9g7ah930fAGYHgY5EmsPm8FADZukWiJYwY6FzggWumcPsV4Suzi9pGWX/IHhTj9wQ5QznBeRuElIm4EdNaqT8aH06pay76jm2pnFxIc4tSvonytlbgwyTkMMeYj27/+9v2ASZ/4r5hoPlgjqiXiGYFWghbvCXh1BS3HQ0kT8y2M8S+Xv1K4e6rZboMAO60XpF8ZpzWdqJg52u+Ticv2kbaWv8CjFGvad/7s2H+RX3zhCes5ZLPxg3D/zF87IaVhOKwKI9mwpyIQeaTAND+HgEfvb/eH1CMjmK1GjiwMbw+tVk8ad0h4eLl4Bdcclxf9w7wJ4FgBJxpBTz5VFUtELgJfkQSXBPzzlEw1yEQEGV+DctGg16jjVoGyH8Rvdx8dUfRGmu17OG25cd311S0PyiEPMzoKHMrGIj5kzuMwEnQwQLIjSJRiVCANvrfVy891TpugmFgrOH28my8ftPXaOMDAp40reyhkfObT1xnvSO5HNw9/EwpneK4z74D8WbG9QxmtTH6WeXTE0jwMG7Uf5uzrMg2bsrmuZG4gwHOiTSYyjRcOipYoDY0TNLvEHA05nASLmiISMDZfyJMm7MklunHtxwgyPmEFfAtZ1Ao9nXSXcdtv4VlSRZTKxqHIssfxl32XJILyqjF8JZz3sr9R7zZ0HC0Z62TQwt6Xz8CMp1GwFRUnTvDGhwGDjrovx8aBQDhAnBbEhtqOjTa2A6WWzdINjQGPylJJDoJKEoEOcD5cKJ9EsllkHamOsL9WLw5GxhES5rRXF334MmvWvHOPV4e9tYLYOA5irC+PjMDkhghh/YctG2Ofnt24oM5ooBYKWXQ4FPWDZKN0eJTudhLeS+WnUCMn7JPIpnM+mLn4ejI6XFvnUvhgjG6uX5R0QPWKrlJQ8Mkj5GXRzs/MggpiZk+8m4BJwb8EEeQ8BGeC6FeZzbpF60bJBsp+ONRbQ9lhYBniikcMWXc4459GglccPr6J5LkiHh3jBC0URoRa+0V2ZznYYihIhuQOfIdAj61onEwGLNPFI5PSACML7/0oQ22ulCyIYNwiN0+304gMmdQ+44e9tZI+zSSxczK5tMEpqp8HX/0zdosqm0ssldkc31Bj+KJzH3wKGNwBmY44h0Cnu87w4FoRBTRFoZbDvzC1iw6SzIJFnWEMMYK+DtC8GDIDNWOP9o+jET56lBieS2QIYhxxyiIjrRSPqC5BsBuXeU6Tto8Z1i9GWWb2mA+ZoSDwsJrWwXcII8EMPmRbKEDBir+rDV/shm00RkMGobaLfR3rn5RgmOktBF4gshDZ6aUqaPjLjYUnn2z/ktdU8nD1iq5z9XtResA8Pkoz8HDgAph/wur7ivYJuDoiDGEQkSzaGQwbFZa8ycbGizzASg1kEuo7vC5BIPVM0Psk0gGsyrajhMopsV+5zuMvv1egXCNtcrAAAGDMHhFpAIOBljDKP167+htAq59PTqqdHjNOtCEl635k41P2gVim4K+g2FrCPPsc4ifW8c97iiCeUSyIO6jHilSwMR3XttU/DdrmYEDAzwd6etxOAUVDMvDfbYJOCGORqBoJj+jtJRmtTV9spGSEDSifRI7iMKFfS5J4PmxG77jUurzSsdfcU1rf6NBfa21ygATcMX/ibZLI4MjHUQh9ns7AgcaGY2jIzDgZn812FKUSXdMP60AjU003MEAIkZbmCNmqss7jkQUPzAJaLIjyQUD5tb6e0ttbs8AQwwSL2o/064wsgACBbCmtwXcQR4RiYBnUtg2OsNpozV9snFSBd1A5IONNd8p32xA9+rN9knEx3jolAD6eklyhIl56zyYTJX2XuM3aJ61zMBDbcQ1jGY9Rrwph8RvC7gRMCyaVw0icN74woj1Pdb0yUYr7DIAXWAV/B1LUKONkXm03j6L+DihQn1bOnllSWgVGrYFBTOn/rFCeyw4ANnU9Z+3kPB1ivAqWajZCGO3CTgyDI7kDnjYUA83NTRMsluQCWfd6kFdxGYdRuyYiZbvYAFK2MU+2yJEMVFTtvhoAPFjY1QCxFuCp3tXbHpR3GYtMzC5bfkFPgC/Fk0OWYaMVuPbWeiAUAAR3QFnNl3W7NngmMf7gLCKwAr49v6LYN5cv773Tfs0omdqRWOKSfxUCmd4MjrkhTUtfnDzikI7pw3keYHxtUi30JkDJR0J29VCz4sohAEgsueH2QLzMzYCf5vwvifzytuWf6HbPo3oSSlZ7ci88crEv3UetgtVXtuL+WvvtpYZ4NMkwpoojxoZTPBqQ4MpaWs/8Mh6mgJDrzV5ljgmwN9sJbbt158U/Osf9klEz8yytlMEictUArLOw6ItrNLI9D1bEtoCwG9EG1cxaIAhUysanUx4ZUBG4/gAbNief2eLW3bLJ5SvfJvItnXgGACCh+yTiJZpZYtHgsBbUFBeEmrzS5EKvOGXdc1Fj1rrWIhpbdSl79HgIIBRKWJmNAQisjeAtjtGtpDO73kWiCNtWp/Y6BsIPN/r0gYfs54RLQ7Lea5IHaUTEH0TCvB1erXXA1dZy1gy8a+/0URYcjrsyQCccru7XUIEJGZ70Gl5Dzc2VaaZ9X0CpV1lkwQS8MTcxqJV1jOiY0Z523nCdSb7ujcxfsAAP5nfUfRfax0LhOXB3U2BjEcLp4RSLlVVNWC0GXQ2KyqrVpcM9+gEXNmJP/Ii0Ix/hehH6oBlZknLJwnFnKS0tM0krvU+3Mvpn1vrWN6eG/xeE2nTJwbDKNJSudTQUBW2GI3mZQGQ0LUmzx7wVX7AGP0cDeAoHAFB6fRmEvqv1iOiYfIn/jycHOeXUohEXBkLr8ACeExYfWNTZdpayLJN1wR5mUUmRqXfQUAhBg3LkwSAzAg6shc3YDs5ZRFznizdDIr/KGjgCrgQbhB2t9la19ExduyQ66Rwjou7Tei26FukQPveL+sXFS+11rG8IwL3URsTcd9lMiQ9FrTlTDyaPVIOXorzrcmzbIWZMrcrle7CAdqEyxgNpOBW6wnRMKOy5WLpusk590YJnu+v4nXpH1rrWN7rHxzDXVtETwnKlFIl8KOJ/BkQabA1eXYRRJ6MpkFSasB99rDTlDEPr187rM16Qv9z6YTmQgnutZqTk3eBYaav+l79YxNtvXPLexf4jEgU/V1b7fiZhDJm6MUIXj+Mv9EMrapaYM/BswwUYq4yfvdAq8wWFrLRpjYsLWvpVy4Z33SwHOT8CgkGJSZxTaRAK7WorrH4d9ZClh3OjRJkRj8jTWRj4W+5PoYA3RDF9mhYwxWHHrp+xCBr9uyiduGEp42vfhFEpAMm+g4mb+21rxy2bqH1gP5lxrEtBakC93ZJzkFJufVASKCUv0EbNQMA7e0Dyw5RyriRBzYGGKQwW7uRdWFE0QwDDPU3mKHW7FnIenm10t4rYU3wXF9VA4JRqpcYZ9tymRGI5f50vSNSpyqdnARvIgcQzY/ntpQ9Yy1keV8/MZwfaX4Qhs5pGEFlttABNkaRhc6ZLioFzr7OSGv27KP+scLVDPqygbCNHkbfrK67dnGxrbzWz9SUtFVLxz0vKUlrGfu74Pvppd3s/dRayLJzZ6EhGGnXxlCrNfnaz0TgAjZE88IMAqUwvtnPWj07qWssvkMb//eOyMvh8eiCr73HN78sbbnMfqa6ou0r6MqrklAmddv0iARG6y7Q4mJ759vyQRiCYTEENb55S3rhqyqD6yLbbiABhuFAa/ZsBdlsMP+rjPeMyMHzcMLAP/V6JDjf9nnuX2YUtZ0IQvwMgCUzJ2gB54ABfXV9a+HfrZUsHzhnGBgNEcffCJBWI9MZAScFa6NrG4lACIdZs2cvc5aVvs7KmwygN+TSeXh4joVC+57/3dp7J9i2of3ItLLFh0tX3CmAElFpbZt4Cxd85T/QwwfNs1ay7Nq8wWMjfkVgA73pVRu3CLhr3ojq2kawUCCCj1izZzd1zeWPKqPPRxReLpyJIyAIdMAY74q5raW/txbuP2ZXNI5xpfsHEuLgpG2da6M3ofAvurHpI3br3LJrmmZwP47yClkQaBBvfnrFmN5w5tXMb/pKcTSJbDr4qIeNh07b4irLqW8svksZ/7uIUmeziIfiLVzQvldX11h8jbVs/zHj2JYCTanfSnLHJaVM6rbomxzQrH9Qe2+Z3X2x7Pr8Qbh/lHULwrr8hjctgcJMFrrWZi0B9kaRCW+CD4riwyedIsZY0+eCiBf93Pe8C9GQn43b6YgIghxQ2quvbS6eZS3afwSLdvoQ3epQqixJGeew5daB73vNjzWKG6ylLLvKlHEL8wF4v6gFHBHXB/+9NWxaB2TeiiYCN8AMw3VB2p6D5whzW4pv85U3GRA3BWKYLQQLDjaClZe+vK6xqDriUkoDjs+UqnmOTP2/pIl34Afa16/77F8URDXWUpZdZcSIvNEANCbKLfRMrg6v3Sbgm998aRMAvkkRbYO60kFD9Alr/hwS8dbS32vtfYEZXsiGK2aSXEADGwD9yXUtJfa6WD9TM7Hth04qNdXXXuLeW3j2DXr6/Oby56ylLLuDQfFhBB4SbelfBPZ5zTYBv235BT4yvBrdZXQGAj7emj+3qG8qXeJz1wSt/IVSpIASeC4erF6DBYZhvVz7qqSuseS31nL9Ld6tMwidK7X2E7fJEfiCNt6v5iwuusNayrL7kYA5Uoror9OSg6/BdlvoYJBfjioRybAGZviUTWTLwUi8ceJLzw9+4wxlvGnMtC4TjWNyom6gtK+8uZtNz4S6tpLHrcX6l+rytguJ82oNK+CEibcgBzydXuFrPcNayrKHsfAxUc9vQbRvGP77DgEnw89Htu1gNADS4Z+p4IOsC+QeDQ2TdN2iouuU4pM0+39kg5xpgoKxTdQizDBW92nQJXVNE2bc2FS50Vqqf5lZ0XauEPJ6gz4lqVALbNk2Z8Zu8PWU+c3l66y1LHskpoDHRt05T7MCYg4FfFsEzIjPRXkXXJKT72vveAB43rpBjkbjLYXPAMDXqk/r/JlmPZMZS13pojI+9LevhVfDyMk00NHmMV+Z+XNbf9QAsMQmKUUi3q3nCJC3GDAyKa1B372o6033fn9ea+mD1lqWPWHy+D8PR8MfNaQjjPgRWEMPuXL1OyJwNviC0spEFSWF2/UIhdYNcp+6ewvbaxcVlhuDE7RRv2cDGxyRl9nS7sNjm62iHW7bG+zVRjdpX395M/ScMre16PdWvKNhRnn72UKkfsbEThLFO/AP5Xt3rxq2fr61lmVP2W/okI+gFGNNlFfIgvmSeC13qzdg+z3NGZ9r2YeG09OINDqKQUckQRu1ope9T9mGAQNsgv/CkkOE4dPAmNOB+XghnbAZgAmvGGpgCK8a7jThKXMXksKv8DoYMCilehD4H4C8CDxzT21byT/t047YthNbzpaY93NglTIJjbyNVs+ZN+mU+scKV1uLWfaUmsr270qRuinKa5GZmhX+Y3VNRScgIG/bQn/pQxvWHrJ55CpCGq0jGHjGaEAjPpKn5ccAwDYNGEDMWTh+JQDcGHxdMr7p4NQQOp59/TkU5pPAfCgAjgbggsBZA6GGbRWGOGxJGyZEGephMGuBzUsGzZMM+hFgerh28YRnw3b3lsipLm2bTOjeBqzdJIp3eO6tTY9Cdd7cx8qseFv2CgZzatSJmWHQQvB8IN6w/Rl4Q8MkXV3e9m8S4jgNKpKP7ziOo4QptgI+cLl+ScWLABB8/SkUgZPuGULDR44xpncfw94o8GiIAchDMmgA0oJok1G4DlL0+uub4I3blxRusE8xAdFIRcf/INBPmVUit83D6AUl+KZ39tzmsvutxSx7w4VHdQ4GNp8xJtpTuSCg0Qr/vfX/33mNi+BJAPxaZCsYNqA1TwTgubBlRWEZ2NQ9ePomAAi+XrBPIzuYUdl2MZKcx6xEUsU7PPdW6d/UN5fYUqmWvWbIIeZYMOLAqDvpBeNLCrPibcne/g+J/mE4uhWFNj4Q4adnVnQeal3CYsk+qivbZkuU1ydZvCW5oHR6+epuusQGCpa+wPehREpJ0RYmwkAzFZD49w4FvIvNM9robowoE52BwRGpAiBdaV3CYskmGGvK268R5FwdJh4mVLwJJRij3/C0P9ket1j6yPdJCiyPOvrOVLbkNas34Us7FPA389e9AoZXRtlVKhj4yPiVd78Xi8WSTKqqFrjVZR03C8edZUzyKqxti1eCCc+Ar0D9z/zm8qet5Sx9wfSK9o8CmuMiP/9GAdrAs9svRN8hmg0NkzwgeBIpOgEPG/ojnjBjfMtR1jUslmQztaJx6MHdo+5w3NS3lU4nVrxhy5UbZv/KOY0l91jLWfoKqeA0R+Slovb9IAJH4L+94/d28PcexghLXobb6JRKUQonWdewWJLL/56yeL98zPuzS6mqpLUEfTdh0lo6ffu1i4trreUsfcWCqgWCBXw56u1z2LJbTR49ulMBF0CPKOWbKOtWa6PASPxqpjm6xWJJGtMrGo/KG5pqksKZkHzxToGvvAdg8+apaJPWLH3I4+tHHIeCPqVjuD6mjJdWUv19pwJuPP0Mo3k1ylaQhhU45BwxfExesXURiyVZzKxoGe/QoGZC8QlfJ7toYlipyngvaOSzt1xJtFj6LgqW9HVJroy6LW7mWJtfeHnYAS/sVMBr20reAgNPEEXb6TMspYl4vnURiyU5VFe0/T9BzkJEPEAZL9HvlVCA1maDZv31uY1FL1nrWfqSyeM7hyNBVZi3FfXCFAWAwkcbGo72dirgkGmRdh9G3PpRaw8EU8mM8Z0ft65iscQOzqxsvZyEezsADIl6y3BPAgAw6DPq8+c0lj5izWfpa8YO1qdL4R4Qy/l35gz8vnf//g7DbFR6qU9pDRDIPkf0BhkcJ5UHJj0FAC627mKxxBR1n3TPEBw29Hoh5Le08SBpvbzfM18BhtG3MmpmfXPxXdaClr5mPHRK1voCjiGlIjz/VqpHOrTs3X+2wwjcHzH4aTD4QpTn4AEqmCyQvz5tQvuHrMtYLNEz49SWQ3DYsHulcL4VXhPj5OeASZEClfbm1DcXXW8taOkPTjhNjRfknqBjOEYKj7ORn36uoOj5XRLw+Q0n9jDyUkFOtNsEbMBx80bJQXyedRmLJeLIu7S9UBQ47UKIU5Oeab4VR+SBr3p/92irnG0taOkvjMZLSGAsxcbCdsnadDQ0oN4lAc+oqV4cR3nEsD46w5Tp4xeOtm5jsURDzcSO75BDC0nQIUqns0a8lfGazX/NBUugUFkrWvqD2ZUdJwgQ5VrHk8TpKZ89xU07+rP3TzVf6yxVY9Q6RBoZpZAb1sHA/BDnYxCF2yIMFks/cuFRnYMLDuY5hOKCYOyZGDJs94Rw29yoR1UXnj33ydLN1pKWftMk4JlCOk4cC9vwZoVRL/qvycd3+Ofv9431jxWuBjDLRMTXybZG4Yw8dfr4ThuFWyz9xPTS5o8OPQiaXOFeoI1KbEOS94g3ucEc8Qyk/aq5SwrftJa09Bc1E9s/h0xfVDFF3+ExNmHLzSsKu3ZLwAOQ+a9RXyfbGoW7Iu9DlO9faF3IYul7Zla2fdmRqQ4S8uTMeXd2FCwLJjTN5mVler9c21bysrWkpb9gYDRsriApnbjGRxDMGsN/ft8IfWffrJBafO1vQsRY3jihc1F1ReMB1pUslr5h/EGdeTXlndcIlgsAYT9l0lnz3gVJYDZrenXPV+Y2Va6w1rT0J9UlrRUS8krjygkhFEEw+zy+yg/skYBnqhmZB6LORt8ahUvhjGHtVFtXslj2nksr24747FFwr3ScWYyaDGdP3heRBGNonc/epOsXVzxmrWnpT6ZWNKZA0g+ADMW3YA119545O8nx+OA3p7kBYthGhy33woXjnDejvP1Y61IWy54zY0LL11yQ9wkpi3zdm+g2oDuKRJBpo2F11tzGsvutNS39jUvuZEe6n9axJXWGzUtU2sAfdva3PjBDjdfJJjUyvRYljYo6ySV4PSGcfDDqJwx8uu0sZLHsHjXFrcPQkT8BgosAGLLlitj24g0Am33Te/acptIWa1FLvy92P9eyD2pxuQEN8UXfErTxH311yLondjo+PugH1T9WuJoFN8sYttHDKFyngcA57dKS1i9Z17JYdp3qitbPguN0COlcZNhAHDWc9zryBtHtp9U5c5pKF1qLWiLxu+H0PddxPhzneEEkQKZfNzRM0nsl4OFfUnSHjvHDCMHouuLqIJqw7mWx7Jzx0ClrKjqqiWSbEPSpbMoyf0fkbaBHG2/y3LaSu61VLVEtehHpgjh3qgLf97T3mure/OcP/Lu78gO9Yfn3aaWfoRjuhEOYka5AUuqj7EKNdTGLZScTUHHrxz47ke8V0qll4IKktwDdWeRtQJ9T11T8J2tVSxSEiWuIcwXKVJw5IoIcIODfz13yhTf7RMDnN5zYg5rvFChj+1DKpIEwdUl1cevx1tUslveAsyZ2TMGUvF+QU5ZpRGKyULzDOWaz4h4r3pZIcSF1kRSpz8W56EVEUMbv1kr/bJfGy67+YJbenUqluzCmjHRmBkLIBxevD1dKFoslZGZFx2GzJnbeRShvRYDR2Zao9k7x5k1Gq6/XN5bZtqCWyKgp6zjaAbxCx1xKWJILhtVf5raUPdOnAl7fVPk8M98rhRtjFO6BI1Kfy2NnmnU5iwVwZmX7+YLwAUHyjGB8ZFui2la2lGxer5WeVLe45K/WtJaoqKpa4LIwN5KUw+LdtULQhj30YP4uL3p358enfb5V63j35ZTxQQhxud1Ktwxkqss7jqyp7PizQ/JnALCvn6VRN2w582NDr/vKP7O+uXixta4lSg7ZPHy6I1KFcdU73xZ9Cxc0+wvr2koe7xcBf3Xk+qUa/IdETFfKYMvdcEJZgC7dUn3SPUOs+1kGElPG3erUTOyYigIfkMI5PVjQZmvUDVu2DFmZVQp6vzi3ueQ+a2FLlMw+re1EwrzLVcxb5wgIxmjPM7xbHTh3S8AbGiZp7oWb4joHfzsK90CK1DgeNuga64KWARN1F7ceP3LsRxYLcm5AgNHZHHXDlpagWqt/qx6/ck5j6SPWwpYomVa2eKTW+DNEzo874TMYC8aohusXFz/WbwIeoP+Tf49S3tNxRuEBweSF7F44o7zlbOuKllymprh1WHVZx08oJe4jkhOUTmd11B3giLxAvB/Xm1XFnCWlT1krW6IOeh0hr3Nk6ui4E9cQCbTyusDnq3b3e3dbwOe/cmKPFnBD8KLxwkDEKIVzw6yKtuOsP1pyMuqe2PpFSMmljut+jwGy8l73jsRbGa9Nb/Anzrm/dKW1siXycVXR/l1B7jcyRY7iJcw8B3NrXVvJv/pdwAPEhrzfK7/32bgKu2wliEIIaQQD/nbG51r2sW5pyRVmlXUeXlPZ8TsEcQ8hHRM2IMnCe93vijW2ivcfeMOmM+csK33dWtoSNZcUtX6eyKlNQje+sOqa768yb5m6Pfr+PfmmugdP3gRM80Sm0UCsKOODlO7RNEz8avxBnXnWPS3ZzIxjWwpmVXbMZAkPSeF+nZkh7i2+PpFuJJDkgK/S161f/ew5dQ+evsla2xL5+PpCyyGpPPFrRJOfhAVxWDKY/B/t6WJ2j/fBu1bRHb72/yVijsJhy3m4I1OVnzlaXwcQc4adxbKH1EzsnCg/7Cwh4dQh8OhsrGH+fpMUASnN/sy6pqJpty2/wLfWtkQ+vopbhwkt7pDkHKRN/NG3FC54Kn3fW2tG3r7HY2tPv/HmFYVdoEwtAiXCOKGIC/eCmRVtP7CuaskmZle0HTWrouMPAHwvIo3LJKmZnPhsYbKrgbeMp79Ru6hojrW2JQ7GQ6dkl24LS6Um4PYGIoExphuZpt+2/Hg/cgEP6BHeH5TyHo07Iz0Dg9Y+SCGvnFneZiu1WRLP9PELR88q6/iJAVompPPVXNkufzvCSAGAWcmsTqttLfqDtbglLk6oUPWOcCclIWkNtiauaX9ufXPRE3u1ENjbNzKzrK1citQiDelEhOJhH1WU2vjpi+qaS26xrmtJGlVVC9yDNo35hiSYJYRzuDJeDiSovZNMsppaZow5p75pwvPW6pa4mFnRdpkj3KsyxVo4EeKtjb9cv6LHz3mydHOsAr7lAd3tytQZSSksEYo4oPZBXzh3UfFt1oUtiZlMytrKhRCXE4mTDBtIQiZs3449BBFEF8r/Hfv6u7VtJW9Zq1viorqi9SIA5wYkjcycCG0Cgz0MakJdU8nDe/3z+uJNTa9oO0qSeBiAhyQlktgWiev0/9Y1ldxkXdkSJ7MmdoxjgMuMwTOkEKhz4D73uwkzajEILviHdc0TrgIAYy1viW2xXNl+viTxf4aNTIouOSIPfL/n8rrFJVf1yZjrix8yt6l4BRg9X5KbGOMFBmNWIlh9VVe2zbbubIllEqnoOGxWWef/scGlgpwzEU1OiveWsf+m0fprdc0TfmzF2xInM8rbzhMsbk6SeEuRAl/1tK8csr6+zwLVvvpBUysahw6C1DIh5NFJSsRBRCB0QBtv3iONomYJFCrr3pZ+F+5Pd+4rRsJFQPxtId1RyqQhCVt4/RVVKKWegN70ubWdZf+w1rfEKt6VbRdIlDcxJEe8CSUwmNWOgZN/0oc5IX16Z3p6eWeZI2ARsxGcqPurCI5wQRn/D5DW37bncpb+YtbEe0cA55/PCBdLcg/IxQS1txfHFF4TM8r/Xdp4F89vLl9nPcAS68K5vGOaIDmHUVFijnODf8jRxk9Pqmsuubtvf3ZfP8DKlltckX9BUtL13xMpGLXMeN4361tLn7XubukrLjyqc/DgA/kcFPi/kpyP6Cxv8/lBZHp4c4/P+oq5TUXzcqLijCWrqS5v/5GQ4goTHp+aROmO5/dcW7+4ZHbfLw76mNlFbaNMCpcRySOSeKc1bNvmq1Wa9ZT65uLF1u0te8OMY1sK8ABxlkC6hEh+3Bidc5nlO14I+89iN3/72s4JHdYLLHEy+aDOvLEf5+slOVO09iBJu7+OSIGv00097J1xY1NlOvECDuE2YlsxGNnIqB1O4MJckARmTmujf/Ti4HW1DQ2TtB0Glt2NuPMPhK8KAfTVsfcAABidSURBVJcIEscEK/4klGfsT7ZumWvj/dnr6Zk6v+O0/1pPsMTJzE8v2leMHvQLId3KpO36hsdLWv873eUVXre0/LV+GZP99mAr2q5yZd5lSdxKf8dkpLyFvd108fVLCl+0w8HyQVwyvnP4oEH8dSD6LpE4ikHnvHBvnYyAsZtZ/eD5gjfn2UWvJXbxPmXxp8TQ1K8FOcckTWco0+hrvUmr0rq2ksf7Tcf6c1tjzMd0k+ukPq8SUuDl/bY4lFGvQI+ZWdthyz1adsxlpyzeTw1NnUMM5wshDzc8MIQ7kwCaAm38pzToC+sXFS+13mCJm+kl7Wc5Dt1IRKNUwo5qwxokhnyN6qz6xuK7+nd09ucKqaLjMEJcSoj76QSfCxLK8EmwNr9hwO/VNRW+YoeIJWB2afNH2XXPBQNnC+Hsl+vJae+JIhCB2fyCek3NNe3Fa61HWOJkyriF+cP3KfgRA14qAp1M2FhEwPCI1lf+pfWLi+f3/+v19zZHZfNpglN3Mxkn2ddptkQavr/KMH+/rnnC7bYYxUCFsaay4xRknMKEX5TkDBlIwg1bdqa01q8x6uraRUV3WJ+wxE1NcesxmJI/FeSconQakphfFYwbr7d3Tn1rycxoVCsCZpa3znKcvGuSvJW+fdQRtnpj3cyKr6xrLnrUDp2BwayJS0cYUF9ExnO1MaekHAcz97gHzg0pQgp3pDTohZ6fvnR+c/lz1jMscS+oq8s6LkAhrhJEI1VCKxmGZVLTvbevHLbuvKhyRDAqA8ysbP+lK/K+mdSktncjhQtG6R5G/qUCrp/bWPSSHUi5yYzy9mMF4/8DgklCyoMzbT3VgLvaHF6xNGo9A3//hfw3b7aJapa4ubSy7QhJolaC+JJhndhdsFC8lfeXNSvwrNtfKoxM5DCySfLYlgI6gBY6IlXoZ0EkDlvKsEpKgfLV6yDMT/V6dcucZaWv22GV/cwuahulXVEOxGejhs9Lx80baNvkb/v5lhsZWrWCp6bXtpX803qIJU6qqha4h3aPvgABrxAkx/iJToTOA6W8lm7orbqxqXJjpGM3yherPql1fxwqWoSQR6ssauhA4QTngjLqZQS+Wa33f2WFPDsnhYO7x55AqL8KTF8QSAcGvx8INw/QQmJbo26t+cdvvfHsTbctv8DP5s9T/fnWIiyQeQ8vgmbb9yA7qalsPhUh9WMS4lRjVKIX1ZnIO73EN/6ZcZQSxsgHWHHrx8iVzUj04SRWatu5kItMpOL7qzSbXxoBv7Jb60mH8bLyjmO04C8Biy8Zw590HRcHarS9vS8HX0arRjZQXds84emsn/jLWr+OJH+OAgcZbR5GxF/4m7v+MnfJF9604yD5zKzoOAyRZ6GhyUIKJ+lBXiDe2vhL/S44c+6Swlh8DON40RmVLSdIdBciwphsvEu7VciV8QOjNXAaflnXVvi4HYKJAWeMbzlaFsgKA3w6IhwvKZUyrEAbPcDLdm+5bcH6VZ/9H85dVPzzXLhtUT2x/X8JRD0Ay2BhFoxPRALfV6tIcgMy3HntognL7dBIHpec0D42bzReiIAXCnJGJzXD/N3irYx3n+rCqrjEOzYBD0W8sGWCU+DcxYzDs7V2dDBBSHJB+b4PyJ0M5je+UU22K1P0VFUtcA/rHn0MA5QB80QGHueIvFSY+GLUgN0i355w0akNC4Q7ejb3Xnn9koocqD44Xs4sufIamZIzAlu/+6rq1sW27/s+ES8F4N/TJmfR1UtPfc2OmniZWtE4ZhClziUQFwqSB2ZL575QvHW61dP+1+Ke6zHWLZOytnIp3T8ymKHZ3AAic3nfCf9bs34ZAO4BNn/q5vQj/VHA3pJh+vjO0U4eHK8RShFNESIcJUVKWtF+n4Wm8f8JaL5Xe2/Rwlz4XDXFrcMgJW6R5H4tk+TEHzxGEUGHSancAkgLoNe/37YXjpbvTWj/kHbpm0bw/zjkHpRNx1lbxPuebk6fE3XCWuIEPBTxkpZK4eb9HrJcxN+94g+3gRieRMJ7CcW9r/7T/C3K6wW5yLSqhwYN2tB7pJLmZAAMBPsERNpPkAS7Pb7j4e0IF7RSb2ljriNt5ueKWM34QsshUsvfCuGetLtXUzMLGicUDaN5JRpo9hH+4mHPQ0mYlHOVmuLWYzglzyXgswS5Y7MrDyUzlpTyfuP9c+23578yqScZ7yoBzKxoKSXM+z2RGZk79aWDFb8Ii2Kk/TQjwb8Iqd2wbnF68bGrO4rW2CG9c6aMezx/xH4bP6IVHi+QT2XgExDhsCDKDqJrE04Atljejgj7dbMBBr5bd+H35ywpfCpnhKC89WQU7u1EdOjeFofalpga+JKBlUjcwb6513SZZfamyd5z4VELBg85eEwRAH8LGEuldAZly1b59gs+gRKU8eatLFhXnaT6CJiYQVnZfiog/ZGQ9s227PRdecxEInSCMFJU6nUkXI4ISzTwMtkLKwZ6nWkGxpqT2vaDAjoSHRjHBk8Awk8A60MCwcbwutfWQg42yv7AHSDj/YN984O6luK/5FQUV9F6DlHqRkAe2tfzRObZyXBRaFitYYMPkeFmn/j+EwYX/XtSA9rCNrs2mnHmKR3H0VD8Mhj4Mgk6ElFA0np176pPAII2hmfXNU6oT56yJIiZZe2fIkELhJCHKZ27R8dbV3TBr8qkAQy9CmieZqDHGfRyqcTTb70Cr9y8orArFz//1IrGlIupfZ0ePMwMMh9HxE+AoWMY+TBCGCnIhUyErbZGkXZO/ECf2lJ0yPirAczcTSvpllzyn/HQKT87Uf+QjZxNxP3exGJrcZtgglS+18sIK4DofmS4z3/de2Le42WrrNe9U+suG995lCnACgBzujH4GcdxHB3e487OXdUtLXQ3ep7/7bmtRb9PZmiYMKaVLT7cle4fJLnjsqXs6t6v8jL1p7fUYAejVC8QvwpIzzLwvwjwX9ANz+kCsYoGFbx+bcO4jQiYaFWrqlogDuveb6jR/j4k8MPM+jBj8EgScAQAHGaY9hcIQzPJf7wl6tFZtbWWlCEsM+fcPSD4l9Cr62rbSl7OpU84u6JxjKG8WyQ5Z6oYojjcsoNG4Q6aBq3VBgR8ihEfAoZlRvr/eGyhs2qgFY6ZWtE4NI8KPkGgi8FAKSMf54hUTtz8yBQ4Mi/42ps8d3HJA8kd/cl0jDH5lPcrSe7ED8ouzc0pGUMx39pYJfj84UpWQw+QWQuAq8Hwq4zmvwT4ilH4KiGswRS/qdlsgDX+JnSHbV65/6vphoZJXl9HzwCQGtI1uICHeEM080hGHM0GxpKm/QH5ABBwACDubwDGCsMjUFCeIBl+Mg6FOoiq9YBqEtIvkwy54GvNRPxnBf7VcxeVLc89kWg7roDErwQ5n0jKgn7r2AwL4QSCzmYTMD+PwH9Dg49rrf7haPHc1R0TXoeEL7R3h+qT7hlCQ4cfzqQ/y8yfR6ZPA5lDJKUgd25+ZOok+MpbYqT61pyFpSuT/W4TyuSDOvP2PZrnCJLf1axsZLadsGe+wrgg/P1g0DBr8JVmAuoF1N3M2A3Em4BhMyJ0AcBmAO4GhT0ooRcUeoaMAg0aCE3wk4xBAgECkR3Q6KKAPMM8CIHzDWABEQ1mw4ORYDAA5qMx+UyQF0TRFC40Mu6U2fY2mV+Z7RZ4H7P1yiKzuQ8MX3Nt04SWXPycMyvavipA/JSEGJXkqlzBWNwq6AFbdgneBIMvIMEKAP4nKPwXE76ASq/OhpsAU8YtzB+2X+pDYOhI9Om4MC+F4VhAc6AjUoLD+ULlVDXDrQszY/Stm158c8bNKyZ1JV8Tkr7qq2y7mFjUosC83MlQ70+JDz0x819bfs3893Z/vstm3yK9vFWCeUvUvEWUt/t9SxTCLcNFm2G1nBnqXih4865c7Bg2Zdytzoixh1+J4FwGqCkbReLtKD2zsDWswqMxA/QGklkFDCtB8wvM9IJQ+LKfZ1an0ri2Z1T+xvkNJ0ZyRWla1UOD5Iu9w2iYGgNEB4CkQxH4CEY+EgwcBoj7E1E+oQwX5CZMIjU5Od7DWxvGdDFzdW3ThP/Lnhk/K1biLaUCnFuFlAf72tZFsQwsiGQoBlr5TyPAvNdW4J25WlPgf09ZvF9qiPt/UrinZ0NJzd1dXr+9g0bh/29N1jTMHrDZBIDrgXkdAL6BCGsZ+U0EXM8MG0DzJhCwGTVuRh/TOt/4jKAcQ8YHBcSISETm/7N3/kFWlecd/z7P+55798dlAd2sBFDEErU0BRskDTLCoAhZFmzsuOmPNNOMmcikHdra4OqY6R/O1PhjdTKaoWPsdJJp7VixjWOoi4VdNqw2QJAUkygxYhVhIfxc3B+X3XvO+zydc+69y8bUohUW7rnvZ4a5A8zuzHnved7v87zv80NcQGQyEKl1TuuttTklmaSiFxFTo4I+BtEmAjcqu4sJ1GDY2lioSyc7o/ko1XB6Vpom9ipYb3/w+Rt/WFnvVIWwdtGmmabePm5tZlnaDNvjeT/hNrFwS7QHER7r348n01qZEHNXS9d1BP4Hw8HV1ZLAOlbcR0/MSuJORL+yRevoCdjpq6nyidivOgnxz5Sv2aiUR4P3/B45LdBVes1VzjESdU/mZfivv7VxxdHKe28qiDXNHdnaqOZv2HIbGQT+SN2TRpKj8mRSmLwm4tadouEn094h7K4VnauJTDsRT0hfH4jx3MZ9YPNBsJyFE3cCiO55sGPpt9PwzVcMSfvVIHjUmGBWtXnqnjQLd5BETOLkJ2BZJycHnnroP39vIM3P3LbwpQk0sdDObFarOt9Zz3NuBa80F8BJ+AMdif7iwc6bfpoW162i+KvrX/h4TS7TTsZ8oXxn4/FUogkmfbkhgMoOUV138nD+357YtSqf9if/WnPnbMv27y3b66qxXNQz3lF3JtaJIVV5IK8j7WkYNEUV78Gv6PoiE99vOJjmNwFP5UQCVJwQFkUCQheAdX2HJ3Q8sevaqjg/vrOlq9WAv8VsLolcwb8QnnMfdUfhSxGFax/uWLYjPe5/Gjz5FV0zDPH9DPojIsDfjXsuVEaHZ0SFQTX4PkS//WDHjT3V8vxJHgvX3Mtq76zUEjFPBUXdJhs7ySfBeODwz/Bo2qo3KE0P07ay+1ZWus+wvbLSJt540k1yv00MkbBXQU9F4r7zyMalr1XTGny1pfOKBqXHrcne5CtJPOfUUU56JiT5JBtcHvekaRpfagU8icYXb2gM6nNtIPpzZlMX+bpxz/kyLiIYzpRbTO6C6neGj+NfH91RfaNk71zRudKI+TsO7KXeJj3nzuaKx+WRhG+ouHsf2rj0n1P9vGl9sLtbtswD6F4QtVAyD86XpnjGyfsnm5SCRRIOQHUjIv3uf0883nW2+9JXAmuaOxrqJPN1suZrIDLir7c850jKApOBE9cP1XU04h6phhHNlPYHbGvuvBVsvm7ZXpO23r2eC8vzT9oxJqVQuicM8XTWuqfu71j6i2pel79c3H15TR0eg+KzNggCf7XlOdsk2eVORFnXu8Hwvoe3LvtZ9bgtVcDaOZvqzaX2NgjdYW0wM47GvZB7zob5mHKbUwn7VXUzE/4x3B91PfyTZUN+fU5zd8uWeSq0GoxbLQeTvQ16PirloT6i0q2E+x769yVd1bcDVRHJmFKqXQ2lr1prp/pNxPP/oZxJPhIW1DB2gfRpEXq2feMNb/rVOZOQd14BZ76khD8x1s6Mo3F/veX5sMJdTFBzOx1L+9t1x7+XxqE+XsDfh7aFm6fSJLOalL5iTPBxL+SeMxrK6BG5wDl5i0k3qNAz21/A9q1Y4i92P7SQvzg5ctHvE+HLzLrAcoBIQn+87jmjcEca7SbBN/MYfjoNzVi8gH8UIZ/It5Hyl421lyfD+X2Sjec9og1VOA0Pk1CnEj2DQvSDSpjpXAm0tq43n3i3aZEL9DYVXRnYzCTRyNuhZxTLmeLUNnW7IHiskKt9ZrxGrnoBrwCS0rO63B8q43Ym/u3Ey0uO9XydatWKNjQWkWMAelToe3ZEOr+xpfrKv8aTtas2zbRiPg8xfwzWOaVMfh+VV6UwEUySVR6BlHoUsi6vw89Ve8TtBfz/4PZ5G+oumlLXospfAWSJNVnrpOAHLKSc4p22TUYzOnFHAe1R6HPBMLbct+XGXr9C48viGd01C2brImV8EcBnDQeNybyDYj29X6DU22KAKCwMw9BGEn38gY03dCYzVD1ewD8obcu7Pk2WvwTVW4wJpvgNJF2vvWGT1GvHHr5zup+NboVigxylnvadS37p1+gCscPm7unEukoFf0BMCywHmeIRu/MnZKmyRwsmRuSiQ3C6XiT6bvvmZbv92ngB/0jcOb97imnSm1X5CxBdYIMgmUMebyKeCnrRiWHIJp+RG4kA3qMqXU75hcAM/eiB51f2+VW6sLlr5Za5EuotbOlzzumcbJAlpxF8c5jKjrZHwoJaou3K+k9y5NSz7TtbvAPtBfzsr9XdLVs+BaBVQTcT8JvJUAqfwX6BvtgELkXZSXKiRseg9DIBm0lN95u5w69WY2e0NNDauj4z62TjfMnQ50RlBRNmW87CR+YV4kizTb4ip1EvQN8XuKferjvxw2otBfMCPs7cPm9D3aRL6hYS8S2ALCfwFUUxL3d68xvI+RBsSjx6k6x+FEWnANkD5h5Au22/3fmNFxcd8iuVLv50RndN0yd5PqmsgspyMH4r4KyRpCNelOQ1eM63aBMMBclnFBbeBaEHQv8SDdOmR7YuOeZXyAv4eWNNc0dDPWo+A+gqZVrqnF6VDbLkN5DxirBLgu3CgkL3MmE7iLZyIfzR3onvvuG9+mqKzF/N/MbwsbkIZRkMlqvI7xibycX/59son4dIO7myIkQSDUAltstnHUcvPLxh2Vt+hbyAX3Dc0bqttubU0DWiuElhlkJxjWUzIX6ZXSzm4nwS3EfYEGKxjv9IklAYDqniTWLaqaAXifXlfDS815eZeMrcfXP3LBnR68limaouIMIMy9liM57EufaJzWdTSsrVHIl9uvA4EW2D0+ct0+a/9V0KvYBXGmtXbZ1ph6PPqMUSZVoAlU9Yk80mbQA1Sl50v4n8b2JNo2Idv6KhG4lf1F+q4nVi7CTl7bB45UTvL/Y9sWu178PpOSNrmnc01PDAXFZarMAiEp5LBk3l7nple/R8cBIbZRNLN0IZcSTYq8QvgvEfYV62fdOXYHoBTwutra9mZg0emuUY8wG+DqLXKtEsy9zAZIudhpII3VXRsTuVxJqT++vi2NcITqWfSN8CaDcp7WTmHxcG5A1/X+Y5W9xzQ9clYZbmOkcLAqPXKeiTRDLVmmySw1K8AvMO9hhLLZ6CsS22M3UjUOAACD8mpa1aoJ6TfYOvPbFrVd6vlhfwKhD09eayoYun2wizYTEPhE+p0tWkeikx58ZM2klGVCqkYoU9Nni8R6hjhyXeBAA+QaB9ScJZqK+Q5d0h6esvd3Cv7zHuGS/uWL7toozNXw3QPFKaLypzlehyQ9RQ7syXHA1r2cHW9It1bKvEiRMTSTgCoXeI8AoI2yTEDpPJv+bLL72Ae0qsae7IZm39VHbRLHKYrYrZFOiVqrhMFE2GKBH22KhiYsOKhbD8CdVxv2MvizOVomkCJ5/FVyvpbBZvfAVATxD0kAq9BcbrxPRzFrx+aqDwTu+U/iM+2cxzIbEY3fbaFTKNla5i1jmqOofUXK3qZoC40RrLibiV7S+xwUpysmN7RcleuXRdhWLJZRQOE9NBEL2hwG4V+S8L/PT4kVNv+wjbC7jnQ7J2zqZ6TEKTqaNpSjRDgRnkaAYxpoExRaCNBNMAaD1BM8kxVxzt/trXO0bez7TREI15QejXfouWoxGHEJC8gvsJegKsRxDhIFnaT+B9AtnnVHszBRy+v+vGPoD8maSnIlEo3dP8UqNyeJkTmgV2V5HgShBmAphGiouVKGfHOtmjjnVR3E//Hecoii9ZfcmpPu1cn94PihF1AYAZANxRKO0npr0kukeZf65O98rB6ICfae8F3HPu4T9r7a7LHYwaUJuZSNlosqheRNDJRGaSFmQSApqgKjmA64lQQ0BWoRkAVgFD5fdASUBxKEEhEUIFRlRlGMxDpBhEqAOU4ZMi7l0G90GlD4Hps0N6sj+bG7g+9+mhzz9DPpL2VB1tC5+bMGIbLs7WRVMAmq6KS4kxHYKpxNSkqo1QTAJzDiJ1IM4wE5eFtXxqNTaSH3W3Y2ebxohz6ZSr/LNFh1qTq7ZiqRwXIHIKiiEw9YFwHKpHVNArTPuN0X1wesARH6ID7pgXai/gHo/H43kfFqPb/u7CoLbAg7lgYm0OYTSBFBPJIOdEJqilHCfONl9BotMB+hjAk0FaC0IWSJQ5DyB2po+K4iAM3mHRA/G/qWBQLPVDeYALrh+BHTicx2C+6WjedxxML/8TAAD//3mHjrHT+WrKAAAAAElFTkSuQmCC;" vertex="1" parent="1">
          <mxGeometry x="210" y="449.24" width="79.15" height="75" as="geometry" />
        </mxCell>
        <mxCell id="v3yQSLaKoU9rgjY1iF_y-40" value="" style="shape=image;verticalLabelPosition=bottom;labelBackgroundColor=default;verticalAlign=top;aspect=fixed;imageAspect=0;image=data:image/png,iVBORw0KGgoAAAANSUhEUgAAALQAAAC0CAYAAAA9zQYyAAAABGdBTUEAALGPC/xhBQAAACBjSFJNAAB6JgAAgIQAAPoAAACA6AAAdTAAAOpgAAA6mAAAF3CculE8AAAABmJLR0QA/wD/AP+gvaeTAAAAB3RJTUUH4QgKAxAbjOCsxgAAEXJJREFUeNrtnV1sXMd1x/8zd5ekKJG2JEumFMl2ZJv6iiNBliDLsmHLYO3WEZuHIi3QJghQtGgT5CEtCvQDfUiDAi0atAiCtIHdl8Yo8kKniCI5gW0GshTHiitbdpuKkhhZkWNa0i5Fmt/cj3vn9GFXH6bE5czeO3vn3nv+gACRu9y9O/Pbc8+Zc+YM4K4+AEAN/u1q8Le/v8Tfvrrg+T9a4vnN/vv+gvd5fYnnjwFYozE2DwPwl3itby/4my8t8fwXkQJJsFzSKgD/oDFn/wrA4+FioJOgPwTwRIPH/xTAXh4mBjopEnV3IX+bx9YC+HseIgY6afoUgK/c5vffALCSh4eBTqL+DsAnbvr5MQBf4GFhoJOqLgD/XP9/rh4ICh6WxsrxEDit3wPwXQAPAfg0D0e6gX47wtf63UWCMAD4JwB/1OBvv4HFl9qqEVzbt+vBIIsttLZmGjxWWuJv5wF8ZPHaNvH0sA/NYqBZLAaaFa3etfRcBpoVi/4MQFHjeS8COMTDxUC7rrE61I00AeCrPFQMdFL0vSWs71cBfMjDdHslednuywD+e5HHfhPJLuL5CoADALoX/P4VAC9Yes/HcWudeCN9EcAlBjo6/RKLJ1c2J9zQjAD4SwDfuel3s7hRpG9DawH0GTx/GbscLBM9B+AnN/381wAu8LAw0EkVAfjjumX+OYB/4yFJt8uRBf0KwN/UfduAh4OBToO+xUPALgeLgWaxki+Xd0A8DqC9weOnAIwv8lgPavvyFtN4/e91tBnAxiX83Pc0X2s3gDsbPP5zNC5lvVmb0Li0dATA2Zt+3gBgS4Tz8zPUSmdZLBaLxWKxWCwWi8VisVgsFovFYrFYLBYrZrUs9T1ysPfPIRK/k4TVjAjnNhwZ/pdWvFXrykeFeBSg3+HZzaAktez8lhZW21GBZzarBloUUge0ABjozPq1KQSa2EJn2UanEGgSRZ7YjFpoSqGFlp5kC51V+0xBMXVAB8JnoDOqgGT6LHRHvp2Bzqjaqx0tm/uW7ikc6e+dAbCcpzhTmt1weHhF6iw0AJBe72NWutTSO3NLG83U16I/mcVZXbE2XWfNz15VIKXTN1KkF2gQFSGyeXakSFkHFCK9JqgEaulduaXDLFr8bWVZglmRdlPfVmeIW+tDSwY6DVLK5C5L6QVacPo7HQr0e663MkvYegvN6e+UWGiDOUeagUbAFjoVPrQB/FKlNyj0wPUcqQkKHZ3zlgJdVZz+zpqFrshyeoG+56VfTAAoMxKZAbp83w8uTqYWaAEQBEYZicwEhUVh7xi6+IGufb15pSP5ROsxGse2uxgSsrwWnXiXQ/M8rjiK0eKoMGCgE+4/G6RV0m+hefd30oE2wDmGu3HLgSbimuhkA61fx0ExWOiWH7xJEAURdeCbb0P7c0edhUAIge7Vq92N8cavYOavnrJgoVX6LbT0LNyGqhXQ/AxYTRqZqav68BsAHUftTsuBVrZSoZMfMZnNAj2pnxowcTkUeem30HlZtfMhp8aZzGaBnh4zsEj6FjqvqukH+u7ce2MAgsgnZYotdNN3zUkDl0N/5oKevefHUg+0GEAAIPIPSpNjTGbTxkB/7HTrOAQwKr4GlXqg6ypEPynscjQ/dvo+tG5QSDHlG+IBmix8WHY5mnc5pkx8aN0pFtkBWsjol+7Y5Qgzdle1YSbt3d5UzAzQVr69bKFDuBx6QCszjzg7FtrGgrtiC92cqiVQaVYzIDTZ7U0ZcjlspETZQjdnCCZMkiox34Uz5XJUy0Bpjgk1nYvpMTtAS5EdH9qzVLTCS3cWA0KY1XHImFpWxAK0tY7ukwy0scthUJhkYqEDeLEAnYvjTQvru4o9l6cJETdcp6nxcC9YKYGqVQtmQ4KW5d200GOXDejXf9liz4rRzAC9+/m3qyP9vRMAVkZ7+wxnof3D30Xw0gtWPvN0T/L7Qyv9nnbju59/uxrHNcbZtdi59Le4YxX7IA1dDr37H8W4zS5GoN1Lrog7VjO1EQSFIptAk3sFSt0rmdpFB5dMtnsXMwe0lW9xWAvdzS5HWHejNrciexaaKPrildAFSgx0aHej5kNTBoG28C0OHRR2rgByeab3thba5O6bQQstbZy3Ui4B5fkQRAsI9qNDA40Wnu3tDNBKOJr+ZqAXYdRgbmNsbB8b0Hkl7XyLQweGvHQX1of2lJc9oKsds1esDPxE2MCQLXRYlyNYPp09l2PjwMg8gOjbHYV0OSQnV0IBTcBUfW6zBXRd7hX6c/p7ER9aN0sYb//veIEmB+s52OVYxELrJlZEdoEW0oaFDrvKwRb6FphJ/7B6IN52yTLegbKwWTZkUMgWehGi9Z8cq4XOxTpOoIKI+kXDLtut3YD8X3wz2juRl0PnqhVuQaoCzH3rT7RgVYFBHQeJ7AItgULUZ36FTqzk8pDb9kQLtBDIOdbwnKbGtC0vJaSOI3aXQ9n48OX5Wgqc1XjsLe0lJJlhH9qzFRFPc48OLQttAWgZ83nu8VrowE76W01cZWKjBFp/LyEU/OwCXV5esdTNny30kpBOm/Tj0H/dDuSyC/T9AxcmAUTu8HLDGR0f2sTl0LbQ82t+eG46s0DX1wCidzvYQkfsQ2sv28V+qKoDQBN383ceaGKgDWSh+TkDvTTQmj40maxyiGLmgbayWZYtdGQ+tEFOJfZKOyeAtrKhkoFeyoqAZjTjjMAkSygYaJI2dn9zUNhwfGYngMDXs9BGh9UrBlrauE3NzwIVTn+3OCCEJPah7R1wPj3B5Ib0n02BVjGnvZ0AOrDU6Z0PEWpkoe0UJnkUxA50Lu4LyEMWbJyf6//714Fly50ASHge5u6JbidMbsdTaHvqD5oHelo/aDbpxxH4bQz0usPDYx/291YBRNqDiwoj7lhEAP5sdA3PvQd2hbueSSt1HNUNL5+OPRp3YNkOBIDL40zGLGQzHDVt4nLo7yUUJg130wp0neoCY2owXF3hgDZJPCVlt7dTQJMDyz1JkuwOC7TBKgdp9+MoMtA3BoMttJHLcVc4oDVdDlL6XfsJYAt9YzAEA91KH1rT5TDKEhIx0DcuQjHQusp3QHQ0vxxJc9OAX9Ek3+CwekeMUs6FiyASRQgLc/+3z0PI5j9i5R+/7FwKPbz/bLBkZ7AGTQz0zYZAFqSIPr0iVveEO6qt605g7IpTQId1N2wdVi+l4qDw+kXYSplOpq+1bnj/Ob11HM4A7XfkLB1PETJx5WCfOxl2hcNSHUcbKgz0Nd07fvcoTI5G152QyfQ1bhStXIPWnxG1dureMQb62iS99poPIPptJilsrdtKoA3qOK7W55CBvj5RVg6zD3uAkIsWOpzLYdLTDgna7e0c0GSjUXYKu/m3NO2tv2xXZKBvJdq9vYUuuhxdrQGalH7pnHAo0+sO0C42nOm6M3Uuh+46dJJ6QrsJtHSvnYFz69C5NohlzZ8EQKVZkGbmk4x2e7OFvtXyWCghpelJs/ztQi3vhvBy7nznu1cBovkaAVu7vYVDtTgOBYUWBkUFwGyIZphCACvucMh/bl1SRZk0mHGont0Z86MgCja+XWpyHDKEL9z29Regzr0Ddfok1Ok3QVdbW9sh12xEbus+eFv3IbflkXBjYVTYL6AbFnokCwz0LRfiF5SNy5kaB7ApVGAodx+A3H2gNtGjl6CGTkKdPgkaeqtWjhmlFW7vhLdpB7yt+5DfcQBy3f0RumAGyTyTOg7lM9ALVZ5WxXyXBVcm4j53Ys16eE98Ft4TnwVUAPr1eQRDdbiH3wX5VUMT7MHbuOWGFe7dA1jy242yhPqhB80Dowz0An3ytYulkf7eSQDROq02+9xJD+K+zcjdtxl49vNAuQT13i9AQ2/VIH9/+LZHp33Mjdi+H6KjNWcYWipMmnjwx+fLDPTth7EIiIiBbmEn0vaO2hmH2/bAw5dAH41CDZ0EnT2FfM9y5LbuQ27roxBd8SRsyOB0MJXAtLeDQIsCgAejDgq9uD7NyjXw9j8L8dhnsMyBgzfN6jg0P6NDaW/AqUzhdaAtBIUsI5dD6R/vTY5ZaMeAJu4VbRVoza79JifHEgO9uH0m9yruUqNqCVSa1QwITbKExEAvfvuyMDhTH+nfP1MsZekoZNd6qjgGtIXjKQIfNDudeaCtne0tBAeFi16MZymFym6H4dYrk9LRgC30YgqEnRSq/1/PQb35KjAzmT1XY/wKqq+/iPKr/2FgofUr+nLweB16MS1TXrFsocWwOnUc6tRxQEiIex+Et20PxLbdEL07IXL5dBFcLcE//w6CMyfgnzmB4NdD5jGEyeGE5XanXA7h2nyM9G+eBaizJW/W3gF5/0OQO/dD7nwc4q4eO4MsBFZbTKyo0Q9q8J45Af//fgoqz4V6vbmxAIFeScrMhsPDXS7xk3PPxFARwH0teatyqVY5N3QS+N43Idash9y2B3L7HshP7QU6OuGiaHYC/tk3rwOsxi9H+/pKu3TUuSabDgKNQsuAXjiRo5cQHDuE4NghIN8G+eAOiG27ay7Kvb2hdouEM8EBgg/O3rDCwye1D85s6u20XQ73GtW7BzRRITZwPuaLVmqWe+gkAnwH6F4F2bsDcudjkDv2Qyy3e6elqavwh96A/z9H4Z85AZqbatX4GzQ5J7bQSzv1ouBkGmRqHOqto1BvHa2Vjd7zwPXgUm7eBXghS6CiCOYiczf054qBXmpApSg4n9lTAejiOfgXzwE/+k+IFXdAbNlV870fegRi1d1GwZz/v8fgn3kDqMZfVqwS2r7AXaBJFYV7iy+Nr3lmEnTNeqO2q0Xu2F9bPendCeTbbhPMHYcav+LeZzHJEnJQqHMbkwUHjrsLH1wODiAYHADaO+Bt34vZtgkE7w+ZEeM40C6eXuaehUZQEK5VtYZRuYTg1DEEPV4yvowGbUwkuedyOEeOB8kHCCXEh1YkGeilFFTyfAhnQlyO8vIKA72U6gegVxgt54Eubxq4MMVALxkUguBQn4dsuBlAdV5hfkJBVbWzhAXhYPSec3OIRQGgTzBq1iJvBD7glxT8CkFVm5ghR872TgjQfPZ35FY4AIIKwS8T/AqFPqKJHFyDdhhoMNChbQIhqKIGcBlQPkX88sRAGwxWUQjBUDZhhf2SqgFcJasVBC7WcTgLtKuD5eKKxDU3IqhQqN7uxu8tGWgD/0wUBLj1wG2tcBXwb4I4LklSHBRqD5ZHBcdLHmIJ5oIyQI5UIpKjGV03XQ7lDxPl3oDAXgBelgAmqvm/11YjmllSs6xZAEeVwFk33VWHdeXpTy8PlpX2QYl+Av02YtqaFYW6GhQnfWxJrUwuFhteEBBHIOnwXEX91KV+0IkCeqHe/0zvJs9DHwh9BDwjgO5EAk11P7hE8CsABc4RfBXAUQgMksJLG48Mf5iUcU7s2hg9+WTuctelRwg4SAJ9IOxy+fN0rpYIyoBfVrotAlqpAALvCsKgAI6se3j4DfE1JDKKSc1i7+XfemBNkPeeBFEfgIMA1nNI2diNADAIIQbL7dVX7h+4kIq2UqnNXrzf/8B2Ce+gIOqDwOMA2jMO8CwIJ0iIwZwMDq87dH4ojR8yE+m4S/3rO0mueBQKfQroF8C2TKyYAEMSOAyJwYm2/PHtA6dTX5abyfzyzcElgN8AcGdKPloRwDEIDCqII/f88NylrM1t5gsm6HPwLs9t2RlI6hOgfgD7gMRsavQBvEkQhz0lBte9dPaUQLZTrFwBdIt70nuXEuIAar73syBscDWYW1YNXl794/NTPGsMdDPuST+APgAdsQRzUhzJSXFo3Q/OXuRZYaAj0Qef27BMVjr3Q6Gvvvb9sIW3URB4RxAGsxTMMdAO6FfPbu/Jy+rTEDhYt94rm3ypAoDjIByhav7IxpdP8xkaDLRDwWXN/34CwGLHA5RAeJ2EGORgjoFOhnvyzPZVos3vI9DTQuAZQZgkgZdVIF8RnTPHNw6MzPMoRa//B3b56Lxxk4eoAAAAJXRFWHRkYXRlOmNyZWF0ZQAyMDE3LTA4LTEwVDAzOjE2OjI3KzAwOjAwZ39N8wAAACV0RVh0ZGF0ZTptb2RpZnkAMjAxNy0wOC0xMFQwMzoxNjoyNyswMDowMBYi9U8AAAAASUVORK5CYII=;" vertex="1" parent="1">
          <mxGeometry x="310" y="449.24" width="75" height="75" as="geometry" />
        </mxCell>
        <mxCell id="v3yQSLaKoU9rgjY1iF_y-41" value="" style="shape=image;verticalLabelPosition=bottom;labelBackgroundColor=default;verticalAlign=top;aspect=fixed;imageAspect=0;image=data:image/png,iVBORw0KGgoAAAANSUhEUgAAALQAAAD+CAYAAACTDi84AAAABGdBTUEAALGPC/xhBQAAACBjSFJNAAB6JgAAgIQAAPoAAACA6AAAdTAAAOpgAAA6mAAAF3CculE8AAAABmJLR0QA/wD/AP+gvaeTAAAAB3RJTUUH4gUfFDMqYz1/2gAAFIZJREFUeNrtnU2MXFV2x//3vqrudn/428bYxmMHbGM7GBBmEGQSQgQaBcbDIjOLSBMpUrIZZRMpmyyyGCWrKJsoiZQRqyyiaEbWaCDAGA8taI8Mzgw2GJt224xtbGCwq7q7+qP6q6reuyeLauO2+6vq3ffqvvfq/5NY0HZ1ld/7v1P/c8+55wLp4RgAadF/ryzzGSZa+Bm+v8T7P9XC9xcA65AyNAjJEBQ0oaAJoaAJoaAJoaAJBU0IBU1I4sjxEsTGDIBZi9dXIvgM4wACi9cbCprc5h8B/LPjz/AnAD5ihE4/lwD8m8XrL0bwGXoBbLN4/VgEUXqT5WcooF4CJzHQTC9Hf0yfgb0cTAoJoaAJoaAJoaAJBU0IBU0IBU0IBU0oaEKyQVZL370ADlu8fhTA75b4+V8AyFt8pv+y/Hd9CuB7Fq//FoC/peyTQRLGGNiwCfalb1v+HBkvfbPbrjn+B0BPyNfmI3j/fQD+xeL1O2g5yEJeArDW4ftvAPBd3gYmhYSCJoSCJoSCJoSCJoSCJhQ0IRQ0IW5IU2HlHwD8a4ve69YyP38H4SuFUXyGcQBvt/Ca1/iIEEIIIYQQQgghhBBCCCGEEEIIIYQQQgghWUM98tKNDbwMJAtMd/smV9HeDQB9vBwk7eQq3jmN+ll0hKQegSpoCIq8FCQT/hlS0NCKEZpkQ9AiRS0QCppkAgNd0IqCJlmyHAq0HCRDEdqIMCkkmUCLKWgFjxGaZAKvwy9qTwIKmmQB6d48MqJrQTcFTbLA6NlXjtT0leObJgHM8nqQdFNf3Lg9rJGJIUm746CgSfYEfXv6KH103GjFa7CqJgGIhHypWihoKQC84HGK2dvay+uwmign52Bmwk3wVaruMvRCQ02IU0EbCf1atTApVIrVQpIALARtFiaFAs0ITdxH6CC8oDXMggjNjjuSiAhtQr/UV94dQQeK/RzEcXQW1Fc5QhJMVIe/FnROs5+DuEVZ+GcA49cH9sx9LehLP99RAk88Ii4jtIXdgLpTGLy9bCcAhnlZiTv/bBOh7+SAeimVE5ImQcuCOope6oeEtJzApqiyRITm0h1Jq4dWS0VoCpqk1XIYWZQUAkY0PTRxKOjwL1ULKt2M0CQZliMIr2gjZrGgDfs5iENsCit6wUZvfeeHhoImjsKzQCS8oLtqnYsFnTc1Cpq40rMN0+d/uW16kaAHe3YP21lzQkLajcBKdncF4juVwmMqAFDi5SUtj9BWO1WWE3T9j2k7SKoELbh7t9U9gubSHXFhOWxM9N1BOLdY0K3f/f3NQxpPHMjurnOd89C9sTPTovzpyRp+NxrOC9tFaCwvaIEquJDV7u0KP3gxl9mbPVfR2Lkj24J+7bRFO71NH4eo5T20ctRCWpoQkHQzOmlxD000nXaLBe0oKSxNUhBpJjDA5IyFbbBYtTPaLJ8UGkdJ4dgkI3Tao7PVhhMLy6HvGdiv7/4fwwhNmr9/Zct6nMXTUNHV5QXtOxpnMDktqPmM0mllxOYb1q5KWLn+6u6J5T10daYIq+kIIT2UAONlCqMdE0KxC+7F+Q3eSwv6yvG9FQBODEBpgsJoR0Hbme/Fixh68d+BIx9Ny5FaQdt4aJt5HEssYuhG/hITQ5LECK2WOHlikaBdjTMoTbBzlYJuMj43YjkUIzRpkhGrpDC6KuHSlsPR7m+Wv9McoY0TQZtGIrQwQpMmHcPYlEWUtaoSSiOWQ7P8TRpmfEqsaiMShH9tgGB1QRth+Zs0cd/KloHIZh3a71h9lUM7Osye5e/28891MYe+58GVp7aNrirofPcaJ0khy9/pxNUKB6CG8SNlVhX04LGtUwCmaTtIYxHaJiGMZsj5ioKe/8tcuiOxe+io16BXEDR3rpBGLYebPo7lKtq6mXAef4Rm+budLEdUU/sXkktShP7xzwL8+GdB9u66VvC2uvv6+atvd+Dv/qwrcYK2qhIuU9FeMkIrHiCUKTat1fFZjnIydnuvKGgeIJQxQffFN21lrGycCHq58c+6GfWTtEboeARdnhVUbI5rtUgKA9GNC9qAw88p6JgTQtjtJ8x1+U1EaMnRQ2eIzTF5aCtBi9hMOpfuzSMjDQu6k9P8M4NWwPreuCK0RYi1mjiK0tlXjtQaFvSFN3eNA6hQDulnfa+CF9Mih7s+juVzvOUqhQLFw+zpn1cJk+XkjC9YRdAAANqOLAi6L8Y1aFfzOAQhBC0UdDYSwvgitN1eQps+DoSK0FzpyAAbYxW0m9ZRpUMJmtVCeuhVBF12M9NOiSqGEDSrhZmwHDF6aKvGJJuzvZtf5XA3zoCkI0LPVQUzFUeWY4VKtl4hrFPQ9NDLMmJd9g4foX3kmhe09oRJYSYsRwL7OESsppCbcqV5D13TeUboDLChL4F9HHYbkyauD+yZa1rQVx+9bwSAT0mkl75uhc58PL97xNEa9Grzy5d/fOszD0YpixTbjSyWvWXl+shq30e0HWlOCPuSWVSx2xwbNkJT0Kkn1r2EjjrtxEbQohRXOmg5lonQrs5VWXk5ObdyeHdTXHn5WQ8//J6XGWFV/Rzuv7+v5e/bkY/RQ0+5OoZCbAStCtL6YwsxPSvo61GZEfRcRbC2Ozv/HgAYnnCzbKdEwieFnOZPlv7GAaZmbTy0xdR+T1skheKmWshp/slmdNJY7G+1sxy+CsIL2sBjhCZLCNpqP6CVoDvzXeEF7XKavx8wSicVqyU7u9GFs/Pzy8MJum97gYfZk8XfoGVnQ85vreqxV/rD+dkHY7Qd5K4IPeGoj6OBXVSNlJJ4zBuJznLENI+jYUGLI0GP8niK5CaFrixHA6ccrypo5Wj39xgtR3IF7epsby1RWA5Fy0HusRxuZkJLFB6a1UKy+N7YlL3DPwwqCg/tqkGJETqZBAaYnHGzDt3I3PLVBa20Ew/NpDC5/tkmr1M2EbqBueWrCtoowwhNFgjaboerTVLYyNzyVQXtqZwTQU9M1b/eSMIEXXa1Bo3q/NxyO0FP5X0ngg4MMDlNASWNEVdneysUASXWgv7y2AOzAJx0VtB2JNNDO4rQDQVWHeUvY2KYfUqu9hJKlIIWR9VCCjp5lqOczPEFzQlaKxZXiFPLIWhsAkGusV8mBRdbPM8MGazpSr8ItAf0XK227P327vDw+INe4gSNmDvtGhZ0vVrYekmfPm9w+nwG1u50AG/rXMve7m+OdsYmaHd9HBKd5VA8niJVxDXk3AgwbjOPI7CpEqroBG2Es6JTJeiYZtqNT4lVscvmXBVPTJQR2mOETlWETuBMaEvLUTP56ATtOdr9TcIR10y70bKtfw4t6OBK77ZSZIKuBd0UND20w72EGMExFUQm6CvHN00CmKVUkk9XHujpSt65KqoFZe+GBT0PE8M29s+2ghYKmiTJbtQFbTGPw64XOBZB00e3u6DLybccuSaeMSfVwt41Cmt74/ndxRIyN0Nvc1Ith00rdBMnSTQhaDfVwuee1Pj7v8zF8rv/+p9qGPosW4KOM0JbnR5rYTmamTygG39KsjcreuNaWo5mIuxY2U0fh4pD0AKduRbSDVkUdExl7/KsoGpxDKvNkMagCe3pOJ6SaAUdZ4RW2RN0TB56xLrsHf6lHoLoBR0oN/0cce5a2bgui4JO4GH1xiorlN5txeHIBZ3Tbvo5KjVgJqZW4ixG6Lj6OEplV+cSojQ/pzxaQV/6+Y4SgJqLmxSX7chaUpjPAX1rMtfH0dRiRBOGSwmAETcrHfH83vUZi9Ab+zRUTP8kK8shNkt2zRX0mssglKtxBvFsw8pahI73KGSbNejwL1VxClqczYqO5/eu7VHIedmJ0vEWVdycq9Ls9j/d3C+XTAlaKWB9Hyjo2Fc54t8cmypBl1gtbMxy9MXXx2FzlJvV2d5xRmgjOnPnrWxYS8vRUIS2mTpq0ccRSGyrHO4idFxJIQBsWkdBr8ZMRTBbcdM6qmFijNCO+jnG2M/hdJXDdre3TVLoGS8+QWtxNM2/LDEKOksROoF9HCJWh2uXe4L4LEe+gSMB4mB6tl4CZ1LoxnJY93GEfxom5+eTxyPowZ7dw7YfMWm24/7NGvlc+qP0xj6FdT3J6+OwsRth6h7NbQU5pgIc/bIEYHOrb1hpwmDbpui/Ug/vVXjrPzpw4YrBmYuCDy4G+PSGWG0ZagWeBh5+wMPTB3L448M5PPagBx3TczniaA1ahdjHGmJvkyoA0npBx5gYdnUATx7UePIg8EN4GCsD5y4bfDBocPqCQbGUDHU/sEXj6QM5PH3Awx8cyqG3qzXfLKOOtl4hxKSBEIKWAoBDrbccrRPVhj7guSMazx2pfyN8NSz44GJd4L8ZNJhu0cidjX0KT+6rC/iPHslh2wbt5EGym8dh4aBbE6Hd7P4ec3JsUZ3tWxReftbDy896CALgyhd1a/LexwafXLE7iPLubwqFxx/08PSBupU4uMuLrXuuOcth0YthJPQiR6MjdK0ELVBOpvmXEnLeiucB+3cr7N+dww9erJ+n+OGlevT+9ScBbo02kZEr4MAu72sb8cTeHDpySBx2Ebo1u71DC1opFOFAW6WEHvG2rnehPcndZU/OXBSU7zkXe8s6hWcO1hO5px7OYX1P8ldYXC3bqZYIGqogDhSdlgOE7rUnFz8TnL0k2LmnC88cyGHXVo00UfWBqTk3EVppHX9SaBwdIJTGQzg9D3jkIYW9D3jYuaMDacT2bG+bBMNH85Vp3fwLTOb6OUhMdgNiJegcuuIXtO9onMHktGRuDl0asBv/ZXW/Zi//75Zy7IJW1Zki0HoTLQKMlymwdK1wWL11qMDZtKCvHN9bAeDEAPBk2ZR5aGOSL+j5pQ5HPpqWo+WCLjvaSyitFLSznSsUdMu/FcuuGpNU6wSdtXEGZIWkcMLNxKSw45t1uKdHaDnaxnK4mQltQmosnOVwtPubSaGLpNBN66gO6QJCtcKIo2rhrz8J8O8/Bb55SOPx/RodeQouLt/8/pCP9wd9TEy7WbYLQkboUIJW0AUXO7HGy8BPTgT4yYkAnXng8F6NIwcVnjzoYd83VCJaLdNIYIBLXwQ4PeRj4LyPc1eDSFpilTGhCxY65PnyoQRtxBS0Y/FUaqh3tV0E/hMBNq4FHt2n8a3HNJ45rLG2l+peiS+GDU4P+Tg9FOD9IX9RV2AU2CSF+WpQbJmgkTNFBMnqGitNAu+eMXj3jIGngYd21SP3kYMKj+/P1lDGMMxVBR9dDXB6qB6JB28Esb6f5Uzo2uCJnWMtE3RnvqtQC6qJ/gq9fF1w+bqP//4FsKYTeOKAxjOPajz1+xrbNrWHuL8YNjh5wce7H/s4+1vf6tCfMHbDguL8PPIQdjgk+45+OQWgJ403evsWVd8Ue6gu8O6umKNjRWPnjo0tSeY++LRuI06er6Ew7m6ZU6oBTGkGIUX54eXXdz7ROstR/8hFQO1Jo6C/Gha8djLAayfTnVzeTuYGzteTuaHPg8j2N0by4cIqy+IYbgtBqwKAVAo6zcnlXcncRR/l2YQWm1p0tneUEdrJ7u92Sy5nK4Jz1+rJ3Dsf13DtpknFdbRLCpWzCJ1pVkwuD2ls2xyPuK/eNHj34xpODwU481sfNT+FF89YDXgstlzQSqEobdZaMVsBTp0zOHXORJpcLkzmBs7XUBzPwIVt0dnekQm63nHX3s1CC5PLjjzwaIPJZWCAj6/Vk7nTQz4ufh4gc8HBZh6Hp1svaAUpsPftDtUVkssjhzQ+u2Xw3kUfpwZ9/OZygLlqtq+eTR+HzUbs0II2MAUFTSU3kFxCB/C2TrXXBbDYIFvT+UL4hyFshJZckbIly/vn0IIOrubuG225oDsdTfMnabAbVnZqFMdU0HJBX3hz1ziACm8fiTIhBOw2YFuYYCVQGObdI0skWBbh3Zmg7Z8mklXLYbFkp5VDQQsFTZb47g7cFFUAq9I3gBBnYJAMRmQBUAsgFR9S9YGaxQhdy5YKS0GzWti2IvYNUPHrIq4ZRFXqNBZ9HBEIWmg52ibRE0j1dhQObE+3SqblqI8z4GbUbIZgAL6BVHyYSs3KRjT13MBzJ2ildTE5WySINYG5E4UrAVx0TGkJ3AlawxQMI3Sqo7DMJ3Oo+HVf7PgT5ddMDjsTdE3nC57xKYy0JnNVg4Ql9WODxw5ZjROwWoe++uh9IwCo6CQL2AhkzoeZmENQnIYZmYYpV+qJXfJWqKwXGewKKz9SBsAoZZOwZK4WwJQrCEanYYpTMOOzkNmabY9F7KgI6hq5iJ6q+6ikhCRzVd/F2MGonsVCUgRNXCRzcz6kUrM9bSpJMToBgha8BYXDjNIxUzOQamKTuSi4JMoMRGBbomHfSzd+T3n6qBj1HSj8IYBOqvB2pqLgbe1tOpnDwjVhY7J2VaYg+D+l5Q3te68O/WL7jYh8ePRsP/pVd6+WZ2DwPJQ8D8ETFHTv6smcH8DM2Tf4JBQDhY8gqh8a/X333Tx59pUjtRgSy/jZf/TWHlH+CxA8D+AFAOsp6HuSuYqfxT6vAoBfQfBGviZvDJ54oNSClZIW833xHp65+Zjo4HmBOgrgaSDj28dvC1pQ98G3o3D2jnqeg+CUUtKvjNd/6c37Pww7Fjc9gr7Xex/9arNS5jkRPA+FFyHYmTlBKwWV1/PFjMxxDUC/UugHOt8Kcz53pgTN5DKFyRwwAIXXPV+fiCqZy6ygmVwmjgAK5+JO5tpC0Ewu2yeZa0tBt31yGR+zELznMpmjoNsxuYwpmct1dhwfPJaN4XuZ7c5ncrmIUQDvQKHfF/3Wtde3f57Ff2RbbDdp0+QyVckcBc3kcqnbeQuQt5XC6x1B0H/hzW+Mtdu95YbAdCeX9yRz28+2++2koNOXXF4D0G9EveFPVd++PrBnjneNgk5Tcvl1Mhcodfzqazu+4F2hoNOUXN6VzG2f2D4wMKC4EZmCTlNyKZ8B6m2l0F/Rtbevv7pnnFeXgk5NcqmAGRG8z2SOgk4ND/3pzS0q57+glPo2BC9AoQBRJxTkl7muiVO2A1XI0vw/24hL8HfA/qEAAAAldEVYdGRhdGU6Y3JlYXRlADIwMTgtMDUtMzFUMjA6NTE6NDIrMDA6MDBsbCJiAAAAJXRFWHRkYXRlOm1vZGlmeQAyMDE4LTA1LTMxVDIwOjUxOjQyKzAwOjAwHTGa3gAAAABJRU5ErkJggg==;" vertex="1" parent="1">
          <mxGeometry x="400" y="450" width="56.7" height="80" as="geometry" />
        </mxCell>
        <mxCell id="v3yQSLaKoU9rgjY1iF_y-44" value="Client" style="rounded=1;whiteSpace=wrap;html=1;fontSize=18;fontStyle=1;verticalAlign=top;" vertex="1" parent="1">
          <mxGeometry x="190" y="170" width="240" height="100" as="geometry" />
        </mxCell>
        <mxCell id="v3yQSLaKoU9rgjY1iF_y-49" value="" style="shape=image;verticalLabelPosition=bottom;labelBackgroundColor=default;verticalAlign=top;aspect=fixed;imageAspect=0;image=data:image/png,iVBORw0KGgoAAAANSUhEUgAAAgAAAAIACAYAAAD0eNT6AAAABmJLR0QA/wD/AP+gvaeTAAAU9ElEQVR4nO3da5DkV33f4e/pmRVCEtpZSYSYvUzP7CBLLMgG4YCLmwDHpEBcfKMMBWUMFYck5AUpO9gxThEDBbahClccx44tcKIEExIsY5ex7BgiJ8jlEhjZktcIeS49sythbruzBl1npk9eiFQRvNJ2r7qnZ+c8z8ud8z/nN6op9Wd6+t+dAAAAAAAAAAAAAAAAAAAAAAAAAAAAAAAAAAAAAAAAAAAAAAAAAAAAAAAAAAAAAAAAAAAAAAAAAAAAAAAAAAAAAAAAAAAAAAAAAAAAAAAAAAAAAAAAAAAAAAAAAAAAAAAAAAAAAAAAAAAAAAAAAAAAAAAAAAAAAAAAAAAAAAAAAAAAAAAAAAAAAAAAAAAAAAAAAAAAAAAAAAAAAAAAAAAAAAAAAAAAAAAAAAAAAAAAAAAAAAAAAAAAAAAAAAAAAAAAAAAAAAAAAAAAAAAAAAAAAAAAAAAAAAAAAAAAAAAAAAAAAAAAAAAAADC0MukBzgWXHziwv9/Z88J+6pWlpJtkNsneJDNJLpjocAB8s/uSrCc5lZq10kmvJnfUTueTy8vLa5MebicRAA9jYXb2abWUHyk1L67JFZOeB4BHqy4mubHf6Vy/srJyy6SnmTQB8P+bOtzt/mBq+YmkXj3pYQAYk5Lba/Lu5V7vvyXpT3qcSRAA37DQ7b6i1vrepCxMehYAts3nSi1vX1xb+cikB9luzQfAwsLC47Ox8YGacu2kZwFgMkrJ/+xsbv7onceP3zXpWbZL0wEwf+jQi0rpXJ/k2yY9CwCTVr9Sk9cvr67+3qQn2Q5Tkx5gUha63bck5fokF096FgB2gnJBSXn1pftmHjyxvv6pSU8zbk0GwOHZuXcmeVcafwYEgL+jJHnRvpmZvSdPrf/hpIcZp+YCYKHbfXuSn5n0HADsXCX57ktm9l5y8tSp35/0LOPSVAAcPjT3Y0neO+k5ADgXlGdesnfmvpOn1m+e9CTj0MxT4HMH557b6fQ/mZTpEWx3b5K/yUPvNrWe1CbvIQXYWTolyUxSZ5L6hKRcNIJN+6XkJYu93h+MYK8dpYkAuPyJl1+2tefBv0jyxLPboW6W5MZaO79T6uYnF48dWxrpgACM3Nzc3Gzp919UUl6a5Nok553dTvUrU1tb37nbbhFsIgAWZrsfqMmPDn9l3Swpv1anp969tLR0bPSTAbAdZmdnv226lJ9MzZtyFiFQUj66uLryg2MYbWJ2fQA8aW7uef1+vSnDf6+39jvl9SsrK7eNYSwAJqDb7V7RqfmNkjxz2Gtr6kuXV1c/Po65JqEz6QHGrd/vvy9DPvjXlOvKnunv9uAPsLv0er079l126XNT8ovDXltSfj676HFzV98FcLjb/UdJ+VfDXFNq3r+01nvziRMnNsc1FwCT84UvfKF/cn39xn17Z1JKrhni0r+3b2bv7SdPnfrcuGbbTrumZE6rlh8fZnlJPrS41vuXSeqYJgJgh1he6/3bmvLLw1xTSnnruObZbrs2ALrdbjepLxj4gpLb79148B/Hgz9AMx570QVvKTW3DHxBzXfNH5h/6hhH2ja7NgCmanldBv/+tupW5w133333veOcCYCd5ejRow8m/Tck2Rj0mjK19boxjrRtdm0AlFoH/3jfmuuXjy1/ZozjALBDLa6tHU3JBwe/orx0fNNsn10ZAPPz83trydWDri/p/8I45wFgZ5uu9T1JtgZc/uRvP3jwLN9YbufYlQHQqfWZGfwOhz9dXFv7q3HOA8DO9vnV1ZXU/NGg67fK9LPHOc92GMX74u84/VqfPPCN/zU3jHOW5KEXJHaSF6SWZ3SSvbXWzVrKV0v6n9qzufm/77jrrq+O6JzzO8n3dWqurcl3JJlLMpXUY0m5PbXcuNWpH+n1euujOO/yAwf2b3X2fH8p9Vn95HBJLkvK35TUz/dLPrXZ7//22trayVGcBTB2ndyQmhcPsrSfeuW4xxm3XflOgIcPdX8lJf9kkLX9TnnmysrK4K8AHcJCt3tNrfUdSXnOIyx7sKZcvyf9d31+dXXlLI8qC7Nzb6yp70zyhEdaWJN7UvML/U5+rtfr3X82h11+4MD+zamp95Tkh8/w4Ur31uRX+yU/O6roABiXbrd7xVTNoPf4/+bSau81Yx1ozHblnwBSyoEBV9bH3Xvv0VEff+TIkfPmZ+d+qdZ88gwP/klyXkl942bKX87Pzr5h2LMWFhYunu92P1ZTfy1nePBPkpJcWErePpXccvjw4YNDn3dw7uVbU9O3l5TXDvDJiheU5C1TNUfn5ub+wbBnAWynXq/310kG+sWo1uwf8zhjtzsDIHXQj4A8cdsXv3jPKE8+8vgjF93/9XtuLKn/PMM9w3JBSbnu8OzcOwe9YGFh4eK6sfm/Ss3Lhh605qnZ2Lp54eDBw4NecvjQ3I/VTr0hyb4hT3tip9//xNzBuecOeR3AdtpKcvdAK0suHu8o47dbA+DCARd+fdQn33/hPdclGfwNiP6O+tMLs7P/bJCV/Y2N65I8/ayPKjmYztRHFxYWHnOmpQvd7vNT+v8+Z/0zUy7qdOrHhgkOgO1Wkq8Ntm7gXzR3rF0aAGXA76sO/MYPg1g4NPfa1Lzq0e5TU943f2D+SY+0Zn529gdKyqP+aMqafEfd2HjbI605cODAY/s1HxzgKf8z2Venpoa41xZge9WSBwdal3LOf5bOLg2A7XfkyJHzaum/e0TbnV+m++96hK+XkvKOEZ2VmvKWbrc787DDTE+/qTx0R8EoDnvuwtzc945kLwDOmgAYkfvvuef7koFffHhmNd+/sH/htPvNH5p/dpKR3YJSkgun+uWHHnaUmjeN6qwkqf36T0e5HwDDEwAjUmpePuItp+qezdO+3WQpWyP/DbqU09/7+o2/2V8+yrNq8g+vvvrqPaPcE4DhCIARqckzRr1nqTn9rXO1XDXqs2qpp9+zTD9t1GeV5ML1L61/+6j3BWBwAmB0Rvf0/zf068PsWc58v//Qav7+6f+5juX9rsvU1jl/Dy3AuUwAjM4Zb6UbVikPu2d/1Gc93J61M56fkVqrnz2ACfI/4dH50sh3LKffs6YO9kYVwzn+MP/+xTGclX6nM47vAYABCYCRKSP/RMGSnHbPTnLrqM9K6mdPe1a/f9voz8qDU1NTd4xhXwAGJABGpJT6iVHv2e93TvvRlLU//TujPqvUzu+e7t+/8VHJvREf94nFxcUHRrwnAEMQACNSp6b+S5IRvrNgXVxeW/6T031l6djSXybl5tGdlbsf87gLPvZwgyTluhGelTz0wUUATJAAGJGlpaVjJfn1kW1YyrvyCC/26/fzU4/09WHU1J85evTow779ZZ0q/y6jeo1DyaeXVld/eyR7AXDWBMAI3b+1+bYM+klSj6h8YqnX+0+PtGLl2Mr/Ser7RnDW7y2vrj7i+/MvLy+fKrW8OUl9lIfdVzc7bxzBPgA8SgJghI4fP36i9juvSPK3j2Kbz01t7PnhDPAgeXB17l8nueHsj6qf2Sr1tYOctbi28t+T8m8exVmbpZbXLx9fvv3s9wBgVATAiC0fW/5M7Xe+J8ldQ19c8umyZ/r5d95951cGWX5Tbto8uNp9Val5f4b/rfrD59970Qt6vd76oBcsra68Myn/IkO+1qEkJ1LKyxbXVj4y5IwAjIkAGIPlY8ufLnumn5bkwxnsgflrpeRnt5LnLS4ufnmYs27KTZuLa723JPV7ktx0xgtKbi8lr1xa7b366JePfn2Ys5JkaXXll0rqs5J62jsUvkU/qddvpD5lqde7cdizABifMukBxuHwbPfPkjz9zCvr4tLq6pPGOsvBw09Jp//6pP/iJFckZfobX7ovya2p+dgD/c1fP378+IlRnDc/P395Z2vr2pp8Z5K5pEyl5FhquT116/eX1tb+bBTnJMn8wflnlM7Wy5POC5O6P8neJCdLyVI/+WQ6nd9aXl6+c1TnAYzb4W73ltR815nW1WRlebU3vx0zjYsAGHMAfLNrcs308qHlxyXJ2traye06F4DBtBQA02dewqjclJs2sxYP/ABMnNcAAECDBAAANEgAAECDBAAANEgAAECDBAAANEgAAECDBAAANKjtNwIq5dKFbvc9kx4DgJ2hJgcmPcN2aTsAavbV5K2THgMAtps/AQBAgwQAADRIAABAgwQAADRIAABAgwQAADRIAABAgwQAADRIAABAg9p+J8DU1alaXzjpKQDYGbY6nRtSc9Wk59gOjQdANu5cW1ue9BAA7AyHu90HJj3DdvEnAABokAAAgAYJAABokAAAgAYJAABokAAAgAYJAABokAAAgAYJAABokAAAgAYJAABokAAAgAYJAABokAAAgAYJAABokAAAgAYJAABokAAAgAYJAABokAAAgAYJAABokAAAgAYJAABokAAAgAYJAABokAAAgAYJAABokAAAgAYJAABokAAAgAYJAABokAAAgAYJAABokAAAgAYJAABokAAAgAYJAABokAAAgAYJAABokAAAgAYJAABokAAAgAYJAABokAAAgAYJAABokAAAgAYJAABokAAAgAYJAABokAAAgAYJAABokAAAgAYJAABokAAAgAYJAABokAAAgAYJAABokAAAgAYJAABokAAAgAYJAABokAAAgAYJAABokAAAgAYJAABokAAAgAYJAABokAAAgAYJAABokAAAgAYJAABokAAAgAYJAABokAAAgAYJAABokAAAgAYJAABokAAAgAYJAABokAAAgAYJAABokAAAgAYJAABokAAAgAYJAABokAAAgAYJAABokAAAgAYJAABokAAAgAYJAABokAAAgAYJAABokAAAgAYJAABokAAAgAYJAABokAAAgAYJAABokAAAgAYJAABokAAAgAYJAABokAAAgAYJAABokAAAgAYJAABokAAAgAYJAABokAAAgAYJAABokAAAgAYJAABokAAAgAYJAABokAAAgAYJAABokAAAgAYJAABokAAAgAYJAABokAAAgAYJAABokAAAgAYJAABokAAAgAYJAABokAAAgAYJAABokAAAgAYJAABokAAAgAYJAABokAAAgAYJAABokAAAgAYJAABokAAAgAYJAABokAAAgAYJAABokAAAgAYJAABokAAAgAYJAABokAAAgAYJAABokAAAgAYJAABokAAAgAYJAABokAAAgAYJAABokAAAgAYJAABokAAAgAYJAABokAAAgAYJAABokAAAgAYJAABokAAAgAYJAABokAAAgAYJAABokAAAgAYJAABokAAAgAYJAABokAAAgAYJAABokAAAgAYJAABokAAAgAYJAABokAAAgAYJAABokAAAgAYJAABokAAAgAYJAABokAAAgAYJAABokAAAgAYJAABokAAAgAbtzgAo2RpoXS2PGfMkAJxbzh9kUSnZHPcg47Y7A6Dm6wOtK3ncmCcB4FxSs3fAdV8b8yRjt1sD4G8HXDlz6NChfWOdBYBzwpEjR85Lsn/A5YM+zuxYuzIAainHB137mKmpp45zFgDODQ/ec8+Tk0wNtroeG+sw22BXBkBJ7hh07dZWvWaMowBwjqjJCwZdO8zjzE61OwOg1NuHWPtD45wFgHNDrRn48aBfp24b5yzbYVcGwP2bm7ckeWCw1eUp84fmnzPWgQDY0eYPzD81ybMGXL61mc2bxznPdtiVAXD8+PH7kvzpoOtL+m8b4zgA7HCl0//pJGWw1fXWtbW1k2MdaBvsygBIklLyscEX58Xzs7MvHeM4AOxQ84fmn5OSVw26viQ3jHOe7bJrA2CrlA8l2Rh0fUn55Sv27790jCMBsMMsLCxcXEr/ugz823/q5kOPL+e8XRsAKysrX0zyu0Nccmhjes//WFhY8O6AAG2Yqg9u/ucklw96QSn5o16v1xvfSNtn1wZAkvQ75eeGvOSaurH5myIAYHe7JtdMH+52P5CSVwxzXa313eOaabsN+pTHOWv+UPcPSsn3DnnZH+/Z3PiBO+6666tjGQqAiel2uzNTNf81yUuGu7LcvLS6smvuGtvVzwAkSZ0qP5HUYT+04fkb03v+wgsDAXaX+UOHXjRVc2uGfvBPv5T64+OYaVIGfMvDc9f6+voXL5mZeVxSnj3kpReXlNdcMrP3OZddcsnqifX11bEMCMDYLXS7z9q3d+ZXSynvSDIz9AY1/3Fptfcro59scnb9nwCS5KonPOHCe85/7C1Jnnz2u9TFlPJbtdY/7pfyV71ebzVJHdWMAIzO/Pz8oU6/f2W/n+eXklcmufJRbLe8VXJ1r9dbH9V8O0ETAZAkT5qdvbKf3JKUi0a47XpEAMBOM8pPeb2/pD57cXX1syPcc0doJgCSZKHbfUWt+Wga+NMHAI9aLbX8yOLayvWTHmQcmnogPLG+/vlL9u77QkquTWPxA8CQan5yaa33HyY9xrg0FQBJcvLU+mf37ZtZK8m1aeAuCACG1i+pb15aW33/pAcZp+YCIElOrq//+SX7Zm6ryctKct6k5wFgx7g/Ja9bWl39jUkPMm5NPw3+0AsDy4eTXDXpWQCYrJLcUUpe/de93p9Pepbt0OQzAP/PiVOnvnLp4y/7YN3qb5aSZyWZnvRMAGy3upnkffdtbLxm9dixY5OeZrs0/QzAN1s4ePBw7Uy9N8kr4r8LQBNqzR92Sv2p3Xib35l4oPsWC7OzT6+lvDU1r4zXBwDsRhup+XhK/fml1dU/mfQwkyIAHsYV+/dfujF93quT+pKaPK8kF056JgDO2r2l5OZ+8vEyNfWhpaWlL016oEkTAAO4+uqr96x/+ctXpdN5Ump9ck3mOslMTc6f9GwAfKvOAyVZr0mvpv+59Kfu7Dymc9vi4uIDk54MAAAAAAAAAAAAAAAAAAAAAAAAAAAAAAAAAAAAAAAAAAAAAAAAAAAAAAAAAAAAAAAAAAAAAAAAAAAAAAAAAAAAAAAAAAAAAAAAAAAAAAAAAAAAAAAAAAAAAAAAAAAAAAAAAAAAAAAAAAAAAAAAAAAAAAAAAAAAAAAAAAAAAAAAAAAAAAAAAAAAAAAAAAAAAAAAAAAAAAAAAAAAAAAAAAAAAAAAAAAAAAAAAAAAAAAAAAAAAAAAAAAAAAAAAAAAAAAAAAAAAAAAAAAAAAAAAAAAAAAAAAAAAAAAAAAAAAAAAAAAAACAXe3/AhbCWQj/Wov8AAAAAElFTkSuQmCC;" vertex="1" parent="1">
          <mxGeometry x="270" y="190" width="80" height="80" as="geometry" />
        </mxCell>
      </root>
    </mxGraphModel>
  </diagram>
</mxfile>
